<svg width="1307" height="2407" viewBox="0 0 1307 2407" fill="none" xmlns="http://www.w3.org/2000/svg">
<g clip-path="url(#clip0_8_2)">
<rect width="2407" height="1307" transform="matrix(0 -1 1 0 0 2407)" fill="#FF9900"/>
<g clip-path="url(#clip1_8_2)">
<path d="M-322.625 1375.18C-448.272 1235.09 -366.096 1081.51 -331.808 475.575C-300.976 -69.3229 -352.49 -209.204 -228.858 -312.367C-126.759 -397.561 -42.2432 -343.367 478.258 -343.304C930.204 -343.251 985.609 -384.094 1078.08 -316.717C1134.63 -275.508 1235.37 -171.717 1212.44 632.197C1196.24 1200.32 1185.05 1486.4 1033.61 1585.46C975.077 1623.75 921.398 1629.76 277.192 1527.45C-221.531 1448.25 -272.102 1431.51 -322.625 1375.18Z" fill="#020100"/>
<path d="M-233.208 2351.17C-329.256 1796.64 -217.394 1549.77 -85.3084 1428.84C54.2783 1301.05 247.312 1285.66 312.958 1102.06C372.176 936.435 257.863 829.289 335.192 717.275C423.753 588.991 601.963 688.547 764.875 565.004C942.326 430.436 855.104 218.117 1002.19 10.0613C1082.42 -103.417 1244 -232.117 1606.36 -271.761C1616.83 774.157 1627.3 1820.07 1637.77 2865.99C1079.68 2825.71 521.599 2785.42 -36.4917 2745.14C-102.066 2613.81 -167.635 2482.49 -233.208 2351.17Z" fill="#262626"/>
<path d="M339.542 2861.15C215.436 2406.1 285.123 2205.74 384.492 2109.47C524.852 1973.48 705.831 2063.21 858.642 1907.89C1021.4 1742.47 918.068 1537.04 1020.08 1276.57C1082.5 1117.17 1233.86 906.41 1646.48 735.161C1622.63 1372.28 1598.78 2009.4 1574.94 2646.52C1163.14 2718.07 751.342 2789.61 339.542 2861.15Z" fill="#060606"/>
<path d="M318.758 2830.7C194.653 2375.65 264.34 2175.28 363.708 2079.01C504.068 1943.03 685.048 2032.75 837.858 1877.44C1000.62 1712.01 897.284 1506.59 999.292 1246.11C1061.71 1086.72 1213.08 875.956 1625.69 704.707" stroke="#060606" stroke-width="13.3333" stroke-miterlimit="10"/>
<path d="M1107.67 713.166C1107.67 748.29 1136.24 776.864 1171.36 776.864C1206.48 776.864 1235.05 748.29 1235.05 713.166C1235.05 678.042 1206.48 649.469 1171.36 649.469C1136.24 649.469 1107.67 678.042 1107.67 713.166ZM1259.08 713.166C1259.08 725.005 1256.76 736.495 1252.19 747.323C1247.76 757.77 1241.44 767.152 1233.39 775.206C1225.34 783.259 1215.96 789.582 1205.51 794.005C1194.68 798.583 1183.2 800.903 1171.36 800.903C1159.52 800.903 1148.03 798.583 1137.21 794.005C1126.76 789.582 1117.38 783.259 1109.33 775.206C1101.28 767.152 1094.95 757.77 1090.53 747.323C1085.95 736.495 1083.63 725.005 1083.63 713.166C1083.63 701.328 1085.95 689.837 1090.53 679.009C1094.95 668.563 1101.28 659.18 1109.33 651.127C1117.38 643.073 1126.76 636.75 1137.21 632.327C1148.03 627.749 1159.52 625.429 1171.36 625.429C1183.2 625.429 1194.68 627.749 1205.51 632.327C1215.96 636.75 1225.34 643.073 1233.39 651.127C1241.44 659.18 1247.76 668.563 1252.19 679.009C1256.76 689.837 1259.08 701.328 1259.08 713.166Z" fill="#FF9900"/>
<path d="M-66.7821 677.395C-66.7821 729.549 -24.3551 771.977 27.7917 771.977C79.9386 771.977 122.361 729.549 122.361 677.395C122.361 625.241 79.9386 582.813 27.7917 582.813C-24.3551 582.813 -66.7821 625.241 -66.7821 677.395ZM158.05 677.395C158.05 694.976 154.604 712.035 147.808 728.108C141.245 743.626 131.853 757.557 119.896 769.516C107.943 781.471 94.0132 790.863 78.4982 797.428C62.4274 804.225 45.3706 807.671 27.7917 807.671C10.2129 807.671 -6.84393 804.225 -22.9148 797.428C-38.4298 790.863 -52.3594 781.471 -64.3171 769.516C-76.2699 757.557 -85.6611 743.626 -92.2248 728.108C-99.0204 712.035 -102.467 694.976 -102.467 677.395C-102.467 659.814 -99.0204 642.754 -92.2248 626.681C-85.6611 611.164 -76.2699 597.233 -64.3171 585.273C-52.3594 573.319 -38.4298 563.926 -22.9148 557.362C-6.84393 550.565 10.2129 547.119 27.7917 547.119C45.3706 547.119 62.4274 550.565 78.4982 557.362C94.0132 563.926 107.943 573.319 119.896 585.273C131.853 597.233 141.245 611.164 147.808 626.681C154.604 642.754 158.05 659.814 158.05 677.395Z" fill="#FF9900"/>
<path d="M159.858 1855.44C159.858 1899.76 195.905 1935.81 240.217 1935.81C284.529 1935.81 320.576 1899.76 320.576 1855.44C320.576 1811.12 284.529 1775.07 240.217 1775.07C195.905 1775.07 159.858 1811.12 159.858 1855.44ZM350.9 1855.44C350.9 1870.38 347.971 1884.87 342.195 1898.54C336.622 1911.72 328.643 1923.56 318.483 1933.72C308.323 1943.88 296.486 1951.86 283.306 1957.43C269.647 1963.21 255.152 1966.14 240.217 1966.14C225.282 1966.14 210.787 1963.21 197.128 1957.43C183.947 1951.86 172.11 1943.88 161.95 1933.72C151.791 1923.56 143.811 1911.72 138.238 1898.54C132.462 1884.87 129.533 1870.38 129.533 1855.44C129.533 1840.5 132.462 1826.01 138.238 1812.35C143.811 1799.16 151.791 1787.32 161.95 1777.16C172.11 1767 183.947 1759.02 197.128 1753.45C210.787 1747.67 225.282 1744.74 240.217 1744.74C255.152 1744.74 269.647 1747.67 283.306 1753.45C296.486 1759.02 308.323 1767 318.483 1777.16C328.643 1787.32 336.622 1799.16 342.195 1812.35C347.971 1826.01 350.9 1840.5 350.9 1855.44Z" fill="#FCB76A"/>
<path d="M78.4692 1405.73C85.5693 1395.13 94.54 1386.23 105.13 1379.29C115.357 1372.58 126.648 1367.98 138.688 1365.59C150.728 1363.21 162.922 1363.18 174.928 1365.49C187.364 1367.88 199.046 1372.7 209.646 1379.8C220.245 1386.9 229.143 1395.87 236.089 1406.47C242.793 1416.69 247.399 1427.98 249.777 1440.03C252.155 1452.07 252.194 1464.26 249.883 1476.27C247.486 1488.71 242.672 1500.39 235.572 1510.99L214.049 1496.57C235.117 1465.12 226.674 1422.4 195.228 1401.32C163.782 1380.25 121.056 1388.7 99.9871 1420.15L78.4692 1405.73Z" fill="#FF9900"/>
<path d="M698.431 1162.18C687.242 1156.05 677.59 1147.9 669.731 1137.96C662.147 1128.37 656.56 1117.53 653.119 1105.75C649.682 1093.96 648.566 1081.82 649.803 1069.65C651.084 1057.05 654.844 1044.99 660.978 1033.8C667.111 1022.61 675.26 1012.95 685.193 1005.1C694.782 997.512 705.623 991.924 717.402 988.482C729.186 985.045 741.327 983.928 753.492 985.166C766.093 986.447 778.157 990.208 789.341 996.342L776.891 1019.06C743.7 1000.86 701.892 1013.06 683.694 1046.25C665.497 1079.45 677.696 1121.26 710.887 1139.46L698.431 1162.18Z" fill="#020100"/>
<path d="M1335 193.569C1339.51 207.873 1341.1 222.646 1339.7 237.476C1338.35 251.79 1334.29 265.543 1327.64 278.353C1320.98 291.158 1312.06 302.387 1301.12 311.717C1289.79 321.385 1276.8 328.578 1262.49 333.102C1248.19 337.622 1233.42 339.208 1218.59 337.806C1204.28 336.457 1190.53 332.397 1177.72 325.74C1164.92 319.089 1153.69 310.165 1144.36 299.226C1134.69 287.895 1127.5 274.896 1122.98 260.588L1152.02 251.408C1165.44 293.85 1210.88 317.469 1253.31 304.055C1295.75 290.636 1319.36 245.191 1305.95 202.749L1335 193.569Z" fill="#060606"/>
<path d="M217.258 2290.02C229.936 2290.02 240.217 2300.3 240.217 2312.98C240.217 2325.66 229.936 2335.94 217.258 2335.94C204.581 2335.94 194.3 2325.66 194.3 2312.98C194.3 2300.3 204.581 2290.02 217.258 2290.02Z" fill="#060606"/>
<path d="M606.825 236.534C621.639 236.534 633.65 248.546 633.65 263.363C633.65 278.179 621.639 290.191 606.825 290.191C592.011 290.191 580 278.179 580 263.363C580 248.546 592.011 236.534 606.825 236.534Z" fill="#262626"/>
<path d="M591.842 1908.61C598.381 1908.61 603.683 1903.31 603.683 1896.77C603.683 1890.23 598.381 1884.93 591.842 1884.93C585.302 1884.93 580 1890.23 580 1896.77C580 1903.31 585.302 1908.61 591.842 1908.61Z" fill="#020100"/>
<path d="M561.633 2253.28C571.778 2253.28 580 2261.5 580 2271.65C580 2281.79 571.778 2290.02 561.633 2290.02C551.488 2290.02 543.267 2281.79 543.267 2271.65C543.267 2261.5 551.488 2253.28 561.633 2253.28Z" fill="#020100"/>
<path d="M62.5289 374.863C67.8456 374.863 72.157 379.175 72.157 384.493C72.157 389.81 67.8456 394.122 62.5289 394.122C57.2123 394.122 52.901 389.81 52.901 384.493C52.901 379.175 57.2123 374.863 62.5289 374.863Z" fill="#FF8A05"/>
<path d="M62.5289 327.408C67.8456 327.408 72.157 331.72 72.157 337.037C72.157 342.36 67.8456 346.667 62.5289 346.667C57.2123 346.667 52.901 342.36 52.901 337.037C52.901 331.72 57.2123 327.408 62.5289 327.408Z" fill="#FF8A05"/>
<path d="M62.5289 279.958C67.8456 279.958 72.157 284.27 72.157 289.587C72.157 294.904 67.8456 299.216 62.5289 299.216C57.2123 299.216 52.901 294.904 52.901 289.587C52.901 284.27 57.2123 279.958 62.5289 279.958Z" fill="#FF8A05"/>
<path d="M62.5289 232.503C67.8456 232.503 72.157 236.815 72.157 242.132C72.157 247.449 67.8456 251.761 62.5289 251.761C57.2123 251.761 52.901 247.449 52.901 242.132C52.901 236.815 57.2123 232.503 62.5289 232.503Z" fill="#FF8A05"/>
<path d="M62.5289 185.051C67.8456 185.051 72.157 189.363 72.157 194.681C72.157 199.998 67.8456 204.31 62.5289 204.31C57.2123 204.31 52.901 199.998 52.901 194.681C52.901 189.363 57.2123 185.051 62.5289 185.051Z" fill="#FF8A05"/>
<path d="M62.5289 137.596C67.8456 137.596 72.157 141.908 72.157 147.226C72.157 152.543 67.8456 156.855 62.5289 156.855C57.2123 156.855 52.901 152.543 52.901 147.226C52.901 141.908 57.2123 137.596 62.5289 137.596Z" fill="#FF8A05"/>
<path d="M62.5289 90.146C67.8456 90.146 72.157 94.4531 72.157 99.7753C72.157 105.093 67.8456 109.405 62.5289 109.405C57.2123 109.405 52.901 105.093 52.901 99.7753C52.901 94.4531 57.2123 90.146 62.5289 90.146Z" fill="#FF8A05"/>
<path d="M62.5289 42.6906C67.8456 42.6906 72.157 47.0025 72.157 52.3199C72.157 57.6373 67.8456 61.9492 62.5289 61.9492C57.2123 61.9492 52.901 57.6373 52.901 52.3199C52.901 47.0025 57.2123 42.6906 62.5289 42.6906Z" fill="#FF8A05"/>
<path d="M95.9224 374.863C101.239 374.863 105.55 379.175 105.55 384.493C105.55 389.81 101.239 394.122 95.9224 394.122C90.6057 394.122 86.2896 389.81 86.2896 384.493C86.2896 379.175 90.6057 374.863 95.9224 374.863Z" fill="#FF8A05"/>
<path d="M95.9224 327.408C101.239 327.408 105.55 331.72 105.55 337.037C105.55 342.36 101.239 346.667 95.9224 346.667C90.6057 346.667 86.2896 342.36 86.2896 337.037C86.2896 331.72 90.6057 327.408 95.9224 327.408Z" fill="#FF8A05"/>
<path d="M95.9224 279.958C101.239 279.958 105.55 284.27 105.55 289.587C105.55 294.904 101.239 299.216 95.9224 299.216C90.6057 299.216 86.2896 294.904 86.2896 289.587C86.2896 284.27 90.6057 279.958 95.9224 279.958Z" fill="#FF8A05"/>
<path d="M95.9224 232.503C101.239 232.503 105.55 236.815 105.55 242.132C105.55 247.449 101.239 251.761 95.9224 251.761C90.6057 251.761 86.2896 247.449 86.2896 242.132C86.2896 236.815 90.6057 232.503 95.9224 232.503Z" fill="#FF8A05"/>
<path d="M95.9224 185.051C101.239 185.051 105.55 189.363 105.55 194.681C105.55 199.998 101.239 204.31 95.9224 204.31C90.6057 204.31 86.2896 199.998 86.2896 194.681C86.2896 189.363 90.6057 185.051 95.9224 185.051Z" fill="#FF8A05"/>
<path d="M95.9224 137.596C101.239 137.596 105.55 141.908 105.55 147.226C105.55 152.543 101.239 156.855 95.9224 156.855C90.6057 156.855 86.2896 152.543 86.2896 147.226C86.2896 141.908 90.6057 137.596 95.9224 137.596Z" fill="#FF8A05"/>
<path d="M95.9224 90.146C101.239 90.146 105.55 94.4531 105.55 99.7753C105.55 105.093 101.239 109.405 95.9224 109.405C90.6057 109.405 86.2896 105.093 86.2896 99.7753C86.2896 94.4531 90.6057 90.146 95.9224 90.146Z" fill="#FF8A05"/>
<path d="M95.9224 42.6906C101.239 42.6906 105.55 47.0025 105.55 52.3199C105.55 57.6373 101.239 61.9492 95.9224 61.9492C90.6057 61.9492 86.2896 57.6373 86.2896 52.3199C86.2896 47.0025 90.6057 42.6906 95.9224 42.6906Z" fill="#FF8A05"/>
<path d="M129.311 374.863C134.628 374.863 138.939 379.175 138.939 384.493C138.939 389.81 134.628 394.122 129.311 394.122C123.994 394.122 119.683 389.81 119.683 384.493C119.683 379.175 123.994 374.863 129.311 374.863Z" fill="#FF8A05"/>
<path d="M129.311 327.408C134.628 327.408 138.939 331.72 138.939 337.037C138.939 342.36 134.628 346.667 129.311 346.667C123.994 346.667 119.683 342.36 119.683 337.037C119.683 331.72 123.994 327.408 129.311 327.408Z" fill="#FF8A05"/>
<path d="M129.311 279.958C134.628 279.958 138.939 284.27 138.939 289.587C138.939 294.904 134.628 299.216 129.311 299.216C123.994 299.216 119.683 294.904 119.683 289.587C119.683 284.27 123.994 279.958 129.311 279.958Z" fill="#FF8A05"/>
<path d="M129.311 232.503C134.628 232.503 138.939 236.815 138.939 242.132C138.939 247.449 134.628 251.761 129.311 251.761C123.994 251.761 119.683 247.449 119.683 242.132C119.683 236.815 123.994 232.503 129.311 232.503Z" fill="#FF8A05"/>
<path d="M129.311 185.051C134.628 185.051 138.939 189.363 138.939 194.681C138.939 199.998 134.628 204.31 129.311 204.31C123.994 204.31 119.683 199.998 119.683 194.681C119.683 189.363 123.994 185.051 129.311 185.051Z" fill="#FF8A05"/>
<path d="M129.311 137.596C134.628 137.596 138.939 141.908 138.939 147.226C138.939 152.543 134.628 156.855 129.311 156.855C123.994 156.855 119.683 152.543 119.683 147.226C119.683 141.908 123.994 137.596 129.311 137.596Z" fill="#FF8A05"/>
<path d="M129.311 90.146C134.628 90.146 138.939 94.4531 138.939 99.7753C138.939 105.093 134.628 109.405 129.311 109.405C123.994 109.405 119.683 105.093 119.683 99.7753C119.683 94.4531 123.994 90.146 129.311 90.146Z" fill="#FF8A05"/>
<path d="M129.311 42.6906C134.628 42.6906 138.939 47.0025 138.939 52.3199C138.939 57.6373 134.628 61.9492 129.311 61.9492C123.994 61.9492 119.683 57.6373 119.683 52.3199C119.683 47.0025 123.994 42.6906 129.311 42.6906Z" fill="#FF8A05"/>
<path d="M162.705 374.863C168.021 374.863 172.333 379.175 172.333 384.493C172.333 389.81 168.021 394.122 162.705 394.122C157.383 394.122 153.077 389.81 153.077 384.493C153.077 379.175 157.383 374.863 162.705 374.863Z" fill="#FF8A05"/>
<path d="M162.705 327.408C168.021 327.408 172.333 331.72 172.333 337.037C172.333 342.36 168.021 346.667 162.705 346.667C157.383 346.667 153.077 342.36 153.077 337.037C153.077 331.72 157.383 327.408 162.705 327.408Z" fill="#FF8A05"/>
<path d="M162.705 279.958C168.021 279.958 172.333 284.27 172.333 289.587C172.333 294.904 168.021 299.216 162.705 299.216C157.383 299.216 153.077 294.904 153.077 289.587C153.077 284.27 157.383 279.958 162.705 279.958Z" fill="#FF8A05"/>
<path d="M162.705 232.503C168.021 232.503 172.333 236.815 172.333 242.132C172.333 247.449 168.021 251.761 162.705 251.761C157.383 251.761 153.077 247.449 153.077 242.132C153.077 236.815 157.383 232.503 162.705 232.503Z" fill="#FF8A05"/>
<path d="M162.705 185.051C168.021 185.051 172.333 189.363 172.333 194.681C172.333 199.998 168.021 204.31 162.705 204.31C157.383 204.31 153.077 199.998 153.077 194.681C153.077 189.363 157.383 185.051 162.705 185.051Z" fill="#FF8A05"/>
<path d="M162.705 137.596C168.021 137.596 172.333 141.908 172.333 147.226C172.333 152.543 168.021 156.855 162.705 156.855C157.383 156.855 153.077 152.543 153.077 147.226C153.077 141.908 157.383 137.596 162.705 137.596Z" fill="#FF8A05"/>
<path d="M162.705 90.146C168.021 90.146 172.333 94.4531 172.333 99.7753C172.333 105.093 168.021 109.405 162.705 109.405C157.383 109.405 153.077 105.093 153.077 99.7753C153.077 94.4531 157.383 90.146 162.705 90.146Z" fill="#FF8A05"/>
<path d="M162.705 42.6906C168.021 42.6906 172.333 47.0025 172.333 52.3199C172.333 57.6373 168.021 61.9492 162.705 61.9492C157.383 61.9492 153.077 57.6373 153.077 52.3199C153.077 47.0025 157.383 42.6906 162.705 42.6906Z" fill="#FF8A05"/>
<path d="M1306.63 843.278C1311.95 843.278 1316.26 847.59 1316.26 852.908C1316.26 858.225 1311.95 862.537 1306.63 862.537C1301.31 862.537 1297 858.225 1297 852.908C1297 847.59 1301.31 843.278 1306.63 843.278Z" fill="#FF8A05"/>
<path d="M1306.63 795.823C1311.95 795.823 1316.26 800.135 1316.26 805.452C1316.26 810.774 1311.95 815.082 1306.63 815.082C1301.31 815.082 1297 810.774 1297 805.452C1297 800.135 1301.31 795.823 1306.63 795.823Z" fill="#FF8A05"/>
<path d="M1306.63 748.372C1311.95 748.372 1316.26 752.684 1316.26 758.002C1316.26 763.319 1311.95 767.631 1306.63 767.631C1301.31 767.631 1297 763.319 1297 758.002C1297 752.684 1301.31 748.372 1306.63 748.372Z" fill="#FF8A05"/>
<path d="M1306.63 700.917C1311.95 700.917 1316.26 705.229 1316.26 710.546C1316.26 715.864 1311.95 720.176 1306.63 720.176C1301.31 720.176 1297 715.864 1297 710.546C1297 705.229 1301.31 700.917 1306.63 700.917Z" fill="#FF8A05"/>
<path d="M1306.63 653.466C1311.95 653.466 1316.26 657.778 1316.26 663.096C1316.26 668.413 1311.95 672.725 1306.63 672.725C1301.31 672.725 1297 668.413 1297 663.096C1297 657.778 1301.31 653.466 1306.63 653.466Z" fill="#FF8A05"/>
<path d="M1306.63 606.011C1311.95 606.011 1316.26 610.323 1316.26 615.64C1316.26 620.958 1311.95 625.27 1306.63 625.27C1301.31 625.27 1297 620.958 1297 615.64C1297 610.323 1301.31 606.011 1306.63 606.011Z" fill="#FF8A05"/>
<path d="M1306.63 558.561C1311.95 558.561 1316.26 562.868 1316.26 568.19C1316.26 573.507 1311.95 577.819 1306.63 577.819C1301.31 577.819 1297 573.507 1297 568.19C1297 562.868 1301.31 558.561 1306.63 558.561Z" fill="#FF8A05"/>
<path d="M1306.63 511.105C1311.95 511.105 1316.26 515.417 1316.26 520.734C1316.26 526.052 1311.95 530.364 1306.63 530.364C1301.31 530.364 1297 526.052 1297 520.734C1297 515.417 1301.31 511.105 1306.63 511.105Z" fill="#FF8A05"/>
<path d="M227.476 954.383V974.512H208.317V979.694H227.476V999.823H232.657V979.694H253.75V974.512H232.657V954.383H227.476Z" fill="#FF8A05"/>
<path d="M158.069 2105.13V2115.19H148.49V2117.79H158.069V2127.85H160.665V2117.79H171.206V2115.19H160.665V2105.13H158.069Z" fill="#FF8A05"/>
<path d="M1014.85 898.135V908.199H1005.28V910.79H1014.85V920.854H1017.45V910.79H1027.99V908.199H1017.45V898.135H1014.85Z" fill="#FF8A05"/>
<path d="M401.437 354.653V364.717H391.858V367.313H401.437V377.373H404.028V367.313H414.574V364.717H404.028V354.653H401.437Z" fill="#FF8A05"/>
<path d="M1266.44 89.8946V110.019H1247.28V115.206H1266.44V135.334H1271.63V115.206H1292.71V110.019H1271.63V89.8946H1266.44Z" fill="#FF8A05"/>
<path d="M564.79 1681.68V1691.75H555.215V1694.34H564.79V1704.4H567.385V1694.34H577.931V1691.75H567.385V1681.68H564.79Z" fill="#FF8A05"/>
<mask id="mask0_8_2" style="mask-type:luminance" maskUnits="userSpaceOnUse" x="0" y="-10" width="1450" height="2417">
<path d="M1450 -10V2407H0V-10H1450Z" fill="white"/>
</mask>
<g mask="url(#mask0_8_2)">
<mask id="mask1_8_2" style="mask-type:luminance" maskUnits="userSpaceOnUse" x="-264" y="772" width="585" height="584">
<path d="M124.439 788.451C276.529 841.567 356.768 1007.93 303.659 1160.05C250.55 1312.16 84.2063 1392.41 -67.8891 1339.3C-219.98 1286.18 -300.218 1119.81 -247.109 967.696C-194 815.584 -27.6564 735.335 124.439 788.451Z" fill="white"/>
</mask>
<g mask="url(#mask1_8_2)">
<path d="M-3.48 761.231C-0.696 762.203 0.768538 765.243 -0.202962 768.028C-1.17446 770.807 -4.21463 772.272 -6.9938 771.3C-9.77296 770.329 -11.2423 767.288 -10.2708 764.509C-9.29933 761.729 -6.25917 760.259 -3.48 761.231Z" fill="#FF9900"/>
<path d="M2.16055 843.278C4.93971 844.25 6.40909 847.291 5.43759 850.07C4.46609 852.854 1.42592 854.319 -1.35325 853.348C-4.13241 852.376 -5.60179 849.335 -4.63029 846.556C-3.65879 843.776 -0.618619 842.307 2.16055 843.278Z" fill="#FF9900"/>
<path d="M14.6208 807.589C17.4 808.561 18.8694 811.606 17.8979 814.386C16.9264 817.165 13.8862 818.635 11.107 817.663C8.32302 816.691 6.85848 813.651 7.82998 810.867C8.80148 808.087 11.8416 806.622 14.6208 807.589Z" fill="#FF9900"/>
<path d="M27.0812 771.904C29.8604 772.876 31.3296 775.917 30.3581 778.696C29.3866 781.481 26.3465 782.945 23.5673 781.974C20.7833 781.002 19.3189 777.961 20.2904 775.182C21.2619 772.402 24.302 770.933 27.0812 771.904Z" fill="#FF9900"/>
<path d="M7.80104 925.326C10.5802 926.298 12.0495 929.338 11.078 932.118C10.1065 934.897 7.06632 936.367 4.28715 935.395C1.50315 934.423 0.0387085 931.383 1.01021 928.603C1.98171 925.824 5.02188 924.354 7.80104 925.326Z" fill="#FF9900"/>
<path d="M20.2613 889.636C23.0404 890.608 24.5098 893.649 23.5383 896.433C22.5668 899.213 19.5266 900.677 16.7475 899.711C13.9635 898.739 12.4989 895.694 13.4704 892.914C14.4419 890.134 17.4821 888.665 20.2613 889.636Z" fill="#FF9900"/>
<path d="M32.7218 853.952C35.5009 854.923 36.9703 857.964 35.9988 860.744C35.0273 863.523 31.9871 864.993 29.2031 864.021C26.4239 863.049 24.9594 860.009 25.9309 857.229C26.8976 854.445 29.9426 852.98 32.7218 853.952Z" fill="#FF9900"/>
<path d="M45.1821 818.263C47.9612 819.234 49.4305 822.275 48.459 825.059C47.4875 827.839 44.4473 829.303 41.6633 828.337C38.8842 827.365 37.4197 824.319 38.3912 821.54C39.3579 818.76 42.4029 817.291 45.1821 818.263Z" fill="#FF9900"/>
<path d="M57.6423 782.578C60.4215 783.549 61.886 786.59 60.9193 789.37C59.9478 792.149 56.9029 793.619 54.1237 792.647C51.3445 791.675 49.8752 788.635 50.8467 785.855C51.8182 783.071 54.8583 781.606 57.6423 782.578Z" fill="#FF9900"/>
<path d="M0.981187 1043.06C3.76035 1044.03 5.22963 1047.07 4.25813 1049.85C3.28663 1052.63 0.246464 1054.1 -2.5327 1053.13C-5.3167 1052.16 -6.78115 1049.11 -5.80965 1046.34C-4.83815 1043.56 -1.79798 1042.09 0.981187 1043.06Z" fill="#FF9900"/>
<path d="M13.4415 1007.37C16.2207 1008.34 17.6901 1011.39 16.7186 1014.17C15.7471 1016.94 12.7069 1018.41 9.92773 1017.44C7.14373 1016.47 5.67919 1013.43 6.65069 1010.65C7.62219 1007.87 10.6624 1006.4 13.4415 1007.37Z" fill="#FF9900"/>
<path d="M25.9019 971.684C28.681 972.656 30.1503 975.696 29.1788 978.476C28.2073 981.26 25.1672 982.725 22.3832 981.753C19.604 980.786 18.1395 977.741 19.111 974.961C20.0777 972.182 23.1227 970.712 25.9019 971.684Z" fill="#FF9900"/>
<path d="M38.3622 935.999C41.1413 936.971 42.6107 940.011 41.6392 942.791C40.6677 945.571 37.6276 947.04 34.8436 946.069C32.0644 945.097 30.5999 942.056 31.5665 939.277C32.538 936.492 35.583 935.028 38.3622 935.999Z" fill="#FF9900"/>
<path d="M50.8225 900.31C53.6017 901.282 55.0662 904.322 54.0996 907.102C53.1281 909.886 50.083 911.351 47.3038 910.379C44.5247 909.408 43.0554 906.367 44.0269 903.587C44.9984 900.808 48.0385 899.338 50.8225 900.31Z" fill="#FF9900"/>
<path d="M63.2829 864.625C66.0621 865.597 67.5265 868.638 66.5598 871.417C65.5883 874.197 62.5434 875.666 59.7642 874.695C56.985 873.723 55.5156 870.683 56.4871 867.898C57.4586 865.119 60.4989 863.654 63.2829 864.625Z" fill="#FF9900"/>
<path d="M75.7432 828.936C78.5224 829.908 79.9869 832.948 79.0154 835.728C78.0439 838.512 75.0037 839.977 72.2246 839.005C69.4454 838.034 67.976 834.993 68.9475 832.213C69.919 829.434 72.9592 827.964 75.7432 828.936Z" fill="#FF9900"/>
<path d="M88.1987 793.251C90.9827 794.218 92.4471 797.263 91.4756 800.043C90.5041 802.823 87.464 804.292 84.6848 803.32C81.9056 802.349 80.4364 799.308 81.4079 796.524C82.3794 793.744 85.4195 792.28 88.1987 793.251Z" fill="#FF9900"/>
<path d="M6.62176 1125.11C9.40093 1126.08 10.8703 1129.12 9.8988 1131.9C8.9273 1134.68 5.88706 1136.15 3.10306 1135.17C0.32389 1134.2 -1.14057 1131.16 -0.169072 1128.38C0.802428 1125.6 3.84259 1124.13 6.62176 1125.11Z" fill="#FF9900"/>
<path d="M19.082 1089.42C21.8612 1090.39 23.3305 1093.43 22.359 1096.21C21.3875 1098.99 18.3473 1100.46 15.5633 1099.49C12.7841 1098.52 11.3197 1095.48 12.2912 1092.69C13.2579 1089.91 16.3029 1088.45 19.082 1089.42Z" fill="#FF9900"/>
<path d="M31.5423 1053.73C34.3215 1054.7 35.786 1057.74 34.8194 1060.52C33.8479 1063.31 30.8077 1064.77 28.0237 1063.8C25.2445 1062.83 23.78 1059.79 24.7467 1057.01C25.7182 1054.23 28.7583 1052.76 31.5423 1053.73Z" fill="#FF9900"/>
<path d="M44.0027 1018.05C46.7819 1019.01 48.2463 1022.06 47.2797 1024.84C46.3082 1027.62 43.2632 1029.09 40.484 1028.12C37.7049 1027.14 36.2356 1024.1 37.2071 1021.32C38.1786 1018.54 41.2187 1017.08 44.0027 1018.05Z" fill="#FF9900"/>
<path d="M56.4582 982.357C59.2422 983.329 60.7067 986.37 59.7352 989.149C58.7637 991.933 55.7236 993.398 52.9444 992.427C50.1652 991.455 48.6959 988.414 49.6674 985.635C50.6389 982.855 53.679 981.386 56.4582 982.357Z" fill="#FF9900"/>
<path d="M68.9185 946.668C71.7025 947.64 73.1669 950.68 72.1954 953.465C71.2239 956.244 68.1838 957.709 65.4046 956.742C62.6254 955.77 61.1562 952.73 62.1277 949.945C63.0992 947.166 66.1393 945.701 68.9185 946.668Z" fill="#FF9900"/>
<path d="M81.3788 910.983C84.1628 911.955 85.6273 914.996 84.6558 917.775C83.6843 920.56 80.6442 922.024 77.865 921.053C75.0858 920.081 73.6165 917.04 74.588 914.261C75.5595 911.481 78.5996 910.012 81.3788 910.983Z" fill="#FF9900"/>
<path d="M93.8392 875.294C96.6232 876.266 98.0878 879.306 97.1163 882.091C96.1448 884.87 93.1046 886.34 90.3254 885.368C87.5414 884.396 86.0769 881.356 87.0484 878.571C88.0199 875.792 91.0601 874.327 93.8392 875.294Z" fill="#FF9900"/>
<path d="M106.3 839.609C109.079 840.581 110.548 843.622 109.576 846.401C108.605 849.181 105.565 850.65 102.786 849.679C100.002 848.707 98.5372 845.667 99.5087 842.887C100.48 840.107 103.52 838.638 106.3 839.609Z" fill="#FF9900"/>
<path d="M118.76 803.92C121.539 804.891 123.008 807.932 122.037 810.717C121.065 813.496 118.025 814.961 115.246 813.994C112.462 813.022 110.998 809.982 111.969 807.197C112.941 804.418 115.981 802.953 118.76 803.92Z" fill="#FF9900"/>
<path d="M131.22 768.235C133.999 769.207 135.469 772.248 134.497 775.027C133.526 777.807 130.486 779.276 127.702 778.305C124.922 777.333 123.458 774.292 124.429 771.513C125.396 768.733 128.441 767.264 131.22 768.235Z" fill="#FF9900"/>
<path d="M-0.198134 1242.84C2.58103 1243.81 4.05031 1246.85 3.07881 1249.63C2.10731 1252.41 -0.932838 1253.88 -3.71684 1252.91C-6.49601 1251.94 -7.96047 1248.9 -6.98897 1246.12C-6.0223 1243.34 -2.9773 1241.87 -0.198134 1242.84Z" fill="#FF9900"/>
<path d="M12.2622 1207.15C15.0414 1208.12 16.5107 1211.17 15.5392 1213.94C14.5677 1216.72 11.5276 1218.19 8.74359 1217.22C5.96442 1216.25 4.49989 1213.21 5.46655 1210.43C6.43805 1207.65 9.48303 1206.18 12.2622 1207.15Z" fill="#FF9900"/>
<path d="M24.7225 1171.46C27.5017 1172.44 28.9662 1175.48 27.9996 1178.26C27.0281 1181.04 23.9878 1182.5 21.2038 1181.54C18.4247 1180.57 16.9602 1177.53 17.9269 1174.74C18.8984 1171.96 21.9385 1170.5 24.7225 1171.46Z" fill="#FF9900"/>
<path d="M37.1829 1135.78C39.962 1136.75 41.4265 1139.79 40.4598 1142.57C39.4883 1145.35 36.4433 1146.82 33.6642 1145.85C30.885 1144.88 29.4156 1141.84 30.3871 1139.06C31.3586 1136.27 34.3989 1134.81 37.1829 1135.78Z" fill="#FF9900"/>
<path d="M49.6431 1100.09C52.4223 1101.06 53.8869 1104.1 52.9154 1106.89C51.9439 1109.67 48.9037 1111.13 46.1245 1110.16C43.3454 1109.19 41.876 1106.15 42.8475 1103.37C43.819 1100.59 46.8591 1099.12 49.6431 1100.09Z" fill="#FF9900"/>
<path d="M62.0987 1064.4C64.8827 1065.38 66.3472 1068.42 65.3757 1071.2C64.4042 1073.98 61.364 1075.45 58.5848 1074.47C55.8057 1073.5 54.3364 1070.46 55.3079 1067.68C56.2794 1064.9 59.3196 1063.43 62.0987 1064.4Z" fill="#FF9900"/>
<path d="M74.559 1028.72C77.343 1029.69 78.8075 1032.73 77.836 1035.51C76.8645 1038.29 73.8243 1039.76 71.0452 1038.78C68.266 1037.82 66.7966 1034.77 67.7681 1031.99C68.7396 1029.21 71.7798 1027.74 74.559 1028.72Z" fill="#FF9900"/>
<path d="M87.0194 993.031C89.7986 994.002 91.2678 997.043 90.2963 999.823C89.3248 1002.6 86.2847 1004.07 83.5055 1003.1C80.7215 1002.13 79.2571 999.088 80.2286 996.308C81.2001 993.524 84.2402 992.059 87.0194 993.031Z" fill="#FF9900"/>
<path d="M99.4797 957.341C102.259 958.313 103.728 961.354 102.757 964.138C101.785 966.918 98.7451 968.382 95.9659 967.411C93.1819 966.444 91.7174 963.399 92.6889 960.619C93.6604 957.839 96.7005 956.37 99.4797 957.341Z" fill="#FF9900"/>
<path d="M111.94 921.657C114.719 922.628 116.189 925.669 115.217 928.449C114.246 931.228 111.205 932.698 108.426 931.726C105.642 930.754 104.178 927.714 105.149 924.934C106.121 922.15 109.161 920.685 111.94 921.657Z" fill="#FF9900"/>
<path d="M124.4 885.967C127.18 886.939 128.649 889.98 127.677 892.764C126.706 895.544 123.666 897.008 120.882 896.037C118.103 895.07 116.638 892.025 117.61 889.245C118.576 886.465 121.621 884.996 124.4 885.967Z" fill="#FF9900"/>
<path d="M136.861 850.283C139.64 851.255 141.104 854.295 140.138 857.075C139.166 859.854 136.126 861.324 133.342 860.352C130.563 859.381 129.098 856.34 130.065 853.56C131.037 850.776 134.082 849.311 136.861 850.283Z" fill="#FF9900"/>
<path d="M149.321 814.593C152.1 815.565 153.565 818.606 152.593 821.385C151.627 824.17 148.582 825.634 145.802 824.663C143.023 823.696 141.554 820.65 142.525 817.871C143.497 815.091 146.537 813.622 149.321 814.593Z" fill="#FF9900"/>
<path d="M161.781 778.909C164.56 779.881 166.025 782.921 165.053 785.701C164.087 788.48 161.042 789.95 158.263 788.978C155.483 788.007 154.014 784.966 154.986 782.186C155.957 779.402 158.997 777.937 161.781 778.909Z" fill="#FF9900"/>
<path d="M5.44229 1324.88C8.22145 1325.86 9.69082 1328.9 8.71932 1331.68C7.74782 1334.46 4.70768 1335.93 1.92368 1334.95C-0.855491 1333.99 -2.32003 1330.94 -1.35336 1328.16C-0.381862 1325.38 2.66312 1323.91 5.44229 1324.88Z" fill="#FF9900"/>
<path d="M17.9028 1289.2C20.6819 1290.17 22.1464 1293.21 21.1797 1295.99C20.2082 1298.77 17.1632 1300.24 14.3841 1299.27C11.6049 1298.3 10.1356 1295.26 11.1071 1292.48C12.0786 1289.69 15.1188 1288.23 17.9028 1289.2Z" fill="#FF9900"/>
<path d="M30.363 1253.51C33.1421 1254.48 34.6067 1257.52 33.6352 1260.3C32.6685 1263.09 29.6235 1264.55 26.8444 1263.58C24.0652 1262.61 22.5958 1259.57 23.5673 1256.79C24.5388 1254.01 27.579 1252.54 30.363 1253.51Z" fill="#FF9900"/>
<path d="M42.8185 1217.83C45.6025 1218.8 47.0669 1221.84 46.0954 1224.62C45.1239 1227.4 42.0837 1228.87 39.3046 1227.9C36.5254 1226.92 35.0561 1223.88 36.0276 1221.1C36.9991 1218.32 40.0393 1216.85 42.8185 1217.83Z" fill="#FF9900"/>
<path d="M55.2788 1182.14C58.0628 1183.11 59.5274 1186.15 58.5559 1188.93C57.5844 1191.71 54.5442 1193.18 51.765 1192.21C48.9859 1191.23 47.5165 1188.19 48.488 1185.41C49.4595 1182.63 52.4997 1181.17 55.2788 1182.14Z" fill="#FF9900"/>
<path d="M67.7392 1146.45C70.5232 1147.42 71.9877 1150.46 71.0162 1153.24C70.0447 1156.02 67.0046 1157.49 64.2254 1156.52C61.4462 1155.55 59.9769 1152.51 60.9484 1149.73C61.9199 1146.95 64.96 1145.48 67.7392 1146.45Z" fill="#FF9900"/>
<path d="M80.1995 1110.76C82.9787 1111.73 84.448 1114.78 83.4765 1117.55C82.505 1120.34 79.4648 1121.8 76.6856 1120.83C73.9065 1119.86 72.4372 1116.82 73.4087 1114.04C74.3802 1111.26 77.4203 1109.79 80.1995 1110.76Z" fill="#FF9900"/>
<path d="M92.6598 1075.08C95.439 1076.05 96.9084 1079.09 95.9369 1081.87C94.9654 1084.65 91.9252 1086.12 89.146 1085.15C86.362 1084.18 84.8975 1081.14 85.869 1078.36C86.8405 1075.57 89.8806 1074.11 92.6598 1075.08Z" fill="#FF9900"/>
<path d="M105.12 1039.39C107.899 1040.36 109.369 1043.4 108.397 1046.18C107.426 1048.97 104.386 1050.43 101.602 1049.46C98.8224 1048.49 97.3579 1045.45 98.3294 1042.67C99.2961 1039.89 102.341 1038.42 105.12 1039.39Z" fill="#FF9900"/>
<path d="M117.58 1003.7C120.36 1004.67 121.829 1007.72 120.858 1010.5C119.886 1013.28 116.846 1014.75 114.062 1013.77C111.283 1012.8 109.818 1009.76 110.785 1006.98C111.756 1004.2 114.801 1002.73 117.58 1003.7Z" fill="#FF9900"/>
<path d="M130.041 968.015C132.82 968.987 134.285 972.027 133.318 974.807C132.346 977.591 129.306 979.056 126.522 978.084C123.743 977.113 122.274 974.072 123.245 971.292C124.217 968.513 127.257 967.043 130.041 968.015Z" fill="#FF9900"/>
<path d="M142.501 932.33C145.28 933.297 146.745 936.343 145.778 939.122C144.807 941.902 141.767 943.371 138.983 942.399C136.203 941.428 134.734 938.387 135.706 935.603C136.677 932.823 139.717 931.359 142.501 932.33Z" fill="#FF9900"/>
<path d="M154.961 896.641C157.741 897.612 159.205 900.653 158.234 903.433C157.262 906.217 154.222 907.682 151.443 906.71C148.664 905.738 147.194 902.698 148.166 899.918C149.137 897.139 152.177 895.669 154.961 896.641Z" fill="#FF9900"/>
<path d="M167.417 860.957C170.201 861.923 171.665 864.969 170.694 867.748C169.722 870.528 166.682 871.997 163.903 871.026C161.124 870.054 159.655 867.013 160.626 864.229C161.598 861.45 164.638 859.985 167.417 860.957Z" fill="#FF9900"/>
<path d="M179.877 825.267C182.661 826.239 184.126 829.279 183.154 832.059C182.183 834.843 179.143 836.308 176.364 835.336C173.584 834.365 172.115 831.324 173.087 828.545C174.058 825.765 177.098 824.295 179.877 825.267Z" fill="#FF9900"/>
<path d="M192.338 789.582C195.117 790.549 196.586 793.59 195.615 796.374C194.643 799.154 191.603 800.623 188.824 799.652C186.045 798.68 184.575 795.639 185.547 792.855C186.518 790.075 189.559 788.611 192.338 789.582Z" fill="#FF9900"/>
<path d="M35.9987 1335.56C38.7827 1336.53 40.2471 1339.57 39.2756 1342.35C38.3041 1345.13 35.264 1346.6 32.4848 1345.63C29.7056 1344.66 28.2364 1341.62 29.2079 1338.84C30.1794 1336.06 33.2195 1334.59 35.9987 1335.56Z" fill="#FF9900"/>
<path d="M48.4589 1299.87C51.2429 1300.84 52.7075 1303.89 51.736 1306.67C50.7645 1309.45 47.7243 1310.91 44.9451 1309.94C42.166 1308.97 40.6966 1305.93 41.6681 1303.15C42.6396 1300.37 45.6798 1298.9 48.4589 1299.87Z" fill="#FF9900"/>
<path d="M60.9194 1264.18C63.6986 1265.16 65.1679 1268.2 64.1964 1270.98C63.2249 1273.76 60.1847 1275.23 57.4055 1274.25C54.6264 1273.28 53.1571 1270.24 54.1286 1267.46C55.1001 1264.68 58.1403 1263.21 60.9194 1264.18Z" fill="#FF9900"/>
<path d="M73.3797 1228.5C76.1589 1229.47 77.6283 1232.51 76.6568 1235.29C75.6853 1238.07 72.6451 1239.54 69.8659 1238.57C67.0819 1237.6 65.6174 1234.56 66.5889 1231.77C67.5604 1228.99 70.6006 1227.53 73.3797 1228.5Z" fill="#FF9900"/>
<path d="M85.8401 1192.81C88.6192 1193.78 90.0886 1196.82 89.1171 1199.6C88.1456 1202.39 85.1054 1203.85 82.3263 1202.88C79.5423 1201.91 78.0777 1198.87 79.0492 1196.09C80.0207 1193.31 83.0609 1191.84 85.8401 1192.81Z" fill="#FF9900"/>
<path d="M98.3003 1157.12C101.08 1158.09 102.549 1161.14 101.577 1163.92C100.606 1166.7 97.5656 1168.17 94.7865 1167.19C92.0025 1166.22 90.538 1163.18 91.5095 1160.4C92.4762 1157.62 95.5212 1156.15 98.3003 1157.12Z" fill="#FF9900"/>
<path d="M110.761 1121.44C113.54 1122.41 115.009 1125.45 114.038 1128.23C113.066 1131.01 110.026 1132.48 107.242 1131.51C104.463 1130.53 102.998 1127.49 103.97 1124.71C104.937 1121.93 107.982 1120.46 110.761 1121.44Z" fill="#FF9900"/>
<path d="M123.221 1085.75C126 1086.72 127.465 1089.76 126.498 1092.54C125.526 1095.32 122.486 1096.79 119.702 1095.82C116.923 1094.85 115.454 1091.81 116.425 1089.02C117.397 1086.25 120.437 1084.78 123.221 1085.75Z" fill="#FF9900"/>
<path d="M135.681 1050.06C138.46 1051.03 139.925 1054.07 138.953 1056.85C137.987 1059.63 134.942 1061.1 132.163 1060.13C129.383 1059.16 127.914 1056.12 128.886 1053.34C129.857 1050.56 132.897 1049.09 135.681 1050.06Z" fill="#FF9900"/>
<path d="M148.137 1014.37C150.921 1015.34 152.385 1018.39 151.414 1021.17C150.442 1023.95 147.402 1025.41 144.623 1024.45C141.844 1023.48 140.375 1020.43 141.346 1017.65C142.318 1014.87 145.358 1013.4 148.137 1014.37Z" fill="#FF9900"/>
<path d="M160.597 978.688C163.381 979.66 164.846 982.701 163.874 985.48C162.903 988.26 159.862 989.729 157.083 988.758C154.304 987.786 152.835 984.745 153.806 981.966C154.778 979.181 157.818 977.717 160.597 978.688Z" fill="#FF9900"/>
<path d="M173.058 942.999C175.842 943.971 177.306 947.011 176.335 949.796C175.363 952.575 172.323 954.04 169.544 953.073C166.765 952.101 165.295 949.061 166.267 946.277C167.238 943.497 170.278 942.027 173.058 942.999Z" fill="#FF9900"/>
<path d="M185.518 907.314C188.297 908.286 189.766 911.327 188.795 914.106C187.823 916.886 184.783 918.355 182.004 917.384C179.225 916.412 177.756 913.371 178.727 910.592C179.699 907.807 182.739 906.343 185.518 907.314Z" fill="#FF9900"/>
<path d="M197.978 871.625C200.757 872.596 202.227 875.637 201.255 878.421C200.284 881.201 197.244 882.666 194.464 881.694C191.68 880.727 190.216 877.682 191.187 874.902C192.159 872.123 195.199 870.653 197.978 871.625Z" fill="#FF9900"/>
<path d="M210.439 835.941C213.218 836.912 214.687 839.953 213.715 842.732C212.744 845.512 209.704 846.981 206.92 846.01C204.141 845.038 202.676 841.997 203.648 839.218C204.614 836.434 207.659 834.969 210.439 835.941Z" fill="#FF9900"/>
<path d="M222.899 800.251C225.678 801.223 227.147 804.263 226.176 807.048C225.204 809.827 222.164 811.292 219.38 810.32C216.601 809.353 215.136 806.308 216.108 803.529C217.075 800.749 220.12 799.279 222.899 800.251Z" fill="#FF9900"/>
<path d="M235.359 764.566C238.138 765.538 239.603 768.579 238.636 771.358C237.665 774.138 234.625 775.607 231.841 774.636C229.061 773.664 227.597 770.623 228.564 767.844C229.535 765.06 232.575 763.595 235.359 764.566Z" fill="#FF9900"/>
<path d="M66.5598 1346.23C69.339 1347.2 70.8084 1350.24 69.8369 1353.02C68.8654 1355.8 65.8252 1357.27 63.046 1356.3C60.262 1355.33 58.7975 1352.29 59.769 1349.51C60.7405 1346.73 63.7807 1345.26 66.5598 1346.23Z" fill="#FF9900"/>
<path d="M79.0202 1310.54C81.7994 1311.51 83.2687 1314.55 82.2972 1317.34C81.3257 1320.12 78.2855 1321.58 75.5015 1320.62C72.7224 1319.64 71.2579 1316.6 72.2294 1313.82C73.1961 1311.04 76.2411 1309.57 79.0202 1310.54Z" fill="#FF9900"/>
<path d="M91.4805 1274.86C94.2597 1275.83 95.729 1278.87 94.7575 1281.65C93.786 1284.43 90.7459 1285.9 87.9619 1284.93C85.1827 1283.96 83.7182 1280.91 84.6897 1278.14C85.6563 1275.35 88.7013 1273.89 91.4805 1274.86Z" fill="#FF9900"/>
<path d="M103.941 1239.17C106.72 1240.14 108.185 1243.18 107.218 1245.97C106.246 1248.74 103.206 1250.21 100.422 1249.24C97.643 1248.27 96.1785 1245.23 97.1452 1242.45C98.1167 1239.67 101.157 1238.2 103.941 1239.17Z" fill="#FF9900"/>
<path d="M116.401 1203.48C119.18 1204.46 120.645 1207.5 119.678 1210.28C118.707 1213.06 115.667 1214.52 112.883 1213.55C110.103 1212.58 108.634 1209.54 109.606 1206.76C110.577 1203.98 113.617 1202.51 116.401 1203.48Z" fill="#FF9900"/>
<path d="M128.861 1167.79C131.641 1168.77 133.105 1171.81 132.134 1174.59C131.162 1177.37 128.122 1178.84 125.343 1177.86C122.564 1176.9 121.094 1173.85 122.066 1171.07C123.037 1168.29 126.077 1166.82 128.861 1167.79Z" fill="#FF9900"/>
<path d="M141.317 1132.11C144.101 1133.08 145.565 1136.12 144.594 1138.9C143.627 1141.68 140.582 1143.15 137.803 1142.18C135.024 1141.21 133.555 1138.17 134.526 1135.39C135.498 1132.6 138.538 1131.14 141.317 1132.11Z" fill="#FF9900"/>
<path d="M153.777 1096.42C156.561 1097.39 158.026 1100.43 157.054 1103.22C156.083 1106 153.043 1107.46 150.264 1106.49C147.484 1105.52 146.015 1102.48 146.987 1099.7C147.958 1096.92 150.998 1095.45 153.777 1096.42Z" fill="#FF9900"/>
<path d="M166.238 1060.74C169.017 1061.71 170.486 1064.75 169.515 1067.53C168.543 1070.31 165.503 1071.78 162.724 1070.81C159.945 1069.83 158.475 1066.79 159.447 1064.01C160.418 1061.23 163.459 1059.76 166.238 1060.74Z" fill="#FF9900"/>
<path d="M178.698 1025.05C181.477 1026.02 182.947 1029.06 181.975 1031.84C181.004 1034.62 177.963 1036.09 175.184 1035.12C172.4 1034.14 170.936 1031.1 171.907 1028.32C172.879 1025.54 175.919 1024.07 178.698 1025.05Z" fill="#FF9900"/>
<path d="M191.158 989.362C193.938 990.334 195.407 993.374 194.435 996.154C193.464 998.933 190.424 1000.4 187.645 999.431C184.861 998.46 183.396 995.419 184.368 992.639C185.339 989.855 188.379 988.39 191.158 989.362Z" fill="#FF9900"/>
<path d="M203.619 953.672C206.398 954.644 207.867 957.685 206.896 960.464C205.924 963.249 202.884 964.713 200.105 963.742C197.321 962.77 195.856 959.729 196.828 956.95C197.795 954.17 200.84 952.701 203.619 953.672Z" fill="#FF9900"/>
<path d="M216.079 917.988C218.858 918.955 220.328 922 219.356 924.78C218.385 927.559 215.344 929.029 212.56 928.057C209.781 927.085 208.317 924.045 209.288 921.265C210.255 918.481 213.3 917.016 216.079 917.988Z" fill="#FF9900"/>
<path d="M228.539 882.298C231.318 883.27 232.783 886.311 231.816 889.09C230.845 891.875 227.8 893.339 225.021 892.368C222.241 891.396 220.772 888.355 221.744 885.576C222.715 882.796 225.755 881.327 228.539 882.298Z" fill="#FF9900"/>
<path d="M241 846.614C243.779 847.581 245.243 850.626 244.272 853.406C243.305 856.185 240.26 857.655 237.481 856.683C234.702 855.712 233.237 852.671 234.204 849.887C235.176 847.107 238.216 845.642 241 846.614Z" fill="#FF9900"/>
<path d="M253.455 810.924C256.239 811.896 257.704 814.937 256.732 817.716C255.761 820.5 252.72 821.965 249.941 820.994C247.162 820.022 245.693 816.981 246.664 814.202C247.636 811.422 250.676 809.953 253.455 810.924Z" fill="#FF9900"/>
<path d="M265.915 775.24C268.699 776.207 270.164 779.252 269.192 782.032C268.221 784.811 265.181 786.281 262.402 785.309C259.622 784.337 258.153 781.297 259.125 778.513C260.096 775.733 263.136 774.268 265.915 775.24Z" fill="#FF9900"/>
<path d="M109.581 1321.22C112.36 1322.19 113.825 1325.23 112.853 1328.01C111.887 1330.79 108.842 1332.26 106.063 1331.29C103.283 1330.31 101.814 1327.27 102.786 1324.49C103.757 1321.71 106.797 1320.24 109.581 1321.22Z" fill="#FF9900"/>
<path d="M122.037 1285.53C124.821 1286.5 126.285 1289.54 125.314 1292.32C124.342 1295.1 121.302 1296.57 118.523 1295.6C115.744 1294.63 114.275 1291.59 115.246 1288.8C116.218 1286.02 119.258 1284.56 122.037 1285.53Z" fill="#FF9900"/>
<path d="M134.497 1249.84C137.281 1250.81 138.746 1253.85 137.774 1256.63C136.803 1259.42 133.762 1260.88 130.983 1259.91C128.204 1258.94 126.735 1255.9 127.706 1253.12C128.678 1250.34 131.718 1248.87 134.497 1249.84Z" fill="#FF9900"/>
<path d="M146.958 1214.16C149.742 1215.12 151.206 1218.17 150.235 1220.95C149.263 1223.73 146.223 1225.2 143.444 1224.23C140.665 1223.25 139.195 1220.21 140.167 1217.43C141.138 1214.65 144.178 1213.19 146.958 1214.16Z" fill="#FF9900"/>
<path d="M159.418 1178.47C162.197 1179.44 163.666 1182.48 162.695 1185.26C161.723 1188.04 158.683 1189.51 155.904 1188.54C153.125 1187.57 151.656 1184.52 152.627 1181.75C153.599 1178.97 156.639 1177.5 159.418 1178.47Z" fill="#FF9900"/>
<path d="M171.878 1142.78C174.657 1143.75 176.127 1146.8 175.155 1149.58C174.184 1152.35 171.144 1153.82 168.364 1152.85C165.58 1151.88 164.116 1148.84 165.087 1146.06C166.059 1143.28 169.099 1141.81 171.878 1142.78Z" fill="#FF9900"/>
<path d="M184.338 1107.09C187.118 1108.07 188.587 1111.11 187.615 1113.89C186.644 1116.67 183.604 1118.13 180.825 1117.16C178.041 1116.19 176.576 1113.15 177.548 1110.37C178.519 1107.59 181.559 1106.12 184.338 1107.09Z" fill="#FF9900"/>
<path d="M196.799 1071.4C199.578 1072.38 201.047 1075.42 200.076 1078.2C199.104 1080.98 196.064 1082.45 193.28 1081.48C190.501 1080.51 189.036 1077.47 190.008 1074.68C190.975 1071.9 194.02 1070.44 196.799 1071.4Z" fill="#FF9900"/>
<path d="M209.259 1035.72C212.038 1036.69 213.503 1039.73 212.536 1042.51C211.565 1045.3 208.525 1046.76 205.741 1045.79C202.961 1044.82 201.497 1041.78 202.464 1039C203.435 1036.22 206.475 1034.75 209.259 1035.72Z" fill="#FF9900"/>
<path d="M221.72 1000.03C224.499 1001 225.963 1004.05 224.997 1006.83C224.025 1009.61 220.985 1011.08 218.201 1010.1C215.422 1009.13 213.952 1006.09 214.924 1003.31C215.895 1000.53 218.936 999.064 221.72 1000.03Z" fill="#FF9900"/>
<path d="M234.18 964.346C236.959 965.318 238.423 968.358 237.452 971.138C236.485 973.922 233.44 975.387 230.661 974.415C227.882 973.444 226.413 970.403 227.384 967.623C228.356 964.844 231.396 963.374 234.18 964.346Z" fill="#FF9900"/>
<path d="M246.635 928.657C249.419 929.628 250.884 932.669 249.912 935.453C248.946 938.233 245.901 939.697 243.121 938.731C240.342 937.759 238.873 934.718 239.845 931.934C240.816 929.154 243.856 927.69 246.635 928.657Z" fill="#FF9900"/>
<path d="M259.096 892.972C261.88 893.944 263.344 896.984 262.373 899.764C261.401 902.543 258.361 904.013 255.582 903.041C252.803 902.07 251.333 899.029 252.305 896.249C253.276 893.47 256.317 892 259.096 892.972Z" fill="#FF9900"/>
<path d="M271.556 857.283C274.335 858.254 275.804 861.295 274.833 864.079C273.861 866.859 270.821 868.323 268.042 867.357C265.263 866.385 263.794 863.344 264.765 860.56C265.737 857.78 268.777 856.311 271.556 857.283Z" fill="#FF9900"/>
<path d="M284.016 821.598C286.796 822.57 288.265 825.61 287.293 828.39C286.322 831.169 283.282 832.639 280.503 831.667C277.719 830.696 276.254 827.655 277.226 824.875C278.197 822.091 281.237 820.626 284.016 821.598Z" fill="#FF9900"/>
<path d="M296.477 785.909C299.256 786.88 300.725 789.921 299.754 792.705C298.782 795.485 295.742 796.949 292.963 795.983C290.179 795.011 288.714 791.966 289.686 789.186C290.657 786.406 293.698 784.937 296.477 785.909Z" fill="#FF9900"/>
<path d="M140.138 1331.89C142.917 1332.86 144.386 1335.9 143.415 1338.68C142.443 1341.47 139.403 1342.93 136.624 1341.96C133.845 1340.99 132.375 1337.95 133.347 1335.17C134.318 1332.39 137.359 1330.92 140.138 1331.89Z" fill="#FF9900"/>
<path d="M152.598 1296.2C155.377 1297.17 156.847 1300.21 155.875 1303C154.904 1305.78 151.863 1307.24 149.084 1306.27C146.3 1305.3 144.836 1302.26 145.807 1299.48C146.779 1296.7 149.819 1295.23 152.598 1296.2Z" fill="#FF9900"/>
<path d="M165.058 1260.52C167.837 1261.49 169.307 1264.53 168.335 1267.31C167.364 1270.09 164.324 1271.56 161.545 1270.58C158.761 1269.61 157.296 1266.57 158.267 1263.79C159.239 1261.01 162.279 1259.54 165.058 1260.52Z" fill="#FF9900"/>
<path d="M177.519 1224.83C180.298 1225.8 181.767 1228.84 180.796 1231.62C179.824 1234.4 176.784 1235.87 174.005 1234.9C171.221 1233.93 169.756 1230.89 170.728 1228.1C171.695 1225.32 174.74 1223.86 177.519 1224.83Z" fill="#FF9900"/>
<path d="M189.979 1189.14C192.758 1190.11 194.228 1193.15 193.256 1195.93C192.285 1198.71 189.244 1200.18 186.46 1199.21C183.681 1198.24 182.217 1195.2 183.188 1192.42C184.155 1189.64 187.2 1188.17 189.979 1189.14Z" fill="#FF9900"/>
<path d="M202.439 1153.45C205.218 1154.42 206.683 1157.46 205.716 1160.25C204.745 1163.03 201.705 1164.49 198.921 1163.53C196.141 1162.55 194.677 1159.51 195.644 1156.73C196.615 1153.95 199.655 1152.48 202.439 1153.45Z" fill="#FF9900"/>
<path d="M214.9 1117.77C217.679 1118.74 219.143 1121.78 218.177 1124.56C217.205 1127.34 214.16 1128.81 211.381 1127.84C208.602 1126.86 207.137 1123.82 208.104 1121.04C209.076 1118.26 212.116 1116.8 214.9 1117.77Z" fill="#FF9900"/>
<path d="M227.36 1082.08C230.139 1083.05 231.604 1086.09 230.632 1088.87C229.665 1091.65 226.62 1093.12 223.841 1092.15C221.062 1091.18 219.593 1088.14 220.564 1085.36C221.536 1082.58 224.576 1081.11 227.36 1082.08Z" fill="#FF9900"/>
<path d="M239.815 1046.39C242.599 1047.37 244.064 1050.41 243.092 1053.19C242.121 1055.96 239.081 1057.43 236.302 1056.46C233.522 1055.49 232.053 1052.45 233.025 1049.67C233.996 1046.89 237.036 1045.42 239.815 1046.39Z" fill="#FF9900"/>
<path d="M252.276 1010.7C255.06 1011.68 256.524 1014.72 255.553 1017.5C254.581 1020.28 251.541 1021.74 248.762 1020.77C245.983 1019.81 244.514 1016.76 245.485 1013.98C246.457 1011.2 249.497 1009.73 252.276 1010.7Z" fill="#FF9900"/>
<path d="M264.736 975.019C267.515 975.991 268.985 979.032 268.013 981.811C267.042 984.591 264.002 986.06 261.222 985.089C258.443 984.117 256.974 981.076 257.945 978.297C258.917 975.512 261.957 974.048 264.736 975.019Z" fill="#FF9900"/>
<path d="M277.196 939.33C279.976 940.302 281.445 943.342 280.474 946.126C279.502 948.906 276.462 950.371 273.683 949.399C270.899 948.432 269.434 945.387 270.406 942.607C271.377 939.828 274.417 938.358 277.196 939.33Z" fill="#FF9900"/>
<path d="M289.657 903.645C292.436 904.617 293.905 907.658 292.934 910.437C291.962 913.217 288.922 914.686 286.143 913.715C283.359 912.743 281.895 909.702 282.866 906.923C283.838 904.138 286.878 902.674 289.657 903.645Z" fill="#FF9900"/>
<path d="M302.117 867.956C304.896 868.927 306.366 871.968 305.394 874.748C304.423 877.532 301.383 878.997 298.599 878.025C295.819 877.058 294.355 874.013 295.326 871.233C296.293 868.454 299.338 866.984 302.117 867.956Z" fill="#FF9900"/>
<path d="M314.578 832.271C317.357 833.243 318.826 836.284 317.855 839.063C316.883 841.843 313.843 843.312 311.059 842.341C308.28 841.369 306.815 838.328 307.782 835.549C308.753 832.764 311.798 831.3 314.578 832.271Z" fill="#FF9900"/>
<path d="M327.038 796.582C329.817 797.554 331.282 800.594 330.315 803.374C329.343 806.158 326.303 807.623 323.519 806.651C320.74 805.68 319.271 802.639 320.242 799.859C321.214 797.08 324.254 795.611 327.038 796.582Z" fill="#FF9900"/>
<path d="M170.699 1342.56C173.478 1343.53 174.947 1346.58 173.976 1349.35C173.004 1352.13 169.964 1353.6 167.18 1352.63C164.401 1351.66 162.936 1348.62 163.908 1345.84C164.875 1343.06 167.92 1341.59 170.699 1342.56Z" fill="#FF9900"/>
<path d="M183.159 1306.87C185.938 1307.85 187.408 1310.89 186.436 1313.67C185.465 1316.45 182.425 1317.91 179.641 1316.94C176.861 1315.98 175.397 1312.93 176.364 1310.15C177.335 1307.37 180.38 1305.9 183.159 1306.87Z" fill="#FF9900"/>
<path d="M195.62 1271.19C198.399 1272.16 199.863 1275.2 198.897 1277.98C197.925 1280.76 194.885 1282.23 192.101 1281.26C189.322 1280.29 187.857 1277.25 188.824 1274.47C189.795 1271.68 192.836 1270.22 195.62 1271.19Z" fill="#FF9900"/>
<path d="M208.08 1235.5C210.859 1236.47 212.323 1239.51 211.352 1242.29C210.385 1245.08 207.34 1246.54 204.561 1245.57C201.782 1244.6 200.313 1241.56 201.284 1238.78C202.256 1236 205.296 1234.53 208.08 1235.5Z" fill="#FF9900"/>
<path d="M220.535 1199.81C223.319 1200.79 224.784 1203.83 223.812 1206.61C222.846 1209.39 219.801 1210.86 217.021 1209.88C214.242 1208.91 212.773 1205.87 213.745 1203.09C214.716 1200.31 217.756 1198.84 220.535 1199.81Z" fill="#FF9900"/>
<path d="M232.996 1164.13C235.78 1165.1 237.244 1168.14 236.273 1170.92C235.301 1173.7 232.261 1175.17 229.482 1174.19C226.703 1173.22 225.233 1170.18 226.205 1167.4C227.176 1164.62 230.217 1163.15 232.996 1164.13Z" fill="#FF9900"/>
<path d="M245.456 1128.44C248.24 1129.41 249.704 1132.45 248.733 1135.23C247.761 1138.01 244.721 1139.48 241.942 1138.51C239.163 1137.54 237.694 1134.5 238.665 1131.71C239.637 1128.93 242.677 1127.47 245.456 1128.44Z" fill="#FF9900"/>
<path d="M257.916 1092.75C260.696 1093.72 262.165 1096.76 261.193 1099.54C260.222 1102.33 257.182 1103.79 254.403 1102.82C251.619 1101.85 250.154 1098.81 251.126 1096.03C252.097 1093.25 255.137 1091.78 257.916 1092.75Z" fill="#FF9900"/>
<path d="M270.377 1057.07C273.156 1058.03 274.625 1061.08 273.654 1063.86C272.682 1066.64 269.642 1068.11 266.863 1067.14C264.079 1066.16 262.614 1063.12 263.586 1060.34C264.557 1057.56 267.598 1056.1 270.377 1057.07Z" fill="#FF9900"/>
<path d="M282.837 1021.38C285.616 1022.35 287.085 1025.39 286.114 1028.17C285.142 1030.95 282.102 1032.42 279.323 1031.45C276.539 1030.47 275.075 1027.43 276.046 1024.65C277.018 1021.88 280.058 1020.41 282.837 1021.38Z" fill="#FF9900"/>
<path d="M295.297 985.693C298.076 986.66 299.546 989.705 298.574 992.485C297.603 995.264 294.563 996.734 291.779 995.762C289 994.79 287.535 991.75 288.506 988.966C289.473 986.186 292.518 984.721 295.297 985.693Z" fill="#FF9900"/>
<path d="M307.758 950.003C310.537 950.975 312.001 954.016 311.035 956.795C310.063 959.58 307.023 961.044 304.239 960.073C301.46 959.101 299.995 956.06 300.962 953.281C301.934 950.501 304.974 949.032 307.758 950.003Z" fill="#FF9900"/>
<path d="M320.218 914.319C322.997 915.286 324.462 918.331 323.49 921.111C322.523 923.89 319.478 925.36 316.699 924.388C313.92 923.416 312.456 920.376 313.422 917.592C314.394 914.812 317.434 913.347 320.218 914.319Z" fill="#FF9900"/>
<path d="M201.26 1353.24C204.039 1354.2 205.504 1357.25 204.532 1360.03C203.565 1362.81 200.52 1364.28 197.741 1363.31C194.962 1362.33 193.493 1359.29 194.464 1356.51C195.436 1353.73 198.476 1352.26 201.26 1353.24Z" fill="#FF9900"/>
<path d="M213.715 1317.55C216.499 1318.52 217.964 1321.56 216.992 1324.34C216.021 1327.12 212.981 1328.59 210.202 1327.62C207.422 1326.64 205.953 1323.6 206.925 1320.82C207.896 1318.04 210.936 1316.58 213.715 1317.55Z" fill="#FF9900"/>
<path d="M226.176 1281.86C228.96 1282.83 230.424 1285.87 229.453 1288.65C228.481 1291.43 225.441 1292.9 222.662 1291.93C219.883 1290.96 218.414 1287.92 219.385 1285.13C220.357 1282.36 223.397 1280.89 226.176 1281.86Z" fill="#FF9900"/>
<path d="M238.636 1246.17C241.415 1247.14 242.885 1250.19 241.913 1252.96C240.942 1255.75 237.902 1257.21 235.122 1256.24C232.343 1255.27 230.874 1252.23 231.845 1249.45C232.817 1246.67 235.857 1245.2 238.636 1246.17Z" fill="#FF9900"/>
<path d="M251.097 1210.48C253.876 1211.46 255.345 1214.5 254.374 1217.28C253.402 1220.06 250.362 1221.53 247.583 1220.56C244.799 1219.59 243.334 1216.55 244.306 1213.76C245.277 1210.98 248.317 1209.52 251.097 1210.48Z" fill="#FF9900"/>
<path d="M263.557 1174.8C266.336 1175.77 267.805 1178.81 266.834 1181.59C265.862 1184.37 262.822 1185.84 260.043 1184.87C257.259 1183.9 255.795 1180.86 256.766 1178.08C257.738 1175.3 260.778 1173.83 263.557 1174.8Z" fill="#FF9900"/>
<path d="M276.017 1139.11C278.796 1140.08 280.266 1143.13 279.294 1145.91C278.323 1148.69 275.283 1150.16 272.499 1149.18C269.719 1148.21 268.255 1145.17 269.226 1142.39C270.193 1139.61 273.238 1138.14 276.017 1139.11Z" fill="#FF9900"/>
<path d="M288.478 1103.43C291.257 1104.4 292.726 1107.44 291.755 1110.22C290.783 1113 287.743 1114.47 284.959 1113.49C282.18 1112.52 280.715 1109.48 281.682 1106.7C282.653 1103.92 285.698 1102.45 288.478 1103.43Z" fill="#FF9900"/>
<path d="M300.938 1067.74C303.717 1068.71 305.182 1071.75 304.215 1074.53C303.243 1077.31 300.203 1078.78 297.419 1077.81C294.64 1076.84 293.176 1073.8 294.142 1071.01C295.114 1068.23 298.154 1066.77 300.938 1067.74Z" fill="#FF9900"/>
<path d="M313.398 1032.05C316.177 1033.02 317.642 1036.06 316.67 1038.84C315.704 1041.62 312.659 1043.09 309.879 1042.12C307.1 1041.15 305.631 1038.11 306.602 1035.33C307.574 1032.55 310.614 1031.08 313.398 1032.05Z" fill="#FF9900"/>
<path d="M325.859 996.362C328.638 997.333 330.102 1000.37 329.131 1003.16C328.164 1005.94 325.119 1007.4 322.34 1006.44C319.561 1005.46 318.091 1002.42 319.063 999.639C320.034 996.859 323.075 995.39 325.859 996.362Z" fill="#FF9900"/>
<path d="M244.277 1328.22C247.056 1329.19 248.525 1332.23 247.554 1335.01C246.582 1337.79 243.542 1339.26 240.763 1338.29C237.979 1337.32 236.514 1334.28 237.486 1331.5C238.457 1328.71 241.498 1327.25 244.277 1328.22Z" fill="#FF9900"/>
<path d="M256.737 1292.53C259.516 1293.5 260.985 1296.54 260.014 1299.33C259.042 1302.11 256.002 1303.57 253.223 1302.6C250.439 1301.63 248.975 1298.59 249.946 1295.81C250.918 1293.03 253.958 1291.56 256.737 1292.53Z" fill="#FF9900"/>
<path d="M269.197 1256.85C271.977 1257.82 273.446 1260.86 272.474 1263.64C271.503 1266.42 268.463 1267.89 265.679 1266.92C262.9 1265.94 261.435 1262.9 262.407 1260.12C263.373 1257.34 266.418 1255.87 269.197 1256.85Z" fill="#FF9900"/>
<path d="M281.658 1221.16C284.437 1222.13 285.906 1225.17 284.935 1227.95C283.963 1230.73 280.923 1232.2 278.139 1231.23C275.36 1230.26 273.895 1227.21 274.862 1224.43C275.834 1221.65 278.879 1220.19 281.658 1221.16Z" fill="#FF9900"/>
<path d="M294.118 1185.47C296.897 1186.44 298.366 1189.48 297.395 1192.26C296.423 1195.04 293.383 1196.51 290.599 1195.54C287.82 1194.57 286.356 1191.53 287.322 1188.75C288.294 1185.97 291.334 1184.5 294.118 1185.47Z" fill="#FF9900"/>
<path d="M306.578 1149.78C309.357 1150.75 310.822 1153.8 309.85 1156.58C308.884 1159.36 305.839 1160.82 303.06 1159.85C300.28 1158.89 298.811 1155.84 299.783 1153.06C300.754 1150.28 303.794 1148.81 306.578 1149.78Z" fill="#FF9900"/>
<path d="M319.034 1114.1C321.818 1115.07 323.282 1118.11 322.311 1120.89C321.339 1123.67 318.299 1125.14 315.52 1124.17C312.741 1123.2 311.272 1120.16 312.243 1117.38C313.215 1114.59 316.255 1113.13 319.034 1114.1Z" fill="#FF9900"/>
</g>
</g>
<mask id="mask2_8_2" style="mask-type:luminance" maskUnits="userSpaceOnUse" x="699" y="-244" width="584" height="585">
<path d="M837.37 -199.208C974.284 -284.112 1154.09 -241.931 1238.98 -104.993C1323.87 31.9397 1281.7 211.774 1144.78 296.674C1007.87 381.578 828.056 339.397 743.169 202.459C658.276 65.5265 700.452 -114.308 837.37 -199.208Z" fill="white"/>
</mask>
<g mask="url(#mask2_8_2)">
<path d="M817.312 321.854C819.816 320.302 823.102 321.071 824.654 323.575C826.205 326.079 825.437 329.366 822.933 330.918C820.429 332.47 817.143 331.701 815.591 329.197C814.04 326.693 814.808 323.406 817.312 321.854Z" fill="#FF9900"/>
<path d="M797.399 289.727C799.897 288.176 803.189 288.944 804.74 291.448C806.292 293.952 805.518 297.239 803.015 298.791C800.511 300.343 797.225 299.574 795.673 297.07C794.122 294.566 794.895 291.279 797.399 289.727Z" fill="#FF9900"/>
<path d="M777.48 257.601C779.984 256.049 783.271 256.822 784.822 259.321C786.374 261.825 785.605 265.113 783.102 266.664C780.598 268.216 777.311 267.447 775.76 264.943C774.208 262.439 774.977 259.152 777.48 257.601Z" fill="#FF9900"/>
<path d="M757.567 225.474C760.066 223.922 763.352 224.696 764.909 227.195C766.46 229.699 765.687 232.986 763.183 234.538C760.68 236.094 757.393 235.321 755.841 232.817C754.29 230.313 755.063 227.026 757.567 225.474Z" fill="#FF9900"/>
<path d="M737.649 193.347C740.153 191.795 743.439 192.569 744.991 195.073C746.542 197.572 745.774 200.864 743.27 202.416C740.766 203.967 737.48 203.194 735.928 200.69C734.377 198.186 735.145 194.899 737.649 193.347Z" fill="#FF9900"/>
<path d="M717.731 161.22C720.234 159.669 723.521 160.442 725.072 162.946C726.629 165.45 725.855 168.737 723.352 170.289C720.848 171.841 717.561 171.067 716.01 168.563C714.458 166.059 715.232 162.772 717.731 161.22Z" fill="#FF9900"/>
<path d="M697.817 129.093C700.321 127.542 703.608 128.315 705.159 130.819C706.711 133.323 705.937 136.61 703.438 138.162C700.935 139.714 697.648 138.94 696.097 136.436C694.545 133.937 695.314 130.65 697.817 129.093Z" fill="#FF9900"/>
<path d="M864.737 336.922C867.24 335.37 870.527 336.139 872.078 338.643C873.635 341.147 872.861 344.434 870.358 345.986C867.854 347.537 864.567 346.769 863.016 344.265C861.464 341.761 862.238 338.474 864.737 336.922Z" fill="#FF9900"/>
<path d="M844.823 304.795C847.327 303.243 850.613 304.012 852.165 306.516C853.716 309.02 852.943 312.307 850.444 313.859C847.941 315.41 844.654 314.642 843.102 312.138C841.546 309.634 842.319 306.346 844.823 304.795Z" fill="#FF9900"/>
<path d="M824.905 272.668C827.409 271.116 830.695 271.885 832.247 274.389C833.798 276.893 833.03 280.18 830.526 281.732C828.022 283.284 824.736 282.515 823.184 280.011C821.633 277.507 822.406 274.22 824.905 272.668Z" fill="#FF9900"/>
<path d="M804.992 240.541C807.495 238.99 810.782 239.763 812.333 242.262C813.885 244.766 813.112 248.053 810.613 249.605C808.109 251.162 804.822 250.388 803.271 247.884C801.715 245.38 802.488 242.093 804.992 240.541Z" fill="#FF9900"/>
<path d="M785.074 208.415C787.577 206.863 790.864 207.636 792.415 210.14C793.967 212.64 793.198 215.927 790.695 217.483C788.191 219.035 784.904 218.261 783.353 215.757C781.801 213.253 782.57 209.966 785.074 208.415Z" fill="#FF9900"/>
<path d="M765.16 176.288C767.664 174.736 770.951 175.509 772.502 178.013C774.054 180.513 773.28 183.805 770.777 185.356C768.278 186.908 764.991 186.135 763.435 183.631C761.883 181.127 762.657 177.839 765.16 176.288Z" fill="#FF9900"/>
<path d="M745.242 144.161C747.746 142.609 751.032 143.383 752.584 145.887C754.135 148.391 753.367 151.678 750.863 153.229C748.359 154.781 745.073 154.008 743.521 151.504C741.97 149 742.738 145.713 745.242 144.161Z" fill="#FF9900"/>
<path d="M725.329 112.034C727.832 110.483 731.119 111.256 732.671 113.76C734.222 116.264 733.449 119.551 730.945 121.103C728.446 122.655 725.159 121.881 723.603 119.377C722.052 116.878 722.825 113.591 725.329 112.034Z" fill="#FF9900"/>
<path d="M705.411 79.9124C707.914 78.3558 711.201 79.1293 712.752 81.6334C714.304 84.1374 713.535 87.4244 711.032 88.9761C708.528 90.5278 705.241 89.7543 703.69 87.2551C702.138 84.7511 702.907 81.4641 705.411 79.9124Z" fill="#FF9900"/>
<path d="M892.248 319.862C894.751 318.311 898.038 319.079 899.59 321.583C901.141 324.087 900.373 327.374 897.869 328.926C895.365 330.478 892.079 329.709 890.527 327.205C888.976 324.701 889.744 321.414 892.248 319.862Z" fill="#FF9900"/>
<path d="M872.334 287.736C874.838 286.184 878.125 286.953 879.676 289.457C881.228 291.961 880.454 295.248 877.951 296.8C875.452 298.351 872.16 297.583 870.609 295.079C869.057 292.575 869.831 289.288 872.334 287.736Z" fill="#FF9900"/>
<path d="M852.416 255.609C854.92 254.057 858.207 254.831 859.758 257.33C861.31 259.834 860.541 263.121 858.037 264.673C855.534 266.224 852.247 265.456 850.696 262.952C849.144 260.448 849.913 257.161 852.416 255.609Z" fill="#FF9900"/>
<path d="M832.503 223.482C835.002 221.931 838.293 222.704 839.845 225.203C841.396 227.707 840.623 230.994 838.119 232.546C835.621 234.103 832.329 233.329 830.778 230.825C829.226 228.321 829.999 225.034 832.503 223.482Z" fill="#FF9900"/>
<path d="M812.585 191.355C815.088 189.804 818.375 190.577 819.927 193.081C821.478 195.58 820.71 198.868 818.206 200.424C815.702 201.976 812.416 201.202 810.864 198.698C809.313 196.194 810.081 192.907 812.585 191.355Z" fill="#FF9900"/>
<path d="M792.672 159.229C795.17 157.677 798.462 158.45 800.013 160.954C801.565 163.458 800.792 166.745 798.288 168.297C795.789 169.849 792.498 169.075 790.946 166.571C789.395 164.067 790.168 160.78 792.672 159.229Z" fill="#FF9900"/>
<path d="M772.753 127.102C775.257 125.55 778.544 126.324 780.095 128.828C781.647 131.332 780.878 134.619 778.374 136.171C775.871 137.722 772.584 136.949 771.033 134.445C769.481 131.946 770.25 128.654 772.753 127.102Z" fill="#FF9900"/>
<path d="M752.84 94.9799C755.339 93.4234 758.63 94.1969 760.182 96.7009C761.733 99.2049 760.96 102.492 758.456 104.044C755.953 105.595 752.666 104.822 751.114 102.318C749.563 99.8188 750.336 96.5268 752.84 94.9799Z" fill="#FF9900"/>
<path d="M732.922 62.8533C735.425 61.2967 738.712 62.0701 740.264 64.5741C741.815 67.0781 741.047 70.3653 738.543 71.917C736.039 73.4688 732.753 72.6952 731.201 70.1961C729.65 67.6921 730.418 64.405 732.922 62.8533Z" fill="#FF9900"/>
<path d="M713.009 30.7264C715.507 29.1747 718.794 29.9434 720.35 32.4474C721.902 34.9514 721.128 38.2384 718.625 39.7902C716.121 41.3419 712.835 40.5732 711.283 38.0692C709.732 35.5652 710.505 32.2781 713.009 30.7264Z" fill="#FF9900"/>
<path d="M693.09 -1.40035C695.594 -2.95207 698.881 -2.18339 700.432 0.320625C701.984 2.82464 701.215 6.11168 698.711 7.6634C696.208 9.21511 692.921 8.44662 691.37 5.9426C689.818 3.43859 690.587 0.151359 693.09 -1.40035Z" fill="#FF9900"/>
<path d="M939.677 334.93C942.176 333.378 945.468 334.147 947.019 336.651C948.571 339.155 947.797 342.442 945.294 343.994C942.79 345.545 939.503 344.777 937.952 342.273C936.4 339.769 937.174 336.482 939.677 334.93Z" fill="#FF9900"/>
<path d="M919.759 302.804C922.263 301.252 925.55 302.02 927.101 304.524C928.653 307.028 927.884 310.316 925.38 311.867C922.877 313.419 919.59 312.65 918.039 310.146C916.487 307.642 917.256 304.355 919.759 302.804Z" fill="#FF9900"/>
<path d="M899.846 270.677C902.345 269.125 905.631 269.893 907.188 272.397C908.739 274.901 907.966 278.189 905.462 279.74C902.958 281.292 899.672 280.523 898.12 278.019C896.569 275.515 897.342 272.228 899.846 270.677Z" fill="#FF9900"/>
<path d="M879.928 238.55C882.431 236.998 885.718 237.772 887.269 240.271C888.821 242.775 888.053 246.062 885.549 247.614C883.045 249.17 879.758 248.397 878.207 245.893C876.655 243.389 877.424 240.102 879.928 238.55Z" fill="#FF9900"/>
<path d="M860.009 206.423C862.513 204.871 865.8 205.645 867.356 208.149C868.908 210.648 868.134 213.935 865.631 215.492C863.127 217.043 859.84 216.27 858.289 213.766C856.737 211.262 857.511 207.975 860.009 206.423Z" fill="#FF9900"/>
<path d="M840.096 174.296C842.6 172.745 845.886 173.518 847.438 176.022C848.989 178.521 848.221 181.808 845.717 183.365C843.214 184.917 839.927 184.143 838.375 181.639C836.824 179.135 837.592 175.848 840.096 174.296Z" fill="#FF9900"/>
<path d="M820.178 142.17C822.682 140.618 825.968 141.391 827.52 143.895C829.076 146.4 828.303 149.687 825.799 151.238C823.295 152.79 820.009 152.017 818.457 149.513C816.906 147.013 817.679 143.721 820.178 142.17Z" fill="#FF9900"/>
<path d="M800.265 110.043C802.768 108.491 806.055 109.264 807.606 111.768C809.158 114.272 808.385 117.559 805.886 119.111C803.382 120.663 800.095 119.889 798.544 117.385C796.992 114.886 797.761 111.594 800.265 110.043Z" fill="#FF9900"/>
<path d="M780.346 77.916C782.85 76.3643 786.137 77.1377 787.688 79.6417C789.245 82.1457 788.471 85.433 785.968 86.9847C783.464 88.5364 780.177 87.7629 778.626 85.2637C777.074 82.7597 777.843 79.4726 780.346 77.916Z" fill="#FF9900"/>
<path d="M760.433 45.7942C762.937 44.2424 766.223 45.0111 767.775 47.5151C769.326 50.0191 768.553 53.3062 766.054 54.8579C763.551 56.4096 760.264 55.6363 758.712 53.1371C757.156 50.6331 757.929 47.3459 760.433 45.7942Z" fill="#FF9900"/>
<path d="M740.515 13.6673C743.019 12.1156 746.305 12.8841 747.857 15.3881C749.408 17.8921 748.64 21.1794 746.136 22.7311C743.633 24.2828 740.346 23.5141 738.794 21.0101C737.243 18.5061 738.011 15.219 740.515 13.6673Z" fill="#FF9900"/>
<path d="M967.184 317.871C969.687 316.319 972.974 317.088 974.526 319.592C976.077 322.096 975.309 325.383 972.805 326.935C970.301 328.487 967.015 327.718 965.463 325.214C963.912 322.71 964.685 319.423 967.184 317.871Z" fill="#FF9900"/>
<path d="M947.271 285.744C949.774 284.192 953.061 284.961 954.612 287.465C956.164 289.969 955.391 293.256 952.892 294.808C950.388 296.359 947.101 295.591 945.55 293.087C943.993 290.583 944.767 287.296 947.271 285.744Z" fill="#FF9900"/>
<path d="M927.352 253.617C929.856 252.066 933.143 252.839 934.694 255.338C936.246 257.842 935.477 261.13 932.974 262.681C930.47 264.233 927.183 263.464 925.632 260.96C924.08 258.456 924.849 255.169 927.352 253.617Z" fill="#FF9900"/>
<path d="M907.439 221.491C909.943 219.939 913.229 220.712 914.781 223.212C916.332 225.716 915.559 229.003 913.055 230.555C910.557 232.111 907.27 231.338 905.718 228.834C904.162 226.33 904.935 223.043 907.439 221.491Z" fill="#FF9900"/>
<path d="M887.521 189.364C890.024 187.812 893.311 188.585 894.863 191.089C896.414 193.589 895.646 196.876 893.142 198.432C890.638 199.984 887.352 199.211 885.8 196.707C884.249 194.203 885.017 190.915 887.521 189.364Z" fill="#FF9900"/>
<path d="M867.607 157.237C870.111 155.685 873.398 156.459 874.949 158.963C876.501 161.467 875.727 164.754 873.224 166.306C870.725 167.857 867.438 167.084 865.882 164.58C864.33 162.076 865.104 158.789 867.607 157.237Z" fill="#FF9900"/>
<path d="M847.689 125.11C850.193 123.559 853.48 124.332 855.031 126.836C856.583 129.34 855.814 132.627 853.31 134.179C850.807 135.731 847.52 134.957 845.969 132.453C844.417 129.954 845.186 126.662 847.689 125.11Z" fill="#FF9900"/>
<path d="M827.776 92.9836C830.28 91.4319 833.566 92.2054 835.118 94.7095C836.669 97.2135 835.896 100.501 833.392 102.052C830.893 103.604 827.607 102.831 826.05 100.327C824.499 97.8273 825.272 94.5353 827.776 92.9836Z" fill="#FF9900"/>
<path d="M807.858 60.8571C810.361 59.3053 813.648 60.0788 815.2 62.5828C816.751 65.0868 815.983 68.3738 813.479 69.9255C810.975 71.4772 807.689 70.7039 806.137 68.2047C804.586 65.7007 805.354 62.4136 807.858 60.8571Z" fill="#FF9900"/>
<path d="M787.944 28.7347C790.448 27.183 793.735 27.9515 795.286 30.4555C796.838 32.9595 796.064 36.2467 793.561 37.7985C791.057 39.3502 787.77 38.5815 786.219 36.0775C784.667 33.5735 785.441 30.2864 787.944 28.7347Z" fill="#FF9900"/>
<path d="M768.026 -3.39181C770.53 -4.94352 773.817 -4.17484 775.368 -1.67083C776.92 0.833182 776.151 4.12023 773.647 5.67194C771.144 7.22365 767.857 6.45516 766.306 3.95115C764.754 1.44714 765.523 -1.8401 768.026 -3.39181Z" fill="#FF9900"/>
<path d="M1014.61 332.939C1017.12 331.387 1020.4 332.155 1021.96 334.659C1023.51 337.163 1022.73 340.451 1020.23 342.002C1017.73 343.554 1014.44 342.785 1012.89 340.281C1011.34 337.777 1012.11 334.49 1014.61 332.939Z" fill="#FF9900"/>
<path d="M994.695 300.812C997.199 299.26 1000.49 300.029 1002.04 302.533C1003.59 305.037 1002.82 308.324 1000.32 309.876C997.813 311.427 994.526 310.659 992.974 308.155C991.423 305.651 992.191 302.364 994.695 300.812Z" fill="#FF9900"/>
<path d="M974.782 268.685C977.286 267.133 980.572 267.907 982.124 270.406C983.675 272.91 982.902 276.197 980.398 277.749C977.899 279.3 974.608 278.532 973.056 276.028C971.505 273.524 972.278 270.237 974.782 268.685Z" fill="#FF9900"/>
<path d="M954.864 236.558C957.367 235.007 960.654 235.78 962.206 238.279C963.757 240.783 962.989 244.07 960.485 245.622C957.981 247.179 954.695 246.405 953.143 243.901C951.592 241.397 952.36 238.11 954.864 236.558Z" fill="#FF9900"/>
<path d="M934.95 204.431C937.449 202.88 940.741 203.653 942.292 206.157C943.844 208.656 943.07 211.943 940.567 213.5C938.068 215.052 934.776 214.278 933.225 211.774C931.673 209.27 932.447 205.983 934.95 204.431Z" fill="#FF9900"/>
<path d="M915.032 172.305C917.536 170.753 920.822 171.526 922.374 174.031C923.925 176.53 923.157 179.822 920.653 181.373C918.15 182.925 914.863 182.152 913.311 179.648C911.76 177.144 912.529 173.857 915.032 172.305Z" fill="#FF9900"/>
<path d="M895.119 140.178C897.618 138.626 900.909 139.4 902.461 141.904C904.012 144.408 903.239 147.695 900.735 149.247C898.232 150.798 894.945 150.025 893.393 147.521C891.842 145.022 892.615 141.73 895.119 140.178Z" fill="#FF9900"/>
<path d="M875.201 108.051C877.704 106.5 880.991 107.273 882.542 109.777C884.094 112.281 883.325 115.568 880.822 117.12C878.318 118.672 875.031 117.898 873.48 115.394C871.928 112.895 872.697 109.603 875.201 108.051Z" fill="#FF9900"/>
<path d="M855.282 75.9243C857.786 74.3726 861.073 75.146 862.629 77.65C864.181 80.154 863.407 83.4413 860.904 84.993C858.4 86.5447 855.113 85.7712 853.562 83.272C852.01 80.768 852.784 77.4809 855.282 75.9243Z" fill="#FF9900"/>
<path d="M835.369 43.8025C837.873 42.246 841.16 43.0195 842.711 45.5235C844.263 48.0275 843.494 51.3145 840.99 52.8663C838.487 54.418 835.2 53.6445 833.649 51.1453C832.097 48.6413 832.866 45.3542 835.369 43.8025Z" fill="#FF9900"/>
<path d="M815.451 11.6758C817.955 10.1241 821.241 10.8928 822.793 13.3968C824.349 15.9008 823.576 19.1879 821.072 20.7396C818.568 22.2913 815.282 21.5228 813.73 19.0188C812.179 16.5148 812.952 13.2275 815.451 11.6758Z" fill="#FF9900"/>
<path d="M1042.12 315.879C1044.62 314.328 1047.91 315.096 1049.47 317.6C1051.02 320.104 1050.24 323.391 1047.74 324.943C1045.24 326.495 1041.95 325.726 1040.4 323.222C1038.85 320.718 1039.62 317.431 1042.12 315.879Z" fill="#FF9900"/>
<path d="M1022.21 283.753C1024.71 282.201 1028 282.969 1029.55 285.473C1031.1 287.977 1030.33 291.265 1027.83 292.816C1025.32 294.368 1022.04 293.599 1020.49 291.095C1018.93 288.591 1019.7 285.304 1022.21 283.753Z" fill="#FF9900"/>
<path d="M1002.29 251.626C1004.79 250.074 1008.08 250.848 1009.63 253.347C1011.19 255.851 1010.41 259.138 1007.91 260.69C1005.41 262.246 1002.12 261.473 1000.57 258.969C999.016 256.465 999.789 253.178 1002.29 251.626Z" fill="#FF9900"/>
<path d="M982.375 219.499C984.879 217.947 988.165 218.721 989.717 221.225C991.268 223.724 990.5 227.011 987.996 228.563C985.493 230.119 982.206 229.346 980.654 226.842C979.103 224.338 979.871 221.051 982.375 219.499Z" fill="#FF9900"/>
<path d="M962.457 187.372C964.96 185.821 968.247 186.594 969.799 189.098C971.355 191.597 970.582 194.884 968.078 196.441C965.574 197.993 962.288 197.219 960.736 194.715C959.185 192.211 959.958 188.924 962.457 187.372Z" fill="#FF9900"/>
<path d="M942.544 155.245C945.047 153.694 948.334 154.467 949.885 156.971C951.437 159.47 950.664 162.762 948.165 164.314C945.661 165.866 942.374 165.092 940.823 162.588C939.271 160.084 940.04 156.797 942.544 155.245Z" fill="#FF9900"/>
<path d="M922.625 123.119C925.129 121.567 928.416 122.34 929.967 124.844C931.523 127.344 930.75 130.636 928.246 132.187C925.743 133.739 922.456 132.966 920.905 130.462C919.353 127.962 920.126 124.67 922.625 123.119Z" fill="#FF9900"/>
<path d="M902.712 90.9919C905.216 89.4402 908.502 90.2136 910.054 92.7176C911.605 95.2216 910.832 98.5089 908.333 100.061C905.829 101.612 902.543 100.839 900.991 98.3396C899.435 95.8356 900.208 92.5485 902.712 90.9919Z" fill="#FF9900"/>
<path d="M882.794 58.8654C885.297 57.3137 888.584 58.0871 890.136 60.5911C891.687 63.0951 890.919 66.3821 888.415 67.9338C885.911 69.4855 882.625 68.7122 881.073 66.213C879.522 63.709 880.29 60.4219 882.794 58.8654Z" fill="#FF9900"/>
<path d="M862.88 26.7434C865.384 25.1869 868.671 25.9602 870.222 28.4642C871.774 30.9682 871 34.2555 868.502 35.8072C865.998 37.3589 862.711 36.5854 861.16 34.0862C859.603 31.5822 860.377 28.2951 862.88 26.7434Z" fill="#FF9900"/>
<path d="M842.962 -5.3837C845.466 -6.93541 848.753 -6.16673 850.304 -3.66272C851.856 -1.15871 851.087 2.12834 848.584 3.68005C846.08 5.23176 842.793 4.46308 841.242 1.95907C839.69 -0.544941 840.459 -3.83199 842.962 -5.3837Z" fill="#FF9900"/>
<path d="M1089.55 330.947C1092.05 329.395 1095.34 330.164 1096.89 332.668C1098.44 335.172 1097.67 338.459 1095.17 340.011C1092.67 341.562 1089.38 340.794 1087.83 338.29C1086.27 335.786 1087.05 332.499 1089.55 330.947Z" fill="#FF9900"/>
<path d="M1069.63 298.82C1072.13 297.268 1075.42 298.037 1076.97 300.541C1078.52 303.045 1077.76 306.332 1075.25 307.884C1072.75 309.436 1069.46 308.667 1067.91 306.163C1066.36 303.659 1067.13 300.372 1069.63 298.82Z" fill="#FF9900"/>
<path d="M1049.72 266.693C1052.22 265.142 1055.51 265.915 1057.06 268.414C1058.61 270.918 1057.84 274.205 1055.34 275.757C1052.84 277.309 1049.55 276.54 1048 274.036C1046.44 271.532 1047.21 268.245 1049.72 266.693Z" fill="#FF9900"/>
<path d="M1029.8 234.567C1032.3 233.015 1035.59 233.788 1037.14 236.288C1038.69 238.792 1037.92 242.079 1035.42 243.631C1032.92 245.187 1029.63 244.414 1028.08 241.91C1026.53 239.406 1027.3 236.119 1029.8 234.567Z" fill="#FF9900"/>
<path d="M1009.89 202.44C1012.39 200.888 1015.68 201.662 1017.23 204.166C1018.78 206.665 1018.01 209.952 1015.5 211.509C1013 213.06 1009.72 212.287 1008.16 209.783C1006.61 207.279 1007.38 203.992 1009.89 202.44Z" fill="#FF9900"/>
<path d="M989.968 170.313C992.472 168.761 995.759 169.535 997.31 172.039C998.862 174.538 998.093 177.83 995.589 179.382C993.086 180.933 989.799 180.16 988.248 177.656C986.696 175.152 987.464 171.865 989.968 170.313Z" fill="#FF9900"/>
<path d="M970.055 138.187C972.559 136.635 975.845 137.408 977.397 139.912C978.948 142.411 978.175 145.703 975.671 147.255C973.172 148.807 969.886 148.033 968.329 145.529C966.778 143.03 967.551 139.738 970.055 138.187Z" fill="#FF9900"/>
<path d="M950.137 106.059C952.64 104.508 955.927 105.281 957.478 107.785C959.03 110.289 958.261 113.576 955.758 115.128C953.254 116.68 949.967 115.906 948.416 113.402C946.864 110.903 947.633 107.611 950.137 106.059Z" fill="#FF9900"/>
<path d="M930.223 73.933C932.727 72.3813 936.014 73.1547 937.565 75.6587C939.117 78.1627 938.343 81.4497 935.84 83.0015C933.336 84.5532 930.049 83.7798 928.498 81.2807C926.946 78.7767 927.72 75.4895 930.223 73.933Z" fill="#FF9900"/>
<path d="M910.305 41.8111C912.809 40.2545 916.095 41.0278 917.647 43.5318C919.198 46.0359 918.43 49.3231 915.926 50.8748C913.423 52.4265 910.136 51.653 908.584 49.1538C907.033 46.6498 907.801 43.3628 910.305 41.8111Z" fill="#FF9900"/>
<path d="M890.392 9.68405C892.891 8.13234 896.182 8.90102 897.734 11.405C899.285 13.909 898.512 17.1961 896.008 18.7478C893.504 20.2995 890.218 19.5262 888.666 17.027C887.115 14.523 887.888 11.2358 890.392 9.68405Z" fill="#FF9900"/>
<path d="M1117.06 313.888C1119.56 312.336 1122.85 313.105 1124.4 315.609C1125.95 318.113 1125.18 321.4 1122.68 322.952C1120.18 324.503 1116.89 323.735 1115.34 321.231C1113.78 318.727 1114.56 315.44 1117.06 313.888Z" fill="#FF9900"/>
<path d="M1097.14 281.761C1099.65 280.209 1102.93 280.978 1104.48 283.482C1106.04 285.986 1105.27 289.273 1102.76 290.825C1100.26 292.376 1096.97 291.608 1095.42 289.104C1093.87 286.6 1094.64 283.313 1097.14 281.761Z" fill="#FF9900"/>
<path d="M1077.23 249.634C1079.73 248.082 1083.02 248.856 1084.57 251.355C1086.12 253.859 1085.35 257.146 1082.85 258.698C1080.35 260.254 1077.06 259.481 1075.5 256.977C1073.95 254.473 1074.73 251.186 1077.23 249.634Z" fill="#FF9900"/>
<path d="M1057.31 217.507C1059.81 215.956 1063.1 216.729 1064.65 219.233C1066.2 221.732 1065.44 225.019 1062.93 226.571C1060.43 228.128 1057.14 227.354 1055.59 224.85C1054.04 222.346 1054.81 219.059 1057.31 217.507Z" fill="#FF9900"/>
<path d="M1037.4 185.381C1039.9 183.829 1043.19 184.602 1044.74 187.106C1046.29 189.606 1045.52 192.893 1043.01 194.449C1040.51 196.001 1037.22 195.228 1035.67 192.723C1034.12 190.219 1034.89 186.932 1037.4 185.381Z" fill="#FF9900"/>
<path d="M1017.48 153.254C1019.98 151.702 1023.27 152.476 1024.82 154.98C1026.37 157.479 1025.6 160.771 1023.1 162.322C1020.6 163.874 1017.31 163.101 1015.76 160.597C1014.21 158.093 1014.98 154.806 1017.48 153.254Z" fill="#FF9900"/>
<path d="M997.561 121.127C1000.06 119.575 1003.35 120.349 1004.91 122.853C1006.46 125.357 1005.69 128.644 1003.18 130.196C1000.68 131.747 997.392 130.974 995.841 128.47C994.289 125.971 995.062 122.679 997.561 121.127Z" fill="#FF9900"/>
<path d="M977.648 89.0002C980.152 87.4485 983.438 88.2219 984.99 90.7259C986.541 93.23 985.773 96.5172 983.269 98.0689C980.766 99.6206 977.479 98.8471 975.927 96.3479C974.376 93.8439 975.144 90.5568 977.648 89.0002Z" fill="#FF9900"/>
<path d="M957.73 56.8735C960.234 55.3218 963.52 56.0954 965.077 58.5994C966.628 61.1034 965.855 64.3905 963.351 65.9422C960.847 67.4939 957.561 66.7204 956.009 64.2212C954.458 61.7172 955.231 58.4301 957.73 56.8735Z" fill="#FF9900"/>
<path d="M937.816 24.7517C940.32 23.1951 943.607 23.9686 945.158 26.4727C946.71 28.9767 945.941 32.2637 943.438 33.8154C940.934 35.3671 937.647 34.5938 936.096 32.0946C934.544 29.5906 935.313 26.3034 937.816 24.7517Z" fill="#FF9900"/>
<path d="M917.898 -7.37516C920.402 -8.92687 923.689 -8.15838 925.24 -5.65436C926.792 -3.15035 926.023 0.136881 923.52 1.6886C921.016 3.24031 917.729 2.47163 916.178 -0.0323844C914.626 -2.5364 915.4 -5.82344 917.898 -7.37516Z" fill="#FF9900"/>
<path d="M1164.49 328.955C1166.99 327.404 1170.28 328.172 1171.83 330.676C1173.38 333.18 1172.61 336.467 1170.11 338.019C1167.6 339.571 1164.32 338.802 1162.76 336.298C1161.21 333.794 1161.98 330.507 1164.49 328.955Z" fill="#FF9900"/>
<path d="M1144.57 296.828C1147.07 295.277 1150.36 296.045 1151.91 298.549C1153.47 301.053 1152.69 304.34 1150.19 305.892C1147.68 307.444 1144.4 306.675 1142.85 304.171C1141.29 301.667 1142.07 298.38 1144.57 296.828Z" fill="#FF9900"/>
<path d="M1124.65 264.702C1127.16 263.15 1130.44 263.924 1132 266.423C1133.55 268.927 1132.78 272.214 1130.28 273.766C1127.77 275.317 1124.48 274.549 1122.93 272.045C1121.38 269.541 1122.15 266.254 1124.65 264.702Z" fill="#FF9900"/>
<path d="M1104.74 232.575C1107.24 231.023 1110.53 231.797 1112.08 234.296C1113.63 236.8 1112.86 240.087 1110.36 241.639C1107.85 243.195 1104.57 242.422 1103.02 239.918C1101.46 237.414 1102.24 234.127 1104.74 232.575Z" fill="#FF9900"/>
<path d="M1084.82 200.448C1087.33 198.897 1090.61 199.67 1092.16 202.174C1093.72 204.673 1092.94 207.96 1090.44 209.517C1087.94 211.069 1084.65 210.295 1083.1 207.791C1081.55 205.287 1082.32 202 1084.82 200.448Z" fill="#FF9900"/>
<path d="M1064.9 168.321C1067.41 166.77 1070.69 167.543 1072.25 170.047C1073.8 172.547 1073.03 175.838 1070.53 177.39C1068.02 178.942 1064.73 178.168 1063.18 175.664C1061.63 173.16 1062.41 169.873 1064.9 168.321Z" fill="#FF9900"/>
<path d="M1044.99 136.195C1047.49 134.643 1050.78 135.416 1052.33 137.92C1053.88 140.42 1053.11 143.711 1050.61 145.263C1048.11 146.815 1044.82 146.041 1043.27 143.537C1041.71 141.038 1042.49 137.746 1044.99 136.195Z" fill="#FF9900"/>
<path d="M1025.07 104.068C1027.58 102.516 1030.86 103.29 1032.41 105.794C1033.97 108.298 1033.2 111.585 1030.69 113.137C1028.19 114.688 1024.9 113.915 1023.35 111.411C1021.8 108.912 1022.57 105.62 1025.07 104.068Z" fill="#FF9900"/>
<path d="M1005.16 71.9413C1007.66 70.3896 1010.95 71.163 1012.5 73.667C1014.05 76.171 1013.28 79.458 1010.78 81.0098C1008.28 82.5615 1004.99 81.7882 1003.44 79.289C1001.88 76.785 1002.66 73.4978 1005.16 71.9413Z" fill="#FF9900"/>
<path d="M985.241 39.8194C987.745 38.2628 991.031 39.0361 992.583 41.5401C994.134 44.0442 993.366 47.3314 990.862 48.8831C988.359 50.4348 985.072 49.6613 983.52 47.1621C981.969 44.6581 982.737 41.3711 985.241 39.8194Z" fill="#FF9900"/>
<path d="M965.328 7.6924C967.831 6.14069 971.118 6.90937 972.67 9.41338C974.221 11.9174 973.448 15.2044 970.944 16.7562C968.445 18.3079 965.159 17.5344 963.602 15.0352C962.051 12.5312 962.824 9.24412 965.328 7.6924Z" fill="#FF9900"/>
<path d="M1192 311.896C1194.5 310.344 1197.79 311.113 1199.34 313.617C1200.89 316.121 1200.12 319.408 1197.62 320.96C1195.11 322.512 1191.83 321.743 1190.28 319.239C1188.72 316.735 1189.49 313.448 1192 311.896Z" fill="#FF9900"/>
<path d="M1172.08 279.77C1174.58 278.218 1177.87 278.987 1179.42 281.491C1180.97 283.995 1180.2 287.282 1177.7 288.833C1175.2 290.385 1171.91 289.617 1170.36 287.113C1168.81 284.609 1169.57 281.321 1172.08 279.77Z" fill="#FF9900"/>
<path d="M1152.17 247.643C1154.67 246.091 1157.96 246.864 1159.51 249.364C1161.06 251.868 1160.29 255.155 1157.79 256.706C1155.28 258.263 1152 257.49 1150.44 254.985C1148.89 252.481 1149.66 249.194 1152.17 247.643Z" fill="#FF9900"/>
<path d="M1132.25 215.516C1134.75 213.964 1138.04 214.738 1139.59 217.237C1141.14 219.741 1140.37 223.028 1137.87 224.584C1135.36 226.136 1132.08 225.363 1130.53 222.859C1128.97 220.355 1129.74 217.068 1132.25 215.516Z" fill="#FF9900"/>
<path d="M1112.33 183.389C1114.84 181.838 1118.12 182.611 1119.68 185.11C1121.23 187.614 1120.45 190.901 1117.95 192.458C1115.45 194.009 1112.16 193.236 1110.61 190.732C1109.06 188.228 1109.83 184.941 1112.33 183.389Z" fill="#FF9900"/>
<path d="M1092.42 151.262C1094.92 149.711 1098.21 150.484 1099.76 152.988C1101.31 155.487 1100.54 158.779 1098.04 160.331C1095.53 161.883 1092.25 161.109 1090.69 158.605C1089.14 156.101 1089.91 152.814 1092.42 151.262Z" fill="#FF9900"/>
<path d="M1072.5 119.136C1075.01 117.584 1078.29 118.358 1079.84 120.862C1081.4 123.366 1080.62 126.653 1078.12 128.204C1075.62 129.756 1072.33 128.983 1070.78 126.479C1069.23 123.979 1070 120.687 1072.5 119.136Z" fill="#FF9900"/>
<path d="M1052.58 87.0087C1055.09 85.4569 1058.37 86.2303 1059.93 88.7344C1061.48 91.2384 1060.71 94.5254 1058.21 96.0771C1055.7 97.6288 1052.41 96.8554 1050.86 94.3514C1049.31 91.8523 1050.08 88.5652 1052.58 87.0087Z" fill="#FF9900"/>
<path d="M1032.67 54.8867C1035.17 53.3302 1038.46 54.1035 1040.01 56.6075C1041.56 59.1115 1040.79 62.3988 1038.29 63.9505C1035.78 65.5022 1032.5 64.7287 1030.95 62.2295C1029.39 59.7255 1030.17 56.4385 1032.67 54.8867Z" fill="#FF9900"/>
<path d="M1012.75 22.7602C1015.26 21.2037 1018.54 21.9772 1020.09 24.4812C1021.65 26.9852 1020.88 30.2723 1018.37 31.824C1015.87 33.3757 1012.58 32.6024 1011.03 30.1032C1009.48 27.5992 1010.25 24.3119 1012.75 22.7602Z" fill="#FF9900"/>
<path d="M992.839 -9.36685C995.338 -10.9186 998.63 -10.1501 1000.18 -7.64606C1001.73 -5.14205 1000.96 -1.85482 998.456 -0.303104C995.952 1.24861 992.665 0.479928 991.114 -2.02408C989.562 -4.5281 990.335 -7.81514 992.839 -9.36685Z" fill="#FF9900"/>
<path d="M1239.42 326.964C1241.92 325.412 1245.21 326.181 1246.76 328.685C1248.31 331.189 1247.55 334.476 1245.04 336.028C1242.54 337.579 1239.25 336.811 1237.7 334.307C1236.15 331.803 1236.92 328.516 1239.42 326.964Z" fill="#FF9900"/>
<path d="M1219.51 294.837C1222.01 293.286 1225.3 294.054 1226.85 296.558C1228.4 299.062 1227.63 302.349 1225.12 303.901C1222.63 305.453 1219.33 304.684 1217.78 302.18C1216.23 299.676 1217 296.389 1219.51 294.837Z" fill="#FF9900"/>
<path d="M1199.59 262.71C1202.09 261.158 1205.38 261.932 1206.93 264.431C1208.48 266.935 1207.71 270.222 1205.21 271.774C1202.71 273.326 1199.42 272.557 1197.87 270.053C1196.32 267.549 1197.09 264.262 1199.59 262.71Z" fill="#FF9900"/>
<path d="M1179.68 230.583C1182.18 229.031 1185.47 229.805 1187.02 232.304C1188.57 234.808 1187.8 238.095 1185.29 239.647C1182.79 241.203 1179.5 240.43 1177.95 237.926C1176.4 235.422 1177.17 232.135 1179.68 230.583Z" fill="#FF9900"/>
<path d="M1159.76 198.457C1162.26 196.905 1165.55 197.678 1167.1 200.177C1168.65 202.681 1167.88 205.969 1165.38 207.525C1162.88 209.077 1159.59 208.303 1158.04 205.799C1156.49 203.295 1157.25 200.008 1159.76 198.457Z" fill="#FF9900"/>
<path d="M1139.84 166.33C1142.34 164.778 1145.64 165.551 1147.19 168.055C1148.74 170.555 1147.97 173.847 1145.46 175.398C1142.96 176.95 1139.67 176.177 1138.12 173.673C1136.57 171.169 1137.34 167.881 1139.84 166.33Z" fill="#FF9900"/>
<path d="M1119.93 134.203C1122.43 132.652 1125.72 133.425 1127.27 135.929C1128.82 138.428 1128.05 141.72 1125.55 143.272C1123.04 144.823 1119.76 144.05 1118.21 141.546C1116.65 139.047 1117.42 135.755 1119.93 134.203Z" fill="#FF9900"/>
<path d="M1100.01 102.076C1102.51 100.525 1105.8 101.298 1107.36 103.802C1108.91 106.306 1108.13 109.593 1105.63 111.145C1103.13 112.697 1099.84 111.923 1098.29 109.419C1096.74 106.92 1097.51 103.628 1100.01 102.076Z" fill="#FF9900"/>
<path d="M1080.1 69.9494C1082.6 68.3977 1085.89 69.1713 1087.44 71.6753C1088.99 74.1793 1088.22 77.4663 1085.72 79.018C1083.21 80.5698 1079.93 79.7964 1078.37 77.2923C1076.82 74.7932 1077.59 71.5059 1080.1 69.9494Z" fill="#FF9900"/>
<path d="M1060.18 37.8278C1062.68 36.2713 1065.97 37.0448 1067.52 39.5488C1069.08 42.0528 1068.3 45.3399 1065.8 46.8916C1063.29 48.4433 1060.01 47.67 1058.46 45.1708C1056.9 42.6668 1057.68 39.3796 1060.18 37.8278Z" fill="#FF9900"/>
<path d="M1040.26 5.7007C1042.77 4.14899 1046.05 4.91748 1047.61 7.4215C1049.16 9.92551 1048.39 13.2127 1045.89 14.7645C1043.38 16.3162 1040.09 15.5427 1038.54 13.0435C1036.99 10.5395 1037.76 7.25242 1040.26 5.7007Z" fill="#FF9900"/>
<path d="M1266.93 309.905C1269.44 308.353 1272.72 309.121 1274.27 311.625C1275.83 314.129 1275.06 317.417 1272.55 318.968C1270.05 320.52 1266.76 319.751 1265.21 317.247C1263.66 314.743 1264.43 311.456 1266.93 309.905Z" fill="#FF9900"/>
<path d="M1247.01 277.778C1249.52 276.226 1252.8 277 1254.36 279.499C1255.91 282.003 1255.14 285.29 1252.64 286.842C1250.13 288.393 1246.85 287.625 1245.29 285.121C1243.74 282.617 1244.52 279.33 1247.01 277.778Z" fill="#FF9900"/>
<path d="M1227.1 245.651C1229.6 244.099 1232.89 244.873 1234.44 247.372C1235.99 249.876 1235.22 253.163 1232.72 254.715C1230.22 256.271 1226.93 255.498 1225.38 252.994C1223.83 250.49 1224.6 247.203 1227.1 245.651Z" fill="#FF9900"/>
<path d="M1207.18 213.524C1209.69 211.972 1212.97 212.746 1214.52 215.245C1216.08 217.749 1215.31 221.036 1212.8 222.593C1210.3 224.145 1207.01 223.371 1205.46 220.867C1203.91 218.363 1204.68 215.076 1207.18 213.524Z" fill="#FF9900"/>
<path d="M1187.27 181.397C1189.77 179.846 1193.06 180.619 1194.61 183.118C1196.16 185.622 1195.39 188.914 1192.89 190.466C1190.39 192.018 1187.1 191.244 1185.55 188.74C1183.99 186.236 1184.77 182.949 1187.27 181.397Z" fill="#FF9900"/>
<path d="M1167.35 149.271C1169.86 147.719 1173.14 148.493 1174.69 150.997C1176.24 153.496 1175.48 156.788 1172.97 158.339C1170.47 159.891 1167.18 159.118 1165.63 156.614C1164.08 154.114 1164.85 150.823 1167.35 149.271Z" fill="#FF9900"/>
<path d="M1147.44 117.144C1149.94 115.592 1153.23 116.365 1154.78 118.869C1156.33 121.373 1155.56 124.661 1153.06 126.212C1150.56 127.764 1147.27 126.991 1145.72 124.487C1144.16 121.988 1144.93 118.695 1147.44 117.144Z" fill="#FF9900"/>
<path d="M1127.52 85.0172C1130.02 83.4655 1133.31 84.2389 1134.86 86.7429C1136.41 89.2469 1135.64 92.534 1133.14 94.0857C1130.64 95.6374 1127.35 94.864 1125.8 92.36C1124.25 89.8608 1125.02 86.5738 1127.52 85.0172Z" fill="#FF9900"/>
<path d="M1107.61 52.8953C1110.11 51.3387 1113.4 52.1121 1114.95 54.6161C1116.5 57.1201 1115.73 60.4073 1113.22 61.959C1110.72 63.5107 1107.44 62.7372 1105.88 60.2381C1104.33 57.734 1105.1 54.447 1107.61 52.8953Z" fill="#FF9900"/>
<path d="M1087.69 20.7683C1090.19 19.2118 1093.48 19.9853 1095.03 22.4893C1096.58 24.9933 1095.81 28.2804 1093.31 29.8321C1090.81 31.3838 1087.52 30.6103 1085.97 28.1111C1084.42 25.6071 1085.18 22.32 1087.69 20.7683Z" fill="#FF9900"/>
<path d="M1274.53 260.719C1277.03 259.167 1280.32 259.94 1281.87 262.439C1283.42 264.943 1282.65 268.231 1280.15 269.782C1277.64 271.339 1274.36 270.565 1272.81 268.061C1271.25 265.557 1272.02 262.27 1274.53 260.719Z" fill="#FF9900"/>
<path d="M1254.61 228.592C1257.12 227.04 1260.4 227.814 1261.95 230.313C1263.51 232.817 1262.73 236.104 1260.23 237.656C1257.73 239.212 1254.44 238.439 1252.89 235.935C1251.34 233.431 1252.11 230.144 1254.61 228.592Z" fill="#FF9900"/>
<path d="M1234.69 196.465C1237.2 194.913 1240.48 195.687 1242.04 198.186C1243.59 200.69 1242.82 203.977 1240.32 205.534C1237.81 207.085 1234.53 206.312 1232.97 203.808C1231.42 201.304 1232.19 198.017 1234.69 196.465Z" fill="#FF9900"/>
<path d="M1214.78 164.338C1217.28 162.787 1220.57 163.56 1222.12 166.064C1223.67 168.563 1222.9 171.855 1220.4 173.407C1217.9 174.959 1214.61 174.185 1213.06 171.681C1211.5 169.177 1212.28 165.89 1214.78 164.338Z" fill="#FF9900"/>
<path d="M1194.86 132.212C1197.37 130.66 1200.65 131.433 1202.2 133.937C1203.76 136.437 1202.99 139.729 1200.48 141.28C1197.98 142.832 1194.69 142.059 1193.14 139.555C1191.59 137.055 1192.36 133.763 1194.86 132.212Z" fill="#FF9900"/>
<path d="M1174.95 100.085C1177.45 98.5331 1180.74 99.3065 1182.29 101.811C1183.84 104.315 1183.07 107.602 1180.57 109.153C1178.07 110.705 1174.78 109.932 1173.22 107.428C1171.67 104.928 1172.45 101.637 1174.95 100.085Z" fill="#FF9900"/>
<path d="M1155.03 67.9579C1157.53 66.4062 1160.82 67.1796 1162.37 69.6836C1163.92 72.1876 1163.16 75.4749 1160.65 77.0266C1158.15 78.5783 1154.86 77.8049 1153.31 75.3009C1151.76 72.8017 1152.53 69.5145 1155.03 67.9579Z" fill="#FF9900"/>
<path d="M1135.12 35.8362C1137.62 34.2796 1140.91 35.0531 1142.46 37.5571C1144.01 40.0611 1143.24 43.3482 1140.73 44.8999C1138.23 46.4516 1134.94 45.6783 1133.39 43.1791C1131.84 40.6751 1132.61 37.3879 1135.12 35.8362Z" fill="#FF9900"/>
<path d="M1115.2 3.70949C1117.7 2.15778 1120.99 2.92627 1122.54 5.43028C1124.09 7.9343 1123.32 11.2215 1120.82 12.7732C1118.32 14.325 1115.03 13.5514 1113.48 11.0523C1111.93 8.54825 1112.7 5.26121 1115.2 3.70949Z" fill="#FF9900"/>
<path d="M1282.12 211.533C1284.62 209.981 1287.91 210.754 1289.47 213.253C1291.02 215.757 1290.24 219.045 1287.74 220.601C1285.24 222.153 1281.95 221.379 1280.4 218.875C1278.85 216.371 1279.62 213.084 1282.12 211.533Z" fill="#FF9900"/>
<path d="M1262.21 179.406C1264.71 177.854 1268 178.627 1269.55 181.131C1271.1 183.631 1270.33 186.923 1267.83 188.474C1265.32 190.026 1262.04 189.253 1260.48 186.749C1258.93 184.245 1259.7 180.957 1262.21 179.406Z" fill="#FF9900"/>
<path d="M1242.29 147.279C1244.79 145.727 1248.08 146.501 1249.63 149.005C1251.19 151.504 1250.41 154.796 1247.91 156.348C1245.4 157.899 1242.12 157.126 1240.57 154.622C1239.02 152.118 1239.79 148.831 1242.29 147.279Z" fill="#FF9900"/>
<path d="M1222.37 115.152C1224.88 113.6 1228.16 114.374 1229.72 116.878C1231.27 119.382 1230.5 122.669 1228 124.221C1225.49 125.772 1222.21 124.999 1220.65 122.495C1219.1 119.996 1219.87 116.704 1222.37 115.152Z" fill="#FF9900"/>
<path d="M1202.46 83.0253C1204.96 81.4736 1208.25 82.2472 1209.8 84.7512C1211.35 87.2552 1210.58 90.5423 1208.08 92.094C1205.57 93.6457 1202.29 92.8723 1200.74 90.3683C1199.18 87.8691 1199.96 84.5819 1202.46 83.0253Z" fill="#FF9900"/>
<path d="M1182.54 50.9038C1185.05 49.3472 1188.33 50.1207 1189.88 52.6248C1191.44 55.1288 1190.67 58.4158 1188.16 59.9675C1185.66 61.5192 1182.37 60.7459 1180.82 58.2467C1179.27 55.7427 1180.04 52.4555 1182.54 50.9038Z" fill="#FF9900"/>
<path d="M1162.62 18.7769C1165.13 17.2252 1168.41 17.9937 1169.97 20.4977C1171.52 23.0017 1170.75 26.2889 1168.25 27.8406C1165.74 29.3923 1162.46 28.6188 1160.9 26.1196C1159.35 23.6156 1160.12 20.3286 1162.62 18.7769Z" fill="#FF9900"/>
<path d="M1269.8 130.22C1272.3 128.668 1275.59 129.441 1277.14 131.945C1278.69 134.449 1277.92 137.737 1275.42 139.288C1272.92 140.84 1269.63 140.067 1268.08 137.563C1266.53 135.059 1267.3 131.771 1269.8 130.22Z" fill="#FF9900"/>
<path d="M1249.89 98.0931C1252.39 96.5414 1255.68 97.3148 1257.23 99.8188C1258.78 102.323 1258.01 105.61 1255.5 107.162C1253 108.713 1249.72 107.94 1248.16 105.436C1246.61 102.937 1247.38 99.6497 1249.89 98.0931Z" fill="#FF9900"/>
<path d="M1229.97 65.9663C1232.47 64.4146 1235.76 65.188 1237.31 67.692C1238.86 70.196 1238.09 73.4832 1235.59 75.0349C1233.08 76.5867 1229.8 75.8131 1228.25 73.3091C1226.7 70.8099 1227.46 67.5228 1229.97 65.9663Z" fill="#FF9900"/>
<path d="M1210.05 33.8445C1212.56 32.288 1215.84 33.0615 1217.4 35.5655C1218.95 38.0695 1218.17 41.3565 1215.67 42.9083C1213.17 44.46 1209.88 43.6865 1208.33 41.1873C1206.78 38.6833 1207.55 35.3962 1210.05 33.8445Z" fill="#FF9900"/>
<path d="M1190.14 1.71781C1192.64 0.166095 1195.93 0.934777 1197.48 3.43879C1199.03 5.9428 1198.26 9.22985 1195.76 10.7816C1193.25 12.3333 1189.97 11.5648 1188.42 9.06077C1186.86 6.55676 1187.63 3.26952 1190.14 1.71781Z" fill="#FF9900"/>
<path d="M1277.4 81.0339C1279.9 79.4821 1283.19 80.2555 1284.74 82.7596C1286.29 85.2636 1285.52 88.5508 1283.01 90.1025C1280.51 91.6542 1277.22 90.8808 1275.67 88.3768C1274.12 85.8776 1274.89 82.5904 1277.4 81.0339Z" fill="#FF9900"/>
<path d="M1257.48 48.9121C1259.98 47.3555 1263.27 48.129 1264.82 50.6331C1266.37 53.1371 1265.6 56.4241 1263.1 57.9758C1260.6 59.5275 1257.31 58.7542 1255.76 56.255C1254.21 53.751 1254.98 50.4638 1257.48 48.9121Z" fill="#FF9900"/>
<path d="M1237.57 16.7852C1240.06 15.2335 1243.36 16.002 1244.91 18.506C1246.46 21.01 1245.69 24.2972 1243.18 25.8489C1240.68 27.4006 1237.39 26.6271 1235.84 24.1279C1234.29 21.6239 1235.06 18.3369 1237.57 16.7852Z" fill="#FF9900"/>
<path d="M1284.99 31.8528C1287.49 30.2963 1290.78 31.0696 1292.33 33.5736C1293.88 36.0776 1293.11 39.3648 1290.61 40.9166C1288.11 42.4683 1284.82 41.6948 1283.27 39.1956C1281.72 36.6916 1282.49 33.4045 1284.99 31.8528Z" fill="#FF9900"/>
<path d="M1265.07 -0.274134C1267.58 -1.82585 1270.86 -1.05717 1272.41 1.44685C1273.97 3.95086 1273.2 7.2379 1270.69 8.78962C1268.19 10.3413 1264.9 9.57284 1263.35 7.06883C1261.8 4.56481 1262.57 1.27758 1265.07 -0.274134Z" fill="#FF9900"/>
</g>
</g>
</g>
<defs>
<clipPath id="clip0_8_2">
<rect width="2407" height="1307" fill="white" transform="matrix(0 -1 1 0 0 2407)"/>
</clipPath>
<clipPath id="clip1_8_2">
<rect width="2417" height="1450" fill="white" transform="matrix(0 -1 1 0 0 2407)"/>
</clipPath>
</defs>
</svg>
