<svg width="500" height="500" viewBox="0 0 500 500" fill="none" xmlns="http://www.w3.org/2000/svg">
<g clip-path="url(#clip0_17_476)">
<path class="group-hover:fill-white fill-orange-500 transition duration-300 ease-in-out" d="M457.705 443.75C457.705 451.383 368.315 451.383 258.048 451.383C147.781 451.383 58.3911 451.383 58.3911 443.75C58.3911 436.117 147.781 436.117 258.048 436.117C368.315 436.117 457.705 436.118 457.705 443.75Z"/>
<path class="group-hover:fill-white fill-orange-500 transition duration-300 ease-in-out" d="M455.396 182.652C449.544 163.485 434.114 147.426 415.08 141.156C411.634 140.021 408.029 139.165 404.97 137.213C401.911 135.262 399.434 131.875 399.794 128.265C400.367 122.513 407.328 119.76 413.108 119.853C418.888 119.946 424.937 121.553 430.279 119.342C437.403 116.393 440.408 107.077 437.908 99.783C435.409 92.489 428.641 87.305 421.357 84.777C414.073 82.25 406.227 81.985 398.52 81.761C336.134 79.945 272.471 82.181 210.202 77.937C181.08 75.952 151.457 75.067 123.067 81.852C94.6771 88.638 67.3001 103.963 51.4601 128.481C43.0191 141.546 38.1221 156.878 37.4271 172.417C36.0791 202.56 50.8931 232.321 73.8581 251.892C96.8241 271.463 127.183 281.281 157.344 282.14L353.523 282.454C370.678 279.467 387.957 276.425 404.201 270.154C420.445 263.882 435.778 254.093 445.878 239.909C457.503 223.587 461.247 201.819 455.396 182.652Z"/>
<path d="M363.72 56.646H180.667V317.876H363.72V56.646Z" fill="white"/>
<path d="M336.807 258.533C309.403 258.402 283.258 258.402 256.16 258.533" stroke="#060305" stroke-width="0.8" stroke-miterlimit="10" stroke-linecap="round" stroke-linejoin="round"/>
<path d="M356.22 258.533C351.435 258.533 346.651 258.533 341.866 258.533" stroke="#060305" stroke-width="0.8" stroke-miterlimit="10" stroke-linecap="round" stroke-linejoin="round"/>
<path d="M286.754 252.107C275.937 251.914 266.525 251.914 256.16 252.107" stroke="#060305" stroke-width="0.8" stroke-miterlimit="10" stroke-linecap="round" stroke-linejoin="round"/>
<path d="M356.22 252.107C334.504 251.914 313.587 251.914 291.943 252.107" stroke="#060305" stroke-width="0.8" stroke-miterlimit="10" stroke-linecap="round" stroke-linejoin="round"/>
<path d="M264.94 245.681C262.013 245.681 259.087 245.681 256.16 245.681" stroke="#060305" stroke-width="0.8" stroke-miterlimit="10" stroke-linecap="round" stroke-linejoin="round"/>
<path d="M332.08 245.527C311.124 245.445 290.167 245.501 269.211 245.681" stroke="#060305" stroke-width="0.8" stroke-miterlimit="10" stroke-linecap="round" stroke-linejoin="round"/>
<path d="M356.22 245.681C350.061 245.627 343.901 245.584 337.742 245.553" stroke="#060305" stroke-width="0.8" stroke-miterlimit="10" stroke-linecap="round" stroke-linejoin="round"/>
<path d="M218.211 119.416C231.333 119.034 243.227 119.034 256.16 119.416" stroke="#060305" stroke-width="0.8" stroke-miterlimit="10" stroke-linecap="round" stroke-linejoin="round"/>
<path d="M201.679 119.416C205.309 119.416 208.938 119.416 212.568 119.416" stroke="#060305" stroke-width="0.8" stroke-miterlimit="10" stroke-linecap="round" stroke-linejoin="round"/>
<path d="M242.37 126.415C246.966 126.415 251.563 126.415 256.16 126.415" stroke="#060305" stroke-width="0.8" stroke-miterlimit="10" stroke-linecap="round" stroke-linejoin="round"/>
<path d="M201.679 126.415C214.033 126.604 224.845 126.604 236.764 126.415" stroke="#060305" stroke-width="0.8" stroke-miterlimit="10" stroke-linecap="round" stroke-linejoin="round"/>
<path d="M234.187 133.414C241.511 133.414 248.836 133.414 256.16 133.414" stroke="#060305" stroke-width="0.8" stroke-miterlimit="10" stroke-linecap="round" stroke-linejoin="round"/>
<path d="M201.679 133.414C210.759 133.414 219.839 133.414 228.919 133.414" stroke="#060305" stroke-width="0.8" stroke-miterlimit="10" stroke-linecap="round" stroke-linejoin="round"/>
<path d="M222.173 140.412C229.978 140.412 237.782 140.412 245.586 140.412" stroke="#060305" stroke-width="0.8" stroke-miterlimit="10" stroke-linecap="round" stroke-linejoin="round"/>
<path d="M201.679 140.412C206.275 140.412 210.872 140.412 215.469 140.412" stroke="#060305" stroke-width="0.8" stroke-miterlimit="10" stroke-linecap="round" stroke-linejoin="round"/>
<path d="M221.439 147.411C233.013 147.411 244.586 147.411 256.16 147.411" stroke="#060305" stroke-width="0.8" stroke-miterlimit="10" stroke-linecap="round" stroke-linejoin="round"/>
<path d="M201.679 147.411C205.623 147.411 209.567 147.411 213.51 147.411" stroke="#060305" stroke-width="0.8" stroke-miterlimit="10" stroke-linecap="round" stroke-linejoin="round"/>
<path d="M249.284 154.41C251.576 154.41 253.868 154.41 256.16 154.41" stroke="#060305" stroke-width="0.8" stroke-miterlimit="10" stroke-linecap="round" stroke-linejoin="round"/>
<path d="M201.679 154.41C215.114 154.718 227.008 154.718 239.978 154.41" stroke="#060305" stroke-width="0.8" stroke-miterlimit="10" stroke-linecap="round" stroke-linejoin="round"/>
<path d="M228.163 161.408C237.495 161.408 246.828 161.408 256.16 161.408" stroke="#060305" stroke-width="0.8" stroke-miterlimit="10" stroke-linecap="round" stroke-linejoin="round"/>
<path d="M201.679 161.408C208.756 161.408 215.833 161.408 222.91 161.408" stroke="#060305" stroke-width="0.8" stroke-miterlimit="10" stroke-linecap="round" stroke-linejoin="round"/>
<path d="M300.382 119.416C315.674 119.034 329.731 119.034 344.696 119.416" stroke="#060305" stroke-width="0.8" stroke-miterlimit="10" stroke-linecap="round" stroke-linejoin="round"/>
<path d="M271.097 119.416C278.683 119.416 286.268 119.416 293.854 119.416" stroke="#060305" stroke-width="0.8" stroke-miterlimit="10" stroke-linecap="round" stroke-linejoin="round"/>
<path d="M284.945 126.415C304.862 126.604 325.406 126.604 344.696 126.415" stroke="#060305" stroke-width="0.8" stroke-miterlimit="10" stroke-linecap="round" stroke-linejoin="round"/>
<path d="M271.097 126.415C273.779 126.415 276.461 126.415 279.142 126.415" stroke="#060305" stroke-width="0.8" stroke-miterlimit="10" stroke-linecap="round" stroke-linejoin="round"/>
<path d="M271.097 133.414C279.515 133.414 287.934 133.414 296.352 133.414" stroke="#060305" stroke-width="0.8" stroke-miterlimit="10" stroke-linecap="round" stroke-linejoin="round"/>
<path d="M271.097 140.412H344.695" stroke="#060305" stroke-width="0.8" stroke-miterlimit="10" stroke-linecap="round" stroke-linejoin="round"/>
<path d="M214.135 104.99L201.771 84.289L206.413 81.517L213.898 94.049L225.089 73.324L229.846 75.893L214.135 104.99Z" fill="#FE5615"/>
<path d="M261.39 78.896C289.723 79.027 316.755 79.027 344.772 78.896" stroke="#060305" stroke-width="0.8" stroke-miterlimit="10" stroke-linecap="round" stroke-linejoin="round"/>
<path d="M241.319 78.896C246.266 78.896 251.213 78.896 256.16 78.896" stroke="#060305" stroke-width="0.8" stroke-miterlimit="10" stroke-linecap="round" stroke-linejoin="round"/>
<path d="M313.141 85.322C324.325 85.515 334.056 85.515 344.773 85.322" stroke="#060305" stroke-width="0.8" stroke-miterlimit="10" stroke-linecap="round" stroke-linejoin="round"/>
<path d="M241.319 85.322C263.772 85.515 285.397 85.515 307.776 85.322" stroke="#060305" stroke-width="0.8" stroke-miterlimit="10" stroke-linecap="round" stroke-linejoin="round"/>
<path d="M335.695 91.748C338.721 91.748 341.747 91.748 344.773 91.748" stroke="#060305" stroke-width="0.8" stroke-miterlimit="10" stroke-linecap="round" stroke-linejoin="round"/>
<path d="M266.278 91.902C287.945 91.984 309.612 91.928 331.278 91.748" stroke="#060305" stroke-width="0.8" stroke-miterlimit="10" stroke-linecap="round" stroke-linejoin="round"/>
<path d="M241.319 91.748C247.687 91.802 254.055 91.845 260.423 91.876" stroke="#060305" stroke-width="0.8" stroke-miterlimit="10" stroke-linecap="round" stroke-linejoin="round"/>
<path d="M239.244 285.763C242.031 279.034 238.836 271.319 232.106 268.531C225.376 265.744 217.661 268.939 214.873 275.668C212.086 282.398 215.282 290.112 222.012 292.9C228.741 295.688 236.457 292.492 239.244 285.763Z" stroke="#060305" stroke-width="0.8" stroke-miterlimit="10" stroke-linecap="round" stroke-linejoin="round"/>
<path d="M239.249 292.919C245.989 286.179 245.989 275.251 239.249 268.511C232.509 261.771 221.582 261.771 214.842 268.511C208.102 275.251 208.102 286.179 214.842 292.919C221.582 299.659 232.509 299.659 239.249 292.919Z" stroke="#060305" stroke-width="0.8" stroke-miterlimit="10" stroke-linecap="round" stroke-linejoin="round"/>
<path d="M263.092 275.589C257.773 281.034 254.979 288.852 255.641 296.435C260.708 292.381 265 287.362 268.217 281.726C268.644 280.977 269.004 279.909 268.339 279.36C267.571 278.726 266.485 279.572 265.864 280.351C264.831 281.648 263.762 283.023 263.5 284.66C263.239 286.297 264.118 288.242 265.748 288.548C266.574 288.703 267.424 288.418 268.158 288.009C270.119 286.918 271.525 284.884 271.854 282.664C270.975 283.462 270.07 284.297 269.61 285.392C269.15 286.487 269.268 287.92 270.203 288.651C271.197 289.427 272.722 289.104 273.667 288.269C274.612 287.434 275.116 286.222 275.59 285.053C274.631 286.247 274.897 288.227 276.138 289.125C277.379 290.023 279.343 289.657 280.177 288.373" stroke="#060305" stroke-width="0.8" stroke-miterlimit="10" stroke-linecap="round" stroke-linejoin="round"/>
<path d="M292.935 140.518C287.182 142.842 281.217 144.578 275.747 147.507C272.693 149.142 270.442 152.152 269.278 155.414C254.27 161.655 239.134 168.217 224.126 174.458C219.315 169.473 214.504 164.489 209.692 159.504C198.804 162.04 188.16 165.492 177.997 170.15C177.799 173.204 177.417 176.223 177.219 179.277C184.846 185.694 192.435 192.234 200.062 198.652C205.307 203.065 211.721 206.356 218.529 207.154C225.337 207.952 232.388 206.523 238.348 203.136C250.233 196.382 264.136 194.043 275.809 186.928L291.988 146.102C293.338 144.604 293.853 142.314 292.935 140.518Z" fill="#FFD1C7"/>
<path d="M224.107 174.366C223.669 175.035 223.23 175.704 222.792 176.373" stroke="#060305" stroke-width="0.8" stroke-miterlimit="10" stroke-linecap="round" stroke-linejoin="round"/>
<path d="M269.541 155.48C269.501 156.243 269.46 157.007 269.42 157.77" stroke="#060305" stroke-width="0.8" stroke-miterlimit="10" stroke-linecap="round" stroke-linejoin="round"/>
<path d="M350.621 133.483C345.499 132.155 340.612 130.535 335.489 129.208C334.708 131.755 332.337 133.738 329.692 134.056C327.047 134.374 324.399 132.713 323.036 130.423C318.931 131.944 314.827 133.464 310.722 134.985C306.075 164.742 301.751 194.007 297.105 223.764L352.379 225.063C351.898 194.532 351.103 164.014 350.621 133.483Z" fill="white"/>
<path d="M317.651 133.125C320.327 137.287 325.336 139.833 330.275 139.542C335.215 139.251 339.89 136.134 342.058 131.686" stroke="#060305" stroke-width="0.8" stroke-miterlimit="10" stroke-linecap="round" stroke-linejoin="round"/>
<path d="M408.252 399.408C393.677 403.06 379.163 407.141 364.588 410.792C367.267 419.083 365.634 428.641 360.355 435.572C358.937 437.434 357.032 439.556 356.918 441.893L382.11 441.976C392.817 438.804 404.048 435.272 414.755 432.1C412.855 421.033 410.151 410.477 408.252 399.408Z" fill="#060305"/>
<path d="M371.828 417.605C375.818 416.95 379.807 416.295 383.797 415.639" stroke="white" stroke-width="0.8" stroke-miterlimit="10" stroke-linecap="round" stroke-linejoin="round"/>
<path d="M371.862 421.919C375.929 421.384 379.997 420.85 384.064 420.315" stroke="white" stroke-width="0.8" stroke-miterlimit="10" stroke-linecap="round" stroke-linejoin="round"/>
<path d="M372.362 426.156C376.01 425.57 379.658 424.983 383.306 424.397" stroke="white" stroke-width="0.8" stroke-miterlimit="10" stroke-linecap="round" stroke-linejoin="round"/>
<path d="M410.872 421.354C407.692 423.988 406.032 428.342 406.652 432.425" stroke="white" stroke-width="0.8" stroke-miterlimit="10" stroke-linecap="round" stroke-linejoin="round"/>
<path d="M305.29 410.554C306.605 415.387 306.282 420.651 304.387 425.287C302.492 429.924 299.035 433.906 294.71 436.434C292.278 437.856 289.871 439.276 288.754 441.862L351.753 442.276C352.165 431.464 352.92 420.713 353.332 409.901C337.432 410.173 321.191 410.282 305.29 410.554Z" fill="#060305"/>
<path d="M307.725 419.231C310.524 419.146 313.322 419.062 316.121 418.977" stroke="white" stroke-width="0.8" stroke-miterlimit="10" stroke-linecap="round" stroke-linejoin="round"/>
<path d="M306.451 423.161C309.674 423.136 312.896 423.11 316.119 423.085" stroke="white" stroke-width="0.8" stroke-miterlimit="10" stroke-linecap="round" stroke-linejoin="round"/>
<path d="M304.925 427.839C307.639 427.839 310.353 427.839 313.067 427.839" stroke="white" stroke-width="0.8" stroke-miterlimit="10" stroke-linecap="round" stroke-linejoin="round"/>
<path d="M336.915 440.77C339.778 436.45 345.041 433.839 350.214 434.175" stroke="white" stroke-width="0.8" stroke-miterlimit="10" stroke-linecap="round" stroke-linejoin="round"/>
<path d="M411.538 403.215L391.476 308.037C387.456 280.831 384.283 253.645 380.263 226.439C351.758 224.363 322.181 222.612 293.677 220.536C292.872 228.171 292.067 235.806 291.262 243.441C285.381 299.217 296.681 356.448 301.089 412.36C318.728 412.559 336.389 412.655 354.027 412.854C353.842 402.337 353.78 391.027 353.595 380.51C355.931 391.119 358.406 401.687 360.742 412.297C377.59 409.09 394.691 406.423 411.538 403.215Z" fill="#2A2A59"/>
<path d="M325.472 259.935C335.03 301.242 344.587 342.549 354.145 383.856" stroke="#060305" stroke-width="0.8" stroke-miterlimit="10" stroke-linecap="round" stroke-linejoin="round"/>
<path d="M298.564 226.845C314.248 227.493 329.931 228.141 345.615 228.789" stroke="#060305" stroke-width="0.8" stroke-miterlimit="10" stroke-linecap="round" stroke-linejoin="round"/>
<path d="M323.543 232.32C327.386 232.32 330.501 229.205 330.501 225.362C330.501 221.519 327.386 218.404 323.543 218.404C319.7 218.404 316.585 221.519 316.585 225.362C316.585 229.205 319.7 232.32 323.543 232.32Z" stroke="#060305" stroke-width="0.8" stroke-miterlimit="10" stroke-linecap="round" stroke-linejoin="round"/>
<path d="M301.114 399.69C318.248 400.29 335.382 400.891 352.515 401.491" stroke="#060305" stroke-width="0.8" stroke-miterlimit="10" stroke-linecap="round" stroke-linejoin="round"/>
<path d="M359.658 400.802C375.921 397.975 392.185 395.148 408.448 392.321" stroke="#060305" stroke-width="0.8" stroke-miterlimit="10" stroke-linecap="round" stroke-linejoin="round"/>
<path d="M343.95 401.379C343.875 381.789 343.799 362.2 343.724 342.61" stroke="#060305" stroke-width="0.8" stroke-miterlimit="10" stroke-linecap="round" stroke-linejoin="round"/>
<path d="M401.656 393.479C399.796 386.523 397.937 379.567 396.077 372.612C385.104 331.569 377.77 289.736 376.335 247.276" stroke="#060305" stroke-width="0.8" stroke-miterlimit="10" stroke-linecap="round" stroke-linejoin="round"/>
<path d="M236.549 199.798C236.549 199.798 226.004 203.994 222.461 205.771C220.745 204.515 218.64 203.6 216.516 203.696C213.017 203.854 209.198 204.134 205.699 204.292C206.339 209.168 207.31 213.961 207.95 218.837L229.027 234.447L245.135 228.468L236.549 199.798Z" fill="#FF9A7D"/>
<path d="M222.363 205.731C223.301 206.829 224.238 207.928 225.176 209.026" stroke="#060305" stroke-width="0.8" stroke-miterlimit="10" stroke-linecap="round" stroke-linejoin="round"/>
<path d="M224.758 202.843L235.977 233.156L247.959 230.035L238.743 196.893L224.758 202.843Z" fill="white"/>
<path d="M438.452 374.922H367.327C359.276 374.922 352.75 368.396 352.75 360.345V321.318C352.75 313.267 359.276 306.741 367.327 306.741H438.452C446.503 306.741 453.029 313.267 453.029 321.318V360.345C453.028 368.396 446.502 374.922 438.452 374.922Z" fill="#FE5615"/>
<path d="M419.565 309.407L415.89 296.81C415.339 294.92 413.578 293.6 411.61 293.6H392.617C390.62 293.6 388.852 294.944 388.32 296.869L385.068 308.615L380.899 307.461L384.151 295.715C385.201 291.924 388.682 289.275 392.617 289.275H411.61C415.489 289.275 418.956 291.876 420.042 295.6L423.717 308.196L419.565 309.407Z" fill="#FE5615"/>
<path d="M363.115 310.296C363.056 330.65 362.996 351.004 362.937 371.358" stroke="#060305" stroke-width="0.8" stroke-miterlimit="10" stroke-linecap="round" stroke-linejoin="round"/>
<path d="M442.911 309.531C443.057 330.139 443.202 350.748 443.348 371.356" stroke="#060305" stroke-width="0.8" stroke-miterlimit="10" stroke-linecap="round" stroke-linejoin="round"/>
<path d="M384.275 270.895C385.392 279.494 386.509 288.092 387.627 296.691C387.845 298.371 389.017 300.164 390.617 300.721C392.217 301.278 394.134 300.756 395.23 299.465C396.049 300.707 397.419 301.625 398.905 301.573C400.392 301.52 401.824 300.649 402.553 299.352C403.264 300.748 404.866 301.746 406.432 301.69C407.997 301.634 409.488 300.608 410.098 299.165C411.146 299.769 412.612 299.577 413.667 298.985C414.723 298.393 415.429 297.223 415.46 296.014C415.675 287.775 415.92 279.352 416.2 271.114L384.275 270.895Z" fill="#FF9A7D"/>
<path d="M394.736 297.321C394.906 298.084 395.075 298.847 395.245 299.611" stroke="#060305" stroke-width="0.8" stroke-miterlimit="10" stroke-linecap="round" stroke-linejoin="round"/>
<path d="M402.368 297.575C402.368 298.423 402.368 299.271 402.368 300.119" stroke="#060305" stroke-width="0.8" stroke-miterlimit="10" stroke-linecap="round" stroke-linejoin="round"/>
<path d="M410.301 296.817C410.214 297.665 410.128 298.513 410.041 299.361" stroke="#060305" stroke-width="0.8" stroke-miterlimit="10" stroke-linecap="round" stroke-linejoin="round"/>
<path d="M314.221 131.471C307.743 133.41 301.425 135.223 294.946 137.163C294.82 138.372 294.714 139.452 294.588 140.661C289.703 143.059 285.485 147.15 283.193 152.086C277.738 163.831 272.187 175.351 266.732 187.095C254.754 190.265 242.777 193.434 230.8 196.604C235.131 210.468 239.319 223.774 243.651 237.638C254.814 233.656 265.8 229.382 276.963 225.4C281.467 223.793 285.838 220.843 288.86 217.137C287.618 226.737 286.646 236.113 285.404 245.713L298.752 248.643L314.221 131.471Z" fill="#814EFF"/>
<path d="M249.071 192.54C251.414 200.356 253.107 208.252 255.45 216.068C250.161 217.633 244.872 219.199 239.583 220.764" stroke="#060305" stroke-width="0.8" stroke-miterlimit="10" stroke-linecap="round" stroke-linejoin="round"/>
<path d="M266.518 187.345C267.239 187.218 267.96 187.091 268.681 186.964" stroke="#060305" stroke-width="0.8" stroke-miterlimit="10" stroke-linecap="round" stroke-linejoin="round"/>
<path d="M294.691 140.733C294.406 147.264 294.121 153.794 293.836 160.325C297.271 160.375 300.6 160.388 304.034 160.438C300.835 162.486 297.946 164.371 294.747 166.42C297.138 182.961 299.517 199.615 301.908 216.156" stroke="#060305" stroke-width="0.8" stroke-miterlimit="10" stroke-linecap="round" stroke-linejoin="round"/>
<path d="M288.344 219.008C290.335 200.073 292.325 181.139 294.316 162.204" stroke="#060305" stroke-width="0.8" stroke-miterlimit="10" stroke-linecap="round" stroke-linejoin="round"/>
<path d="M412.032 190.214C405.169 178.634 399.266 166.141 391.213 155.355C384.863 146.85 377.457 142.13 365.223 138.417L365.709 135.878L346.8 129.84L341.613 249.802L379.634 249.424L380.122 272.404L417.313 273.367L419.038 220.163C419.288 209.92 417.257 199.029 412.032 190.214Z" fill="#814EFF"/>
<path d="M365.436 137.726C363.626 145.118 361.817 152.51 360.007 159.902C356.441 160.079 352.241 160.324 348.675 160.501C351.834 162.417 354.791 164.967 357.95 166.883C353.367 184.138 348.623 201.365 344.04 218.62" stroke="#060305" stroke-width="0.8" stroke-miterlimit="10" stroke-linecap="round" stroke-linejoin="round"/>
<path d="M379.554 248.98C379.473 236.004 379.391 223.029 379.31 210.054C374.782 196.893 368.641 181.045 363.553 166.344C361.775 161.205 362.135 155.529 365.582 151.323C369.029 147.117 374.913 145.069 380.227 146.226" stroke="#060305" stroke-width="0.8" stroke-miterlimit="10" stroke-linecap="round" stroke-linejoin="round"/>
<path d="M380.487 255.611C389.483 256.083 398.479 256.554 407.475 257.026C407.317 262.284 406.983 266.879 406.825 272.138" stroke="#060305" stroke-width="0.8" stroke-miterlimit="10" stroke-linecap="round" stroke-linejoin="round"/>
<path d="M378.945 226.021L355.822 213.402L355.336 220.764L379.463 234.447" stroke="#060305" stroke-width="0.8" stroke-miterlimit="10" stroke-linecap="round" stroke-linejoin="round"/>
<path d="M330.812 97.186C330.621 97.949 330.484 98.828 330.293 99.591C325.183 97.991 319.661 98.056 314.306 98.053C312.408 98.052 310.516 98.737 309.058 99.952" stroke="#060305" stroke-width="0.8" stroke-miterlimit="10" stroke-linecap="round" stroke-linejoin="round"/>
<path d="M337.516 107.049C337.189 105.029 336.816 102.906 335.519 101.323C334.482 100.058 332.947 99.279 331.363 98.869C329.779 98.459 328.001 98.233 326.368 98.334C323.087 98.537 319.806 98.74 316.525 98.943C315.043 99.035 313.535 99.132 312.15 99.665C310.765 100.198 309.497 101.246 309.077 102.67C308.742 103.808 309.008 105.104 309.763 106.019C310.518 106.933 311.83 107.587 313.01 107.473C312.472 107.832 312.058 108.375 311.857 108.99C311.489 110.116 311.886 111.442 312.792 112.204C313.699 112.966 315.054 113.132 316.131 112.64C317.161 114.674 317.921 116.649 318.58 118.831L339.281 117.95C338.693 114.316 338.105 110.682 337.516 107.049Z" fill="#060305"/>
<path d="M337.727 130.549C337.456 128.002 337.127 125.551 336.856 123.004C338.961 122.856 340.933 121.475 341.793 119.547C342.652 117.62 342.361 115.229 341.065 113.565C339.768 111.9 337.522 111.033 335.443 111.394C334.886 112.642 334.351 113.839 333.794 115.087C333.258 114.758 332.837 114.278 332.602 113.695C331.866 111.869 331.131 110.043 330.395 108.217C326.049 108.322 321.55 108.59 317.203 108.694C315.671 110.079 314.567 111.783 314.223 113.82C313.883 115.828 314.08 117.887 314.022 119.922C313.959 122.123 314.924 124.435 316.407 126.063C317.89 127.691 319.983 128.751 322.173 128.983C322.24 129.894 322.279 130.78 322.346 131.692C324.15 134.159 327.308 135.561 330.356 135.346C333.404 135.131 336.288 133.245 337.727 130.549Z" fill="#FF9A7D"/>
<path d="M327.576 119.942L324.463 120.37C324.45 120.981 324.824 121.584 325.377 121.844C325.93 122.104 326.632 122.007 327.095 121.608C327.557 121.208 327.754 120.527 327.576 119.942Z" fill="white"/>
<path d="M329.125 116.993C329.125 116.515 328.738 116.128 328.26 116.128C327.782 116.128 327.395 116.515 327.395 116.993C327.395 117.471 327.782 117.858 328.26 117.858C328.737 117.858 329.125 117.471 329.125 116.993Z" fill="#060305"/>
<path d="M318.289 117.065C318.289 116.587 317.902 116.2 317.424 116.2C316.946 116.2 316.559 116.587 316.559 117.065C316.559 117.543 316.946 117.93 317.424 117.93C317.902 117.93 318.289 117.543 318.289 117.065Z" fill="#060305"/>
<path d="M321.834 116.858C321.612 117.933 321.39 119.008 321.168 120.083C321.613 120.016 322.07 120.079 322.515 120.012" stroke="#060305" stroke-width="0.8" stroke-miterlimit="10" stroke-linecap="round" stroke-linejoin="round"/>
<path d="M321.776 129.042C324.312 129.703 327.064 129.506 329.48 128.489" stroke="#060305" stroke-width="0.8" stroke-miterlimit="10" stroke-linecap="round" stroke-linejoin="round"/>
<path d="M336.16 116.464C337.053 115.735 337.946 115.007 338.839 114.278" stroke="#060305" stroke-width="0.8" stroke-miterlimit="10" stroke-linecap="round" stroke-linejoin="round"/>
<path d="M325.489 111.893C326.208 110.861 327.866 110.665 328.806 111.501" stroke="#060305" stroke-width="0.8" stroke-miterlimit="10" stroke-linecap="round" stroke-linejoin="round"/>
<path d="M316.026 112.706C316.853 112.769 317.68 112.831 318.507 112.894" stroke="#060305" stroke-width="0.8" stroke-miterlimit="10" stroke-linecap="round" stroke-linejoin="round"/>
<path d="M121.548 137.641C121.485 136.156 122.283 134.738 123.36 133.714C124.438 132.69 125.779 131.995 127.1 131.314C131.272 129.164 135.444 127.015 139.616 124.865" stroke="#FE5615" stroke-width="0.8" stroke-miterlimit="10" stroke-linecap="round" stroke-linejoin="round"/>
<path d="M164.74 104.165C158.96 100.237 150.631 100.559 145.171 104.922C139.711 109.285 138.025 117.545 140.582 124.049C136.551 126.505 132.52 128.962 128.489 131.418C126.681 132.52 124.813 133.677 123.646 135.444C122.478 137.21 122.224 139.771 123.642 141.344L155.325 146.832C155.282 139.92 155.476 133.278 155.433 126.366C158.197 124.384 161.147 122.229 163.912 120.247C164.037 117.192 164.32 113.87 164.445 110.815C165.592 110.109 166.362 108.823 166.444 107.479C166.524 106.134 165.855 104.923 164.74 104.165Z" fill="#FE5615"/>
<path d="M136.689 124.95L138.501 120.212L149.569 124.183L148.837 127.59L136.689 124.95Z" fill="white"/>
<path d="M213.133 159.878C207.572 154.371 202.356 148.379 196.523 143.161C191.879 139.007 186.504 135.548 180.36 134.511C173.548 133.361 167.058 132.266 160.247 131.115C158.783 133.302 156.029 134.551 153.419 134.211C150.809 133.871 148.291 132.015 147.436 129.526C140.197 132.592 132.958 135.658 125.719 138.723C120.602 140.89 116.119 144.52 113.439 149.387C110.758 154.254 109.824 160.06 110.841 165.523C114.183 183.465 114.729 201.776 117.619 219.796L189.663 218.449C189.606 206.534 189.725 194.739 189.667 182.824C191.95 181.3 193.514 178.743 193.83 176.016C194.146 173.289 193.327 170.211 191.454 168.204C198.439 165.462 206.148 162.622 213.133 159.878Z" fill="#9E97FF"/>
<path d="M137.545 134.434C141.774 139.523 146.003 144.612 150.231 149.702C152.076 145.869 154.015 142.248 155.86 138.416C159.21 141.495 162.543 144.351 165.892 147.43C166.372 142.596 167.083 137.893 167.564 133.06" stroke="#060305" stroke-width="0.8" stroke-miterlimit="10" stroke-linecap="round" stroke-linejoin="round"/>
<path d="M178.545 134.885C179.085 138.873 180.379 142.762 181.922 146.479C184.892 153.635 187.863 160.791 190.833 167.946" stroke="#060305" stroke-width="0.8" stroke-miterlimit="10" stroke-linecap="round" stroke-linejoin="round"/>
<path d="M121.881 141.85C125.809 139.567 131.09 139.875 134.726 142.599C137.099 144.377 138.697 146.975 140.238 149.508C144.758 156.942 149.278 164.376 153.798 171.811" stroke="#060305" stroke-width="0.8" stroke-miterlimit="10" stroke-linecap="round" stroke-linejoin="round"/>
<path d="M113.144 170.133C115.108 176.587 117.071 183.041 119.035 189.496" stroke="#060305" stroke-width="0.8" stroke-miterlimit="10" stroke-linecap="round" stroke-linejoin="round"/>
<path d="M189.411 164.242C196.037 161.728 202.664 159.215 209.291 156.701" stroke="#060305" stroke-width="0.8" stroke-miterlimit="10" stroke-linecap="round" stroke-linejoin="round"/>
<path d="M117.728 184.217C128.817 178.62 139.905 173.023 150.994 167.427" stroke="#060305" stroke-width="0.8" stroke-miterlimit="10" stroke-linecap="round" stroke-linejoin="round"/>
<path d="M155.984 138.938C157.595 145.69 159.206 152.443 160.817 159.195" stroke="#060305" stroke-width="0.8" stroke-miterlimit="10" stroke-linecap="round" stroke-linejoin="round"/>
<path d="M178.188 434.646C173.786 430.924 170.661 425.72 169.445 420.085C168.229 414.45 168.861 408.55 171.336 403.344C146.758 397.66 121.145 394.776 95.919 394.829C92.349 405.405 88.778 415.982 85.208 426.558C94.226 431.427 102.864 436.956 111.882 441.825L184.02 442.268C183.781 438.954 180.725 436.79 178.188 434.646Z" fill="#2A2A59"/>
<path d="M122.172 412.578C121.944 422.245 121.715 431.911 121.487 441.578" stroke="#060305" stroke-width="0.8" stroke-miterlimit="10" stroke-linecap="round" stroke-linejoin="round"/>
<path d="M88.7161 421.657C98.1591 427.764 107.602 433.871 117.045 439.978" stroke="#060305" stroke-width="0.8" stroke-miterlimit="10" stroke-linecap="round" stroke-linejoin="round"/>
<path d="M122.473 435.57C142.924 437.381 163.375 439.192 183.826 441.004" stroke="#060305" stroke-width="0.8" stroke-miterlimit="10" stroke-linecap="round" stroke-linejoin="round"/>
<path d="M190.221 212.323L115.869 215.546C114.266 225.975 112.663 236.405 111.061 246.834C107.084 272.714 113.239 298.877 118.877 324.446C109.452 347.785 99.627 371.316 90.202 394.654C100.326 399.161 110.536 403.371 120.816 407.508C120.867 409.417 120.407 410.985 120.458 412.894C139.921 412.672 159.459 412.333 178.922 412.111C177.374 392.967 176.269 373.615 174.721 354.472C182.646 344.8 185.458 332.073 187.681 319.767C194.882 279.893 193.507 248.13 190.221 212.323Z" fill="#060305"/>
<path d="M115.379 222.313C130.309 221.984 145.239 221.654 160.169 221.325" stroke="white" stroke-width="0.8" stroke-miterlimit="10" stroke-linecap="round" stroke-linejoin="round"/>
<path d="M125.327 222.271C122.469 236.74 121.289 251.539 121.818 266.278C122.512 285.578 126.514 304.417 128.805 323.593C129.768 322.924 131.412 323.598 132.009 324.608C132.606 325.617 132.418 326.961 131.76 327.931C131.102 328.901 130.049 329.542 128.952 329.955C128.643 357.349 127.568 384.669 127.259 412.063" stroke="white" stroke-width="0.8" stroke-miterlimit="10" stroke-linecap="round" stroke-linejoin="round"/>
<path d="M120.897 407.731C120.317 380.17 119.736 352.609 119.156 325.048" stroke="white" stroke-width="0.8" stroke-miterlimit="10" stroke-linecap="round" stroke-linejoin="round"/>
<path d="M164.658 259.452C167.327 281.901 169.997 304.35 172.666 326.799C173.781 336.176 174.212 345.657 174.831 355.08" stroke="white" stroke-width="0.8" stroke-miterlimit="10" stroke-linecap="round" stroke-linejoin="round"/>
<path d="M146.791 221.751C146.86 225.993 146.93 230.235 146.999 234.477" stroke="white" stroke-width="0.8" stroke-miterlimit="10" stroke-linecap="round" stroke-linejoin="round"/>
<path d="M122.314 250.701C128.152 241.109 133.99 231.518 139.828 221.926" stroke="white" stroke-width="0.8" stroke-miterlimit="10" stroke-linecap="round" stroke-linejoin="round"/>
<path d="M232.462 237.767C229.957 231.489 226.046 225.719 221.499 220.717C216.112 214.79 209.207 209.862 201.888 206.61C188.18 200.52 174.643 194.561 160.935 188.471C157.916 183.413 154.897 178.355 151.878 173.297L121.582 188.433C126.719 196.801 132.195 205.05 139.101 212.029C146.007 219.008 154.249 225.163 163.861 227.167C172.919 229.056 190.405 235.437 190.405 235.437C190.405 235.437 202.222 250.461 210.674 253.012C212.332 253.512 214.556 252.512 214.895 250.814C216.2 251.423 217.818 251.3 219.016 250.501C220.213 249.702 221.272 248.43 221.21 246.992C222.604 247.314 224.137 246.972 225.261 246.088C226.386 245.204 227.253 243.93 227.269 242.499C228.6 243.072 230.265 242.761 231.298 241.744C232.331 240.728 232.999 239.114 232.462 237.767Z" fill="#FFD1C7"/>
<path d="M160.933 188.778C159.914 188.896 158.896 189.015 157.877 189.133" stroke="#060305" stroke-width="0.8" stroke-miterlimit="10" stroke-linecap="round" stroke-linejoin="round"/>
<path d="M225.289 239.695C225.876 240.506 226.462 241.316 227.049 242.127" stroke="#060305" stroke-width="0.8" stroke-miterlimit="10" stroke-linecap="round" stroke-linejoin="round"/>
<path d="M219.071 244.388C219.935 245.263 220.799 246.138 221.663 247.013" stroke="#060305" stroke-width="0.8" stroke-miterlimit="10" stroke-linecap="round" stroke-linejoin="round"/>
<path d="M212.831 248.973C213.424 249.525 214.017 250.077 214.61 250.629" stroke="#060305" stroke-width="0.8" stroke-miterlimit="10" stroke-linecap="round" stroke-linejoin="round"/>
<path d="M161.094 132.009C161.16 131.246 161.302 130.616 161.368 129.853C163.458 129.333 165.369 128.117 166.727 126.444C168.084 124.771 169.185 122.651 169.084 120.5C168.932 117.271 168.24 114.146 166.971 111.172C166.361 109.742 165.284 108.516 163.945 107.727C162.606 106.938 161.217 106.41 159.67 106.569C160.078 107.315 159.628 108.29 158.931 108.777C158.234 109.264 157.362 109.403 156.533 109.593C155.704 109.783 154.835 110.074 154.318 110.749C153.871 111.333 153.766 112.101 153.671 112.83C153.576 113.559 153.458 114.328 152.993 114.898C152.528 115.468 151.337 115.997 150.797 115.498C150.464 116.196 150.131 116.894 149.798 117.591C149.312 116.672 148.691 115.744 148.204 114.824C146.169 114.506 143.992 115.401 142.769 117.059C141.547 118.716 141.335 121.062 142.24 122.911C143.145 124.761 145.127 126.032 147.186 126.084C146.797 127.63 146.416 129.19 146.026 130.735C145.665 132.168 146.514 133.878 147.548 134.934C148.581 135.99 149.96 136.662 151.391 137.032C153.394 137.55 155.577 137.493 157.473 136.665C159.369 135.837 160.916 134.07 161.094 132.009Z" fill="#FFD1C7"/>
<path d="M157.736 117.738C157.736 117.26 157.349 116.873 156.871 116.873C156.393 116.873 156.006 117.26 156.006 117.738C156.006 118.216 156.393 118.603 156.871 118.603C157.348 118.603 157.736 118.216 157.736 117.738Z" fill="#060305"/>
<path d="M167.731 116.656C167.731 116.178 167.344 115.791 166.866 115.791C166.388 115.791 166.001 116.178 166.001 116.656C166.001 117.134 166.388 117.521 166.866 117.521C167.344 117.521 167.731 117.134 167.731 116.656Z" fill="#060305"/>
<path d="M144.771 117.883C145.607 118.41 146.442 118.936 147.278 119.463" stroke="#060305" stroke-width="0.8" stroke-miterlimit="10" stroke-linecap="round" stroke-linejoin="round"/>
<path d="M155.271 114.173C155.54 113.452 156.226 112.905 156.989 112.804C157.751 112.702 158.557 113.051 159.005 113.676" stroke="#060305" stroke-width="0.8" stroke-miterlimit="10" stroke-linecap="round" stroke-linejoin="round"/>
<path d="M164.604 111.275C165.241 111.122 165.879 110.969 166.516 110.816" stroke="#060305" stroke-width="0.8" stroke-miterlimit="10" stroke-linecap="round" stroke-linejoin="round"/>
<path d="M162.758 116.57C163.101 117.463 163.443 118.356 163.786 119.25C163.404 119.314 162.703 119.354 162.321 119.417" stroke="#060305" stroke-width="0.8" stroke-miterlimit="10" stroke-linecap="round" stroke-linejoin="round"/>
<path d="M158.685 120.464C158.591 121.055 158.95 121.688 159.506 121.911C160.062 122.134 160.759 121.925 161.1 121.432" stroke="#060305" stroke-width="0.8" stroke-miterlimit="10" stroke-linecap="round" stroke-linejoin="round"/>
<path d="M153.806 129.389C156.281 130.591 159.198 130.856 161.85 130.12" stroke="#060305" stroke-width="0.8" stroke-miterlimit="10" stroke-linecap="round" stroke-linejoin="round"/>
<path d="M146.771 126.206C147.28 126.174 147.789 126.141 148.297 126.109" stroke="#060305" stroke-width="0.8" stroke-miterlimit="10" stroke-linecap="round" stroke-linejoin="round"/>
<path d="M159.852 106.43C160.299 107.327 160.17 108.481 159.536 109.258C158.882 110.059 157.831 110.399 156.841 110.699" stroke="#FE5615" stroke-width="0.8" stroke-miterlimit="10" stroke-linecap="round" stroke-linejoin="round"/>
<path d="M204.494 250.7C205.572 248.049 206.65 245.397 207.727 242.746C207.986 242.108 208.25 241.446 208.228 240.757C208.205 240.068 207.695 239.307 207.033 239.116C205.555 240.396 204.056 241.655 202.578 242.935C203.404 240.381 204.229 237.827 205.055 235.274C205.285 234.564 205.517 233.817 205.381 233.084C205.245 232.35 204.593 231.662 203.851 231.738C201.827 233.973 199.644 236.125 197.62 238.36C198.128 235.978 198.637 233.597 199.145 231.215C199.343 230.285 199.541 229.313 199.294 228.395C199.047 227.477 198.188 226.805 197.243 226.909C195.79 228.897 194.337 230.884 192.884 232.871C193.067 230.878 193.25 228.885 193.433 226.892C193.507 226.086 193.576 225.242 193.262 224.497C192.948 223.752 192.035 223.331 191.261 223.569C189.343 227.444 187.426 231.319 185.508 235.194C185.601 236.271 186.099 237.222 186.945 237.896C187.791 238.57 188.918 238.878 189.989 238.728C190.006 240.02 190.884 241.135 191.978 241.823C193.072 242.51 194.505 242.615 195.695 242.113C195.494 243.406 196.004 244.654 196.993 245.512C197.982 246.37 199.42 246.675 200.672 246.294C200.185 247.377 200.515 248.687 201.274 249.6C202.033 250.515 203.34 250.982 204.494 250.7Z" fill="#FF9A7D"/>
<path d="M189.789 238.606C190.736 236.642 191.682 234.677 192.629 232.713" stroke="#060305" stroke-width="0.8" stroke-miterlimit="10" stroke-linecap="round" stroke-linejoin="round"/>
<path d="M195.42 242.124C196.183 240.682 196.947 239.241 197.71 237.799" stroke="#060305" stroke-width="0.8" stroke-miterlimit="10" stroke-linecap="round" stroke-linejoin="round"/>
<path d="M200.108 246.567C200.966 245.302 201.823 244.036 202.681 242.77" stroke="#060305" stroke-width="0.8" stroke-miterlimit="10" stroke-linecap="round" stroke-linejoin="round"/>
<path d="M205.7 204.292C204.309 209.044 202.918 213.795 201.526 218.547C201.897 219.117 203.047 219.106 203.682 218.862C204.316 218.618 204.802 218.105 205.265 217.607C207.712 214.977 210.16 212.348 212.607 209.719L205.7 204.292Z" fill="#FF9A7D"/>
<path d="M210.916 211.581C211.298 211.157 211.679 210.733 212.061 210.309" stroke="#060305" stroke-width="0.8" stroke-miterlimit="10" stroke-linecap="round" stroke-linejoin="round"/>
<path d="M96.2721 163.888C96.2721 163.291 95.7881 162.807 95.1911 162.807C94.5941 162.807 94.1101 163.291 94.1101 163.888C94.1101 164.485 94.5941 164.969 95.1911 164.969C95.7881 164.969 96.2721 164.485 96.2721 163.888Z" fill="white"/>
<path d="M400.238 107.152C400.835 107.152 401.319 106.668 401.319 106.071C401.319 105.474 400.835 104.99 400.238 104.99C399.641 104.99 399.157 105.474 399.157 106.071C399.157 106.668 399.641 107.152 400.238 107.152Z" fill="white"/>
<path d="M428.348 221.845C428.945 221.845 429.429 221.361 429.429 220.764C429.429 220.167 428.945 219.683 428.348 219.683C427.751 219.683 427.267 220.167 427.267 220.764C427.267 221.361 427.751 221.845 428.348 221.845Z" fill="white"/>
<path d="M441.605 188.834C442.202 188.834 442.686 188.35 442.686 187.753C442.686 187.156 442.202 186.672 441.605 186.672C441.008 186.672 440.524 187.156 440.524 187.753C440.524 188.35 441.008 188.834 441.605 188.834Z" fill="#814EFF"/>
<path d="M458.786 150.833C458.786 150.236 458.302 149.752 457.705 149.752C457.108 149.752 456.624 150.236 456.624 150.833C456.624 151.43 457.108 151.914 457.705 151.914C458.302 151.915 458.786 151.431 458.786 150.833Z" fill="#814EFF"/>
<path d="M105.707 106.071C106.304 106.071 106.788 105.587 106.788 104.99C106.788 104.393 106.304 103.909 105.707 103.909C105.11 103.909 104.626 104.393 104.626 104.99C104.626 105.587 105.11 106.071 105.707 106.071Z" fill="white"/>
<path d="M379.591 98.267C380.188 98.267 380.672 97.783 380.672 97.186C380.672 96.589 380.188 96.105 379.591 96.105C378.994 96.105 378.51 96.589 378.51 97.186C378.51 97.783 378.994 98.267 379.591 98.267Z" fill="white"/>
<path d="M112.887 112.974C113.484 112.974 113.968 112.49 113.968 111.893C113.968 111.296 113.484 110.812 112.887 110.812C112.29 110.812 111.806 111.296 111.806 111.893C111.806 112.49 112.29 112.974 112.887 112.974Z" fill="#814EFF"/>
<path d="M62.174 216.105C62.771 216.105 63.255 215.621 63.255 215.024C63.255 214.427 62.771 213.943 62.174 213.943C61.577 213.943 61.093 214.427 61.093 215.024C61.093 215.621 61.577 216.105 62.174 216.105Z" fill="white"/>
<path d="M29.7871 241.396C30.3841 241.396 30.8681 240.912 30.8681 240.315C30.8681 239.718 30.3841 239.234 29.7871 239.234C29.19 239.234 28.7061 239.718 28.7061 240.315C28.7061 240.912 29.19 241.396 29.7871 241.396Z" fill="#814EFF"/>
<path d="M61.093 177.661H56.228V182.526H61.093V177.661Z" stroke="#060305" stroke-width="0.8" stroke-miterlimit="10" stroke-linecap="round" stroke-linejoin="round"/>
<path d="M454.12 129.254H449.255V134.119H454.12V129.254Z" fill="white"/>
<path d="M447.995 256.94H443.13V261.805H447.995V256.94Z" stroke="#060305" stroke-width="0.8" stroke-miterlimit="10" stroke-linecap="round" stroke-linejoin="round"/>
<path d="M154.987 51.781H150.122V56.646H154.987V51.781Z" fill="#814EFF"/>
<path d="M96.542 283.58H91.677V288.445H96.542V283.58Z" fill="white"/>
<path d="M93.011 227.539L89.118 231.432" stroke="#060305" stroke-width="0.8" stroke-miterlimit="10" stroke-linecap="round" stroke-linejoin="round"/>
<path d="M135.127 58.861L131.234 62.754" stroke="#060305" stroke-width="0.8" stroke-miterlimit="10" stroke-linecap="round" stroke-linejoin="round"/>
<path d="M460.706 244.228L456.813 248.121" stroke="#060305" stroke-width="0.8" stroke-miterlimit="10" stroke-linecap="round" stroke-linejoin="round"/>
<path d="M460.069 109.701L456.176 113.594" stroke="#060305" stroke-width="0.8" stroke-miterlimit="10" stroke-linecap="round" stroke-linejoin="round"/>
<path d="M423.717 169.864L427.61 173.757" stroke="#060305" stroke-width="0.8" stroke-miterlimit="10" stroke-linecap="round" stroke-linejoin="round"/>
<path d="M38.906 105.798L42.799 109.691" stroke="#060305" stroke-width="0.8" stroke-miterlimit="10" stroke-linecap="round" stroke-linejoin="round"/>
<path d="M383.775 65.793L387.668 69.686" stroke="#060305" stroke-width="0.8" stroke-miterlimit="10" stroke-linecap="round" stroke-linejoin="round"/>
</g>
<defs>
<clipPath id="clip0_17_476">
<rect width="500" height="500" fill="white"/>
</clipPath>
</defs>
</svg>
