<svg width="226" height="226" viewBox="0 0 226 226" fill="none" xmlns="http://www.w3.org/2000/svg">
<path d="M78.8089 225.091C70.7649 227.994 70.4489 177.52 71.9819 171.465C79.7659 107.927 89.6469 60.574 43.9029 7.25999C79.1289 54.972 70.7709 85.671 60.6069 139.315C55.3889 167.904 58.0139 196.743 62.4719 225.197C61.7089 225.197 60.9649 225.197 60.1199 225.197C52.2169 189.263 54.6809 152.486 61.8529 116.691C73.3709 70.411 67.1089 37.694 36.1639 0.652997C38.9459 0.0059973 40.9449 0.554018 42.8889 2.69902C67.6539 31.215 84.6079 68.629 81.1589 106.919C78.9159 146.213 66.8149 186.325 78.8089 225.091Z" fill="black"/>
<path d="M17.8109 225.248C16.7549 225.248 15.9159 225.248 14.6509 225.248C16.5549 182.022 36.3059 143.031 44.2149 101.13C48.5909 66.502 42.4219 27.287 18.3819 0.665994C20.1109 0.0529942 21.1639 0.584985 22.2319 1.79398C42.1369 24.649 47.8309 56.33 48.0759 85.818C45.9819 133.802 19.6759 177.036 17.8109 225.248Z" fill="black"/>
<path d="M12.4039 0.166C43.8449 33.106 36.6289 83.2 25.4959 123.35C16.8589 157.257 8.3549 191.365 0.971898 225.445C0.749898 225.396 0.527906 225.347 0.304906 225.299C-0.758094 216.121 1.12292 207.172 3.40592 198.39C9.38692 174.63 15.6369 150.936 21.5129 127.15C33.5989 83.592 42.1509 39.363 12.2249 0.617996C12.2849 0.467996 12.3439 0.317 12.4039 0.166Z" fill="black"/>
<path d="M42.3629 225.136C36.9889 228.352 38.6449 189.265 38.7709 185.292C42.7929 120.483 79.5319 56.729 27.7199 0.608016C29.3259 -0.0919844 30.2059 0.875014 31.1519 1.93101C50.7359 24.4 60.5649 54.862 57.8559 84.519C51.9759 131.31 36.0239 177.447 42.3629 225.136Z" fill="black"/>
<path d="M68.4899 0.313004C100.091 17.084 131.448 45.823 137.193 82.962C145.534 131.281 142.575 184.604 174.396 225.112C164.214 223.705 149.817 184.233 147.79 173.774C137.483 136.14 143.065 95.262 127.498 59.016C114.968 33.578 91.3549 16.176 68.3259 0.797012C68.3799 0.635012 68.4349 0.474004 68.4899 0.313004Z" fill="black"/>
<path d="M78.8059 0.0770111C105.562 8.64801 126.006 29.352 140.021 53.274C152.912 76.874 152.13 104.756 152.956 130.887C151.52 168.754 171.876 199.94 198.551 224.901C198.435 225.143 198.319 225.385 198.202 225.627C197.028 225.232 195.534 225.17 194.727 224.394C170.947 202.049 151.593 172.573 151.321 138.96C150.104 112.186 151.886 84.564 140.914 59.385C128.497 32.97 105.215 12.405 78.6599 0.848007C78.7069 0.591007 78.7569 0.334011 78.8059 0.0770111Z" fill="black"/>
<path d="M224.841 220.43C96.4379 137.792 220.421 71.123 84.4859 0.172012C206.559 53.723 120.535 129.337 196.709 195.961C205.291 203.405 214.575 210.043 223.593 216.98C224.726 217.852 225.567 218.604 224.841 220.43Z" fill="black"/>
<path d="M63.3919 0.297012C79.2949 8.12901 92.9969 20.727 104.463 34.372C120.655 53.819 118.602 80.121 122.197 103.735C126.999 146.122 137.059 188.048 159.021 225.083C158.854 225.236 158.686 225.389 158.519 225.542C133.859 190.962 126.227 147.108 120.232 105.804C115.75 49.096 112.145 33.976 63.2099 0.759018C63.2699 0.606018 63.3309 0.452012 63.3919 0.297012Z" fill="black"/>
<path d="M109.784 225.123C108.11 225.676 107.248 225.237 106.51 223.793C90.2599 193.025 86.2509 157.816 88.2969 123.518C92.6009 78.185 78.6349 31.872 44.4129 0.780014C44.5219 0.576014 44.6299 0.372007 44.7389 0.167007C73.8839 23.48 90.3049 62.536 90.5819 99.8C89.0749 142.693 87.3179 186.705 109.784 225.123Z" fill="black"/>
<path d="M141.643 225.134C139.769 225.72 138.869 225.039 138.002 223.71C106.747 179.655 106.745 125.098 103.272 73.438C101.513 41.264 77.4569 20.366 55.3389 0.302002C145.224 58.839 75.8849 130.509 141.643 225.134Z" fill="black"/>
<path d="M50.9199 0C87.7039 24.233 101.406 72.095 99.5149 114.35C97.7519 152.131 96.5649 191.622 117.097 225.09C115.661 225.607 114.787 225.408 114.042 224.041C98.3139 196.127 95.5519 163.518 96.9819 132.093C101.748 83.896 91.1719 31.318 50.6109 0.727005C50.7139 0.484005 50.8169 0.242 50.9199 0Z" fill="black"/>
<path d="M224.599 193.627C124.795 110.068 210.809 65.255 92.7699 0.771011C92.8209 0.596011 92.8709 0.42001 92.9209 0.24501C129.255 15.175 161.202 47.075 167.226 87.306C169.228 99.201 171.41 111.113 174.439 122.777C181.155 152.704 207.227 170.771 225.555 193.041C225.237 193.236 224.918 193.432 224.599 193.627Z" fill="black"/>
<path d="M224.367 167.104C149.388 113.265 190.319 42.247 110.096 0.781998C110.177 0.551998 110.258 0.322002 110.34 0.0930023C186.548 31.719 156.619 119.805 223.611 163.406C225.19 164.591 225.172 164.615 225.004 166.603C224.791 166.769 224.579 166.937 224.367 167.104Z" fill="black"/>
<path d="M3.5639 0.139999C49.5659 25.833 9.3269 114.063 0.351898 153.605C1.5479 107.355 49.6429 38.074 3.5639 0.139999Z" fill="black"/>
<path d="M224.606 140.02C157.972 93.643 193.839 35.821 123.588 0.0750122C188.707 22.903 165.061 99.829 225.276 139.222C225.053 139.487 224.83 139.753 224.606 140.02Z" fill="black"/>
<path d="M143.548 0.072998C191.749 25.147 181.31 94.845 225.287 124.571C225.141 124.76 224.995 124.949 224.849 125.138C179.63 96.948 190.424 27.682 143.331 0.798996C143.403 0.557996 143.475 0.314998 143.548 0.072998Z" fill="black"/>
<path d="M1.0279 6.537C31.7079 33.078 8.47991 77.661 0.374912 109.813C-0.355088 104.533 0.685903 99.96 2.0159 95.298C9.9229 63.891 25.2959 34.025 1.0279 6.537Z" fill="black"/>
<path d="M224.803 91.331C180.225 66.846 199.48 32.771 159.884 0.0149994C193.315 17.554 186.383 66.773 218.756 85.321C221.15 86.986 224.179 88.03 225.393 90.884C225.196 91.034 224.999 91.183 224.803 91.331Z" fill="black"/>
<path d="M0.392905 86.561C-0.747095 79.9 1.2359 73.84 2.6419 67.686C5.7089 52.485 10.1639 34.643 0.878898 20.743C0.410898 20.064 0.280898 19.153 0.253898 18.239C17.0109 33.295 4.94791 67.887 0.392905 86.561Z" fill="black"/>
<path d="M224.869 59.686C199.811 46.154 201.442 17.248 179.654 0.766012C181.628 0.179012 181.71 0.19601 183.183 1.47701C195.316 11.396 200.56 26.022 207.242 39.638C211.092 46.844 216.818 52.36 223.573 56.856C224.526 57.492 225.645 58.035 224.869 59.686Z" fill="black"/>
<path d="M224.853 78.212C195.988 60.849 198.589 20.009 171.361 0.738998C171.471 0.536998 171.581 0.336003 171.691 0.134003C193.431 12.848 196.071 40.287 208.739 60.023C212.861 67.331 219.228 72.31 225.342 77.759C225.179 77.91 225.016 78.061 224.853 78.212Z" fill="black"/>
<path d="M224.481 46.377C212.858 31.407 206.906 11.944 190.809 0.776993C190.899 0.569993 190.989 0.363006 191.079 0.156006C206.716 6.77401 215.814 32.125 225.354 45.945C225.062 46.089 224.771 46.233 224.481 46.377Z" fill="black"/>
<path d="M208.085 0.111008C213.16 2.85701 224.479 23.208 225.015 29.063C219.219 19.605 215.866 8.69501 207.617 0.779007C207.772 0.557007 207.928 0.334008 208.085 0.111008Z" fill="black"/>
<path d="M224.758 17.108C222.082 11.024 218.968 5.235 213.814 0.824997C213.935 0.618997 214.056 0.413008 214.176 0.208008C215.128 0.626008 216.458 0.777997 216.97 1.506C219.833 6.523 224.947 10.911 225.288 16.9C225.111 16.969 224.935 17.038 224.758 17.108Z" fill="black"/>
</svg>
