<svg width="433" height="402" viewBox="0 0 433 402" fill="none" xmlns="http://www.w3.org/2000/svg">
<path d="M388.267 401.947H8.9C3.985 401.947 0 397.962 0 393.047C0 388.132 3.985 384.147 8.9 384.147H388.267C393.182 384.147 397.167 388.132 397.167 393.047C397.167 397.963 393.182 401.947 388.267 401.947Z" fill="#E6EDFF"/>
<path d="M391.562 227.419C391.401 227.323 391.239 227.227 391.076 227.133C379.566 220.432 366.001 217.852 352.922 214.625C340.774 211.628 327.13 207.6 317.8 198.745C306.46 187.983 308.041 173.158 312.402 159.68C316.979 145.536 321.3 131.295 319.276 116.276C316.97 99.164 309.265 82.649 297.024 69.811C278.03 49.89 248.601 39.329 220.41 42.318C182.577 46.329 151.509 72.41 127.921 100.663C112.444 119.202 103.306 140.254 85.653 157.858C68.202 175.26 48.597 190.942 33.908 210.659C14.355 236.906 4.836 270.377 11.182 301.917C17.528 333.456 40.712 362.238 72.461 373.623C92.682 380.874 114.858 381.022 136.484 381.078C181.4 381.195 226.377 381.311 271.148 377.904C300.613 375.662 330.469 371.758 357.313 360.056C384.157 348.354 407.919 327.809 416.72 301.128C425.465 274.62 416.366 242.209 391.562 227.419Z" fill="#FF8A05" fill-opacity="0.56"/>
<path d="M30.652 164.888C29.939 162.347 28.654 160.141 26.794 158.269C25.782 157.487 24.77 156.705 23.758 155.924C21.418 154.567 18.895 153.884 16.187 153.876H15.445C13.38 153.798 11.454 154.229 9.666 155.168C7.806 155.773 6.197 156.807 4.839 158.27C3.376 159.629 2.342 161.238 1.737 163.097C0.798 164.885 0.367 166.811 0.445 168.876C0.624 170.205 0.802003 171.534 0.981003 172.864C1.694 175.405 2.979 177.611 4.839 179.483C5.851 180.265 6.863 181.047 7.875 181.828C10.215 183.185 12.738 183.867 15.446 183.876H16.188C18.253 183.954 20.18 183.523 21.967 182.584C23.827 181.979 25.436 180.945 26.794 179.482C28.257 178.123 29.291 176.514 29.896 174.655C30.835 172.867 31.266 170.941 31.188 168.876C31.009 167.547 30.83 166.218 30.652 164.888Z" fill="#E6EDFF"/>
<path d="M399.868 182.127C417.769 182.127 432.28 167.616 432.28 149.715C432.28 131.814 417.769 117.303 399.868 117.303C381.967 117.303 367.456 131.814 367.456 149.715C367.456 167.616 381.967 182.127 399.868 182.127Z" fill="#FF8A05" fill-opacity="0.56"/>
<path d="M278.602 0.224003C277.205 0.500003 275.856 0.907002 274.572 1.434C274.65 1.533 274.735 1.624 274.804 1.733C275.857 3.417 275.346 5.635 273.662 6.689C271.978 7.743 269.759 7.231 268.706 5.548C268.632 5.429 268.583 5.303 268.524 5.179C267.461 6.107 266.49 7.136 265.625 8.251C265.75 8.3 265.876 8.339 265.997 8.403C267.751 9.334 268.418 11.511 267.486 13.266C266.555 15.02 264.377 15.687 262.623 14.755C262.485 14.682 262.367 14.589 262.243 14.501C261.785 15.83 261.453 17.215 261.259 18.642C261.407 18.618 261.551 18.586 261.705 18.581C263.69 18.511 265.356 20.063 265.426 22.047C265.496 24.032 263.944 25.698 261.96 25.768C261.786 25.774 261.618 25.753 261.45 25.735C261.725 27.164 262.137 28.542 262.675 29.854C262.804 29.745 262.931 29.633 263.079 29.541C264.763 28.488 266.981 28.999 268.035 30.683C269.088 32.367 268.577 34.586 266.893 35.639C266.733 35.739 266.564 35.812 266.396 35.885C267.344 36.976 268.397 37.972 269.541 38.856C269.601 38.685 269.661 38.514 269.748 38.349C270.68 36.595 272.857 35.928 274.611 36.86C276.365 37.791 277.032 39.969 276.1 41.723C276.006 41.9 275.891 42.059 275.773 42.213C277.13 42.679 278.545 43.015 280.004 43.205C279.968 43.02 279.934 42.835 279.927 42.641C279.857 40.656 281.409 38.99 283.394 38.92C285.379 38.85 287.045 40.402 287.115 42.386C287.122 42.589 287.102 42.785 287.076 42.98C288.521 42.696 289.912 42.27 291.236 41.718C291.113 41.576 290.99 41.433 290.888 41.269C289.835 39.585 290.346 37.367 292.03 36.313C293.714 35.26 295.932 35.771 296.986 37.455C297.089 37.62 297.165 37.794 297.239 37.968C298.324 37.013 299.313 35.952 300.189 34.802C300.022 34.743 299.855 34.685 299.695 34.6C297.941 33.668 297.274 31.491 298.206 29.737C299.138 27.983 301.314 27.316 303.069 28.248C303.229 28.333 303.37 28.439 303.511 28.543C303.963 27.199 304.286 25.798 304.469 24.355C304.31 24.382 304.153 24.415 303.987 24.421C302.002 24.491 300.336 22.939 300.266 20.955C300.196 18.97 301.748 17.304 303.733 17.234C303.895 17.228 304.05 17.25 304.207 17.265C303.922 15.852 303.502 14.491 302.959 13.194C302.846 13.285 302.741 13.382 302.615 13.461C300.931 14.514 298.713 14.003 297.659 12.319C296.606 10.635 297.117 8.416 298.801 7.363C298.925 7.286 299.056 7.234 299.185 7.174C298.25 6.116 297.214 5.151 296.094 4.293C296.046 4.414 296.009 4.537 295.946 4.655C295.014 6.409 292.837 7.076 291.083 6.144C289.329 5.213 288.662 3.036 289.594 1.281C289.658 1.161 289.741 1.059 289.816 0.949001C288.5 0.505001 287.129 0.185 285.718 0C285.735 0.121 285.763 0.238003 285.768 0.363003C285.838 2.348 284.286 4.014 282.301 4.084C280.316 4.154 278.65 2.602 278.58 0.618C278.572 0.482 278.592 0.355003 278.602 0.224003ZM282.393 9.105C289.295 8.861 295.088 14.258 295.332 21.159C295.576 28.061 290.179 33.854 283.278 34.098C276.376 34.342 270.583 28.945 270.339 22.044C270.095 15.143 275.492 9.349 282.393 9.105Z" fill="#E6EDFF"/>
<path d="M47.63 129.023C69.9887 129.023 88.114 112.39 88.114 91.873C88.114 71.3556 69.9887 54.723 47.63 54.723C25.2713 54.723 7.146 71.3556 7.146 91.873C7.146 112.39 25.2713 129.023 47.63 129.023Z" fill="#E6EDFF"/>
<path d="M46.67 92.446L15.096 82.34C13.861 85.589 13.23 89.005 13.23 92.446C13.23 109.28 28.325 123.132 46.67 123.132C52.731 123.132 58.679 121.62 63.877 118.758L46.67 92.446Z" fill="#628AEC"/>
<path d="M48.403 91.873L65.83 118.062C70.721 115.322 74.762 111.473 77.566 106.888C80.37 102.302 81.843 97.131 81.843 91.873H48.403Z" fill="#FF8A05" fill-opacity="0.56"/>
<path d="M48.594 90.395L82.03 89.971C81.967 85.796 80.976 81.676 79.118 77.864C77.26 74.052 74.573 70.629 71.223 67.803L48.594 90.395Z" fill="#FEFEFF"/>
<path d="M144.58 55.536H132.474V84.636H144.58V55.536Z" fill="#628AEC"/>
<path d="M163.295 41.295H151.189V84.635H163.295V41.295Z" fill="#628AEC"/>
<path d="M182.011 21.642H169.905V84.636H182.011V21.642Z" fill="#628AEC"/>
<path d="M200.726 49.193H188.62V84.635H200.726V49.193Z" fill="#628AEC"/>
<path d="M125.987 22.25V84.368H208.722" stroke="#628AEC" stroke-width="0.8763" stroke-miterlimit="10"/>
<path d="M311.924 40.951C309.176 41.493 306.526 42.293 303.999 43.331C304.152 43.526 304.32 43.704 304.455 43.919C306.526 47.229 305.521 51.592 302.21 53.663C298.899 55.734 294.536 54.729 292.466 51.418C292.32 51.184 292.224 50.936 292.108 50.693C290.019 52.518 288.108 54.54 286.408 56.732C286.653 56.829 286.902 56.905 287.14 57.031C290.589 58.862 291.9 63.143 290.068 66.592C288.237 70.041 283.956 71.352 280.507 69.52C280.237 69.377 280.004 69.193 279.76 69.021C278.859 71.634 278.206 74.357 277.825 77.164C278.115 77.117 278.4 77.055 278.701 77.044C282.603 76.906 285.879 79.957 286.017 83.86C286.155 87.762 283.104 91.038 279.201 91.176C278.859 91.188 278.529 91.146 278.198 91.11C278.738 93.92 279.55 96.629 280.606 99.209C280.86 98.995 281.109 98.775 281.4 98.594C284.711 96.523 289.073 97.528 291.144 100.839C293.215 104.15 292.21 108.512 288.9 110.583C288.585 110.78 288.254 110.924 287.922 111.066C289.787 113.211 291.856 115.17 294.105 116.907C294.222 116.571 294.34 116.233 294.513 115.909C296.345 112.46 300.625 111.149 304.074 112.981C307.522 114.812 308.833 119.093 307.002 122.542C306.817 122.891 306.591 123.202 306.359 123.506C309.026 124.422 311.809 125.082 314.678 125.457C314.607 125.094 314.54 124.729 314.526 124.348C314.388 120.446 317.44 117.17 321.342 117.032C325.245 116.894 328.52 119.945 328.659 123.848C328.673 124.247 328.633 124.632 328.583 125.015C331.424 124.457 334.159 123.619 336.763 122.533C336.52 122.254 336.28 121.973 336.078 121.65C334.007 118.339 335.012 113.977 338.323 111.906C341.633 109.835 345.996 110.84 348.067 114.151C348.27 114.476 348.42 114.817 348.565 115.159C350.699 113.281 352.642 111.195 354.365 108.935C354.037 108.819 353.709 108.706 353.393 108.538C349.944 106.706 348.633 102.426 350.465 98.977C352.296 95.528 356.576 94.217 360.026 96.049C360.34 96.216 360.617 96.424 360.895 96.63C361.784 93.988 362.42 91.233 362.778 88.396C362.466 88.45 362.157 88.514 361.831 88.525C357.929 88.663 354.653 85.612 354.515 81.709C354.377 77.807 357.429 74.531 361.331 74.393C361.649 74.382 361.955 74.424 362.263 74.454C361.702 71.676 360.876 68.999 359.81 66.449C359.589 66.628 359.381 66.819 359.133 66.974C355.823 69.045 351.46 68.04 349.389 64.729C347.318 61.419 348.323 57.056 351.634 54.985C351.877 54.833 352.136 54.732 352.389 54.613C350.55 52.534 348.515 50.636 346.311 48.948C346.216 49.186 346.143 49.428 346.02 49.659C344.188 53.108 339.908 54.419 336.459 52.587C333.01 50.756 331.699 46.475 333.531 43.026C333.656 42.79 333.819 42.589 333.966 42.373C331.379 41.5 328.684 40.871 325.909 40.506C325.942 40.744 325.998 40.974 326.006 41.22C326.144 45.122 323.093 48.398 319.19 48.536C315.288 48.674 312.012 45.623 311.874 41.72C311.864 41.457 311.905 41.207 311.924 40.951ZM319.229 54.187C335.132 53.624 348.481 66.06 349.044 81.963C349.607 97.866 337.171 111.215 321.268 111.778C305.365 112.341 292.016 99.905 291.453 84.002C290.89 68.099 303.326 54.75 319.229 54.187Z" fill="#FF8A05" fill-opacity="0.56"/>
<path d="M270.41 77.35C269.541 76.715 268.462 76.178 268.126 75.155C267.585 73.507 269.351 71.792 268.915 70.114C268.549 68.704 266.875 68.135 265.435 67.92C263.994 67.705 262.342 67.506 261.519 66.304C260.834 65.304 260.995 63.979 260.835 62.777C260.513 60.354 258.653 58.205 256.301 57.539C253.797 56.829 251.617 59.099 249.528 60.01C247.248 61.005 245.854 62.945 245.344 65.408C244.856 67.761 245.205 70.205 245.719 72.553C246.233 74.901 246.913 77.226 247.091 79.623C247.29 82.292 246.693 84.638 245.96 87.167C245.465 88.874 245.35 91.279 246.269 92.853C247.176 94.407 249.011 95.132 250.74 95.63C254.094 96.596 257.634 97.122 261.085 96.6C264.352 96.106 267.529 94.582 269.654 92.066C271.167 90.803 272.381 89.216 273.062 87.37C274.346 83.892 273.403 79.539 270.41 77.35Z" fill="#485070"/>
<path d="M253.045 65.242C253.469 66.693 253.275 68.313 252.519 69.622C252.271 70.052 251.879 70.491 251.384 70.456C250.814 70.416 250.496 69.791 250.316 69.249C249.819 67.755 249.504 66.2 249.38 64.631C249.304 63.668 249.484 61.932 250.851 62.265C251.911 62.523 252.774 64.315 253.045 65.242Z" fill="#FF6EA1"/>
<path d="M253.042 88.789C252.035 92.301 246.323 93.998 243.036 89.949C242.633 89.452 242.259 88.929 241.896 88.402C238.351 89.098 233.08 90.642 230.712 93.517C229.947 94.446 229.574 95.628 229.234 96.783C227.996 100.988 226.97 105.255 226.162 109.563C226.07 110.055 225.982 110.575 226.148 111.047C226.352 111.628 226.89 112.012 227.374 112.393C232.272 116.255 233.559 122.49 235.17 128.127C237.616 136.682 238.744 148.514 241.19 157.069C249.203 157.685 282.588 150.111 286.605 146.594C280.845 136.222 276.182 117.51 274.356 104.491C273.582 98.975 271.417 93.721 269.307 88.556C268.813 87.347 268.366 84.556 267.451 83.773C266.232 82.731 254.598 84.492 253.366 84.533C253.41 85.22 253.442 85.907 253.46 86.595C253.482 87.395 253.24 88.099 253.042 88.789Z" fill="#FF6EA1"/>
<path d="M241.143 83.13C240.756 81.911 240.233 80.748 239.569 79.675C241.559 79.612 243.423 78.971 245.047 77.812C245.846 77.242 246.566 76.571 247.252 75.871C247.496 75.622 247.868 74.988 248.258 74.533C247.731 75.148 249.03 78.614 249.291 79.322C249.835 80.801 250.6 82.27 251.661 83.447C252.713 84.614 253.402 84.811 253.587 86.461C253.782 88.203 253.416 90.117 252.823 91.75C252.452 92.771 251.913 93.792 250.998 94.378C249.932 95.061 248.547 95.025 247.322 94.704C245.251 94.162 242.41 92.435 241.67 90.272C241.282 89.138 241.717 88.557 241.821 87.396C241.947 85.973 241.57 84.475 241.143 83.13Z" fill="#FFC1A6"/>
<path d="M241.841 86.828C241.84 86.711 241.84 86.595 241.831 86.477C241.735 85.344 241.486 84.211 241.143 83.13C240.756 81.911 240.233 80.748 239.569 79.675C241.559 79.612 243.423 78.971 245.047 77.812C245.846 77.242 246.566 76.571 247.252 75.871C247.496 75.622 247.868 74.988 248.258 74.533C248.317 75.176 248.407 75.812 248.522 76.44C248.249 80.535 245.445 84.959 241.841 86.828Z" fill="#E3856D"/>
<path d="M228.65 72.017C229.442 75.239 231.322 78.184 233.911 80.258C234.617 80.824 235.393 81.335 236.269 81.559C237.145 81.783 238.141 81.682 238.851 81.121C239.86 80.322 240.03 78.88 240.104 77.595C240.243 75.189 240.322 72.755 239.875 70.386C239.427 68.018 238.408 65.693 236.639 64.057C235.191 62.717 231.217 60.775 229.47 62.619C227.569 64.625 228.06 69.619 228.65 72.017Z" fill="#485070"/>
<path d="M230.716 66.35C231.056 64.085 233.62 65.767 235.699 64.805C237.508 63.969 238.876 63.246 240.916 63.389C242.73 63.517 244.54 64.227 245.807 65.559C246.149 65.918 246.463 66.285 246.753 66.655C247.558 67.992 248.308 69.365 248.861 70.829C248.868 70.862 248.875 70.894 248.882 70.927C249.072 73.834 248.374 76.579 247.004 78.946C245.672 81.248 243.286 82.853 240.627 82.798C239.21 82.768 237.829 82.301 236.569 81.221C235.311 80.143 234.387 78.73 233.586 77.28C232.366 75.073 230.341 68.845 230.716 66.35Z" fill="#FFC1A6"/>
<path d="M240.618 70.605C238.148 70.02 235.597 69.664 233.326 68.541C231.671 67.722 230.145 66.368 229.4 64.65C228.64 62.897 229.164 61.671 230.166 60.155C231.592 57.997 233.9 56.397 236.396 55.74C238.906 55.08 242.049 56.053 244.457 56.891C246.131 57.473 247.728 58.389 248.858 59.754C250.819 62.122 251.487 66.205 251.332 69.199C251.266 70.476 250.922 71.629 250.576 72.842C250.292 73.839 249.783 74.971 248.623 75.115C247.827 75.214 246.234 72.944 245.421 72.438C244.141 71.641 242.693 71.131 241.239 70.758C241.033 70.705 240.825 70.654 240.618 70.605Z" fill="#485070"/>
<path d="M236.822 73.324C236.863 73.722 237.219 74.012 237.617 73.972C238.015 73.931 238.306 73.575 238.265 73.177C238.224 72.779 237.868 72.489 237.47 72.529C237.071 72.569 236.781 72.925 236.822 73.324Z" fill="#485070"/>
<path d="M237.902 71.246C237.416 71.145 236.897 71.213 236.454 71.436" stroke="#485070" stroke-width="0.75" stroke-miterlimit="10" stroke-linecap="round"/>
<path d="M232.335 74.531C232.376 74.929 232.732 75.219 233.13 75.179C233.528 75.138 233.818 74.782 233.778 74.384C233.737 73.986 233.381 73.696 232.983 73.736C232.584 73.776 232.294 74.132 232.335 74.531Z" fill="#485070"/>
<path d="M233.415 72.453C232.929 72.352 232.41 72.42 231.967 72.643" stroke="#485070" stroke-width="0.75" stroke-miterlimit="10" stroke-linecap="round"/>
<path d="M234.958 74.614C235.106 75.239 235 75.92 234.669 76.471C234.583 76.614 234.479 76.767 234.504 76.932C234.531 77.109 234.709 77.232 234.887 77.257C235.065 77.282 235.243 77.23 235.415 77.178" stroke="#485070" stroke-width="0.75" stroke-miterlimit="10" stroke-linecap="round"/>
<path d="M238.618 78.24C238.009 78.898 237.077 79.241 236.187 79.136" stroke="#485070" stroke-width="0.75" stroke-miterlimit="10" stroke-linecap="round"/>
<path d="M249.051 70.753C249.201 72.215 248.136 73.522 246.673 73.672C245.211 73.822 243.904 72.757 243.754 71.295C243.604 69.832 244.669 68.526 246.131 68.376C247.594 68.226 248.901 69.29 249.051 70.753Z" fill="#FFC1A6"/>
<path d="M246.802 69.837C246.414 69.827 246.026 70.03 245.814 70.355C245.602 70.68 245.571 71.116 245.737 71.468C245.944 71.235 246.299 71.146 246.591 71.255C246.883 71.363 247.095 71.661 247.101 71.973" stroke="#485070" stroke-width="0.75" stroke-miterlimit="10" stroke-linecap="round" stroke-linejoin="round"/>
<path d="M310.78 379.62H99.828C95.001 379.62 91.088 375.707 91.088 370.88V252.519C91.088 247.692 95.001 243.779 99.828 243.779H310.78C315.607 243.779 319.52 247.692 319.52 252.519V370.88C319.52 375.707 315.607 379.62 310.78 379.62Z" fill="#DCE4FF" stroke="#485070" stroke-width="0.75" stroke-miterlimit="10"/>
<path d="M336.43 379.793H74.178C74.178 385.815 79.06 390.697 85.082 390.697H325.527C331.548 390.696 336.43 385.814 336.43 379.793Z" fill="#BAC5EF" stroke="#485070" stroke-width="0.75" stroke-miterlimit="10"/>
<path d="M307.208 375.356H103.399C99.627 375.356 96.569 372.298 96.569 368.526V255.943C96.569 252.171 99.627 249.113 103.399 249.113H307.208C310.98 249.113 314.038 252.171 314.038 255.943V368.526C314.038 372.298 310.98 375.356 307.208 375.356Z" fill="#545D78"/>
<path d="M208.343 246.332C208.343 247.267 207.585 248.025 206.65 248.025C205.715 248.025 204.957 247.267 204.957 246.332C204.957 245.397 205.715 244.639 206.65 244.639C207.585 244.639 208.343 245.397 208.343 246.332Z" fill="#333333"/>
<path d="M118.992 120.987L118.992 374.624H291.615V120.987H118.992Z" fill="#FEFEFF"/>
<path d="M221.156 354.496L198.185 325.877L178.209 351.474L160.893 332.763L163.156 330.668L178.009 346.717L198.151 320.908L220.522 348.78L233.506 322.268L260.917 317.421L261.454 320.458L235.587 325.032L221.156 354.496Z" fill="#E6EDFF"/>
<path d="M265.145 318.939C265.145 316.752 263.373 314.98 261.186 314.98C258.999 314.98 257.227 316.753 257.227 318.939C257.227 321.125 259 322.898 261.186 322.898C263.372 322.898 265.145 321.126 265.145 318.939Z" fill="#FF6EA1"/>
<path d="M224.963 351.638C224.963 349.451 223.19 347.679 221.004 347.679C218.817 347.679 217.045 349.452 217.045 351.638C217.045 353.825 218.818 355.597 221.004 355.597C223.191 355.597 224.963 353.825 224.963 351.638Z" fill="#628AEC"/>
<path d="M238.044 323.65C238.044 321.463 236.272 319.691 234.085 319.691C231.899 319.691 230.126 321.464 230.126 323.65C230.126 325.837 231.899 327.609 234.085 327.609C236.272 327.609 238.044 325.836 238.044 323.65Z" fill="#FFB861"/>
<path d="M198.017 327.609C200.203 327.609 201.976 325.836 201.976 323.65C201.976 321.463 200.203 319.691 198.017 319.691C195.83 319.691 194.058 321.463 194.058 323.65C194.058 325.836 195.83 327.609 198.017 327.609Z" fill="#FFB861"/>
<path d="M178.581 352.582C180.767 352.582 182.54 350.809 182.54 348.623C182.54 346.436 180.767 344.664 178.581 344.664C176.395 344.664 174.622 346.436 174.622 348.623C174.622 350.809 176.395 352.582 178.581 352.582Z" fill="#FF6EA1"/>
<path d="M166.842 332.467C166.842 330.28 165.069 328.508 162.883 328.508C160.697 328.508 158.924 330.281 158.924 332.467C158.924 334.654 160.697 336.426 162.883 336.426C165.069 336.426 166.842 334.653 166.842 332.467Z" fill="#3FD4C7"/>
<path d="M145.463 307.454V361.444H265.942" stroke="#485070" stroke-width="0.75" stroke-miterlimit="10"/>
<path d="M173.435 221.268H155.048V263.98H173.435V221.268Z" fill="#FFB861"/>
<path d="M201.861 200.366H183.474V263.981H201.861V200.366Z" fill="#FF6EA1"/>
<path d="M151.619 209.028C173.695 198.981 193.556 184.104 209.417 165.756" stroke="#485070" stroke-width="0.75" stroke-miterlimit="10" stroke-linecap="round"/>
<path d="M211.1 163.78L209.791 167.507L209.249 165.866L207.556 165.524L211.1 163.78Z" fill="#485070"/>
<path d="M230.288 171.519H211.901V263.98H230.288V171.519Z" fill="#3FD4C7"/>
<path d="M258.714 211.958H240.327V263.98H258.714V211.958Z" fill="#628AEC"/>
<path d="M144.227 173.242V264.12H267.082" stroke="#485070" stroke-width="0.75" stroke-miterlimit="10"/>
<path d="M266.895 272.892H143.526V279.105H266.895V272.892Z" fill="#E6EDFF"/>
<path d="M242.132 149.907H167.994V156.12H242.132V149.907Z" fill="#E6EDFF"/>
<path d="M266.748 139.056H143.379V145.269H266.748V139.056Z" fill="#E6EDFF"/>
<path d="M266.895 284.282H143.526V290.495H266.895V284.282Z" fill="#E6EDFF"/>
<path d="M266.895 295.672H143.526V301.885H266.895V295.672Z" fill="#E6EDFF"/>
<path d="M262.221 84.04C260.783 84.379 259.356 84.78 257.938 85.18C257.698 85.248 257.45 85.32 257.264 85.484C257.007 85.711 256.914 86.067 256.845 86.403C255.915 90.924 257.181 96.899 260.091 100.535C260.97 101.634 262.013 102.589 262.965 103.625C263.904 104.646 265.155 105.567 265.998 106.64C266.977 107.887 267.391 109.91 267.845 111.404C268.888 114.832 269.535 118.381 269.764 121.957C269.916 124.332 270.028 127.035 271.851 128.566C273.656 130.084 276.52 129.696 278.385 128.251C280.249 126.807 281.305 124.565 282.1 122.344C284.164 116.579 285.294 110.369 284.995 104.236C284.723 98.647 283.012 91.915 279.401 87.494C276.984 84.534 273.002 83.212 269.181 83.153C266.831 83.119 264.513 83.5 262.221 84.04Z" fill="#FF6EA1"/>
<path d="M265.64 117.528C266.967 110.348 268.294 103.169 269.622 95.989" stroke="#485070" stroke-width="0.75" stroke-miterlimit="10"/>
<path d="M267.027 97.339C267.486 98.512 267.945 99.684 268.404 100.857" stroke="#485070" stroke-width="0.75" stroke-miterlimit="10"/>
<path d="M239.975 133C240.47 132.822 240.998 132.717 241.565 132.704C246.415 132.599 251.154 132.097 256.049 131.605C259.326 131.276 262.605 131.087 265.87 131.04C268.504 131.002 271.553 131.575 274.117 130.851C276.832 130.084 278.679 129.323 280.037 127.077C280.694 125.99 281.287 124.88 281.813 123.753C282.123 123.089 282.415 122.38 282.273 121.716C282.063 120.73 280.973 120.131 279.903 119.738C277.628 118.902 276.222 117.6 273.611 117.333C270.96 117.062 268.165 117.407 265.493 117.968C260.291 119.06 255.086 119.511 249.98 121.03C244.211 122.746 238.696 125.147 233.243 127.585C231.246 128.478 229.185 129.423 227.741 130.91C225.525 133.191 225.279 136.587 227.175 138.719C227.722 139.334 228.565 139.879 229.522 139.709C230.479 139.539 231.119 138.281 230.316 137.907C235.569 139.931 235.708 134.532 239.975 133Z" fill="#FFC1A6"/>
<path d="M223.553 133.832L223.589 133.511C223.509 133.708 223.428 133.905 223.348 134.103C223.417 134.012 223.485 133.922 223.553 133.832Z" fill="#FF6EA1"/>
<path d="M237.174 93.224C236.873 92.659 236.438 92.184 235.838 91.833C234.143 90.842 230.58 92.366 229.054 93.207C228.728 93.386 228.411 93.577 228.098 93.798C226.262 94.961 224.649 96.551 223.238 98.097C222.749 98.632 222.272 99.178 221.8 99.723C214.745 107.869 210.189 116.844 211.33 127.752C211.574 130.088 212.04 132.607 213.78 134.184C215.162 135.437 217.176 135.859 219.011 135.528C220.754 135.213 222.336 134.272 223.639 133.067L223.588 133.513C223.675 133.301 223.761 133.088 223.848 132.876C226.631 130.177 227.281 126.443 227.955 122.808C227.957 122.8 227.958 122.792 227.96 122.783C230.171 117.356 232.382 111.928 234.593 106.501C235.65 103.905 239.062 96.774 237.174 93.224Z" fill="#FF6EA1"/>
<path d="M225.903 173.746C228.947 168.773 223.398 167.95 222.592 163.508C222.499 162.993 222.485 162.454 222.576 161.888C223.349 157.046 223.692 152.266 224.074 147.331C224.329 144.027 224.731 140.739 225.276 137.483C225.644 135.282 226.499 132.847 226.603 130.559C226.549 129.831 226.467 129.1 226.348 128.388C225.455 126.714 224.028 125.387 221.781 124.656C219.13 123.794 215.941 124.457 213.784 126.248C213.228 127.095 212.731 127.999 212.303 128.907C211.741 131.265 211.627 133.77 211.71 136.201C211.892 141.518 211.412 146.756 212.052 152.031C212.776 157.991 214.252 163.785 215.778 169.522C216.337 171.623 216.938 173.794 218.211 175.421C220.164 177.916 223.626 178.592 226.171 176.974C226.906 176.507 227.622 175.737 227.62 174.763C227.618 173.79 226.435 172.994 225.903 173.746Z" fill="#FFC1A6"/>
<path d="M226.329 128.542C227.752 122.028 230.337 115.769 233.926 110.149" stroke="#485070" stroke-width="0.75" stroke-miterlimit="10"/>
<path d="M231.371 114.142C232.239 113.583 233.107 113.023 233.974 112.464" stroke="#485070" stroke-width="0.75" stroke-miterlimit="10"/>
<path d="M77.055 239.591C80.777 243.845 82.303 249.581 83.568 254.953C85.203 261.897 86.838 268.841 88.473 275.784C88.857 277.414 89.243 279.058 89.29 280.732C89.366 283.418 88.595 286.836 87.965 289.423C87.156 292.744 85.169 292.539 82.211 292.245C77.533 291.78 71.169 290.365 68.012 286.551C66.511 284.738 66.028 282.314 65.596 280C65.001 276.818 64.407 273.636 63.812 270.455C61.382 257.455 58.953 244.045 61.702 231.109C68.253 232.084 73.23 235.219 77.055 239.591Z" fill="white"/>
<path d="M83.931 280.707C85.999 281.688 87.979 282.951 89.97 284.149C93.132 286.052 96.432 287.391 99.671 289.159C100.592 289.662 101.528 290.158 102.536 290.336C104.269 290.642 106.099 289.99 107.844 290.224C110.177 290.537 112.167 292.617 113.013 295.367C114.437 299.998 111.102 298.274 108.892 297.869C107.169 297.553 105.445 297.237 103.722 296.92C96.947 295.677 90.446 295.079 83.504 294.719C79.733 294.524 73.088 294.611 70.267 291.174C68.896 289.504 67.379 282.218 69.184 280.41C69.522 280.071 69.938 279.917 70.342 279.783C73.962 278.579 77.677 278.532 81.177 279.615C82.117 279.908 83.032 280.281 83.931 280.707Z" fill="#9C5240"/>
<path d="M81.479 334.276H15.335C13.164 334.276 11.403 332.516 11.403 330.344C11.403 328.173 13.163 326.412 15.335 326.412H81.479C83.65 326.412 85.411 328.172 85.411 330.344C85.411 332.516 83.651 334.276 81.479 334.276Z" fill="#485070"/>
<path d="M8.355 282.401V259.188C8.355 255.689 11.191 252.853 14.69 252.853H66.417C69.916 252.853 72.752 255.689 72.752 259.188V282.401C72.752 285.9 69.916 288.736 66.417 288.736H14.69C11.191 288.736 8.355 285.9 8.355 282.401Z" fill="#485070"/>
<path d="M20.599 282.901H16.599V330.641H20.599V282.901Z" fill="#485070"/>
<path d="M63.748 282.901H59.748V330.641H63.748V282.901Z" fill="#485070"/>
<path d="M48.335 332.299H44.335V390.288H48.335V332.299Z" fill="#485070"/>
<path d="M18.269 332.299H14.269V390.288H18.269V332.299Z" fill="#485070"/>
<path d="M82.386 332.299H78.386V390.288H82.386V332.299Z" fill="#485070"/>
<path d="M61.862 332.299H57.862V390.288H61.862V332.299Z" fill="#485070"/>
<path d="M122.403 352.651C120.135 353.127 118.577 353.242 115.898 353.619C112.002 354.168 108.094 354.624 104.175 354.962C105.197 362.011 106.127 368.209 106.363 369.456C107.387 374.854 106.822 388.383 109.232 393.517C112.165 393.882 114.705 393.398 117.447 393.173C118.903 379.642 120.099 366.063 122.403 352.651Z" fill="#CF9378"/>
<path d="M101.97 364.526C101.977 365.625 102.001 366.764 102.223 367.835C105.324 371.111 109.971 372.798 114.442 373.018C117.06 373.147 119.567 372.74 121.966 371.969C122.253 366.688 122.57 361.409 122.907 356.131C123.346 349.262 123.702 342.396 124.556 335.564C124.936 332.527 125.386 323.517 124.657 317.099C122.906 310.389 118.45 308.557 118.45 308.557C118.45 308.557 105.988 303.626 96.446 301.531C84.732 298.959 72.826 297.051 61.044 294.485C55.382 293.252 45.909 293.48 42.986 299.67C39.604 306.832 46.347 316.353 51.778 320.489C57.397 324.767 64.331 326.932 71.232 328.437C80.995 330.565 91.013 331.529 101.003 331.301C100.682 331.301 101.955 362.05 101.97 364.526Z" fill="#66A3F2"/>
<path d="M100.986 331.357C101.005 331.338 101.026 331.322 101.044 331.303C98.867 329.141 96.812 326.852 94.636 324.692C91.396 321.477 88.25 318.162 85.032 314.923C78.639 308.489 72.213 302.087 65.96 295.517C64.32 295.182 62.681 294.841 61.044 294.484C55.382 293.25 45.909 293.479 42.986 299.669C39.604 306.831 46.347 316.352 51.778 320.488C57.397 324.766 64.331 326.931 71.232 328.436C80.995 330.564 91.013 331.528 101.003 331.3C100.995 331.3 100.991 331.333 100.986 331.357Z" fill="#485070"/>
<path d="M101.075 333.262C101.085 330.132 101.511 326.309 101.521 323.179" stroke="#485070" stroke-width="0.3975" stroke-miterlimit="10"/>
<path d="M109.117 305.534C100.738 302.839 93.093 300.347 80.794 298.683" stroke="#485070" stroke-width="0.75" stroke-miterlimit="10"/>
<path d="M134.613 400.259H108.754C108.223 400.259 107.792 399.829 107.792 399.297V397.356H134.612V400.259H134.613Z" fill="#B3B3B3"/>
<path d="M134.236 398.146C134.329 398.011 134.419 397.873 134.489 397.72C135.139 396.29 134.377 394.567 133.131 393.552C131.885 392.537 130.258 392.069 128.682 391.627C125.314 390.682 122.075 389.781 118.603 389.306C117.689 389.181 107.924 388.286 107.966 387.845C107.815 390.307 107.664 392.769 107.513 395.232C107.451 396.252 107.195 397.254 107.502 398.146H134.236Z" fill="#485070"/>
<path d="M112.407 385.813C113.893 384.581 116.205 384.587 117.806 385.665C119.407 386.743 120.275 388.741 120.187 390.669C120.171 391.026 120.108 391.415 119.841 391.653C119.574 391.891 119.182 391.908 118.824 391.912C117.284 391.93 115.743 391.948 114.203 391.967C113.242 391.979 112.017 392.202 111.348 391.337C110.168 389.813 111.263 386.957 112.407 385.813Z" fill="#485070"/>
<path d="M122.565 390.014C121.662 389.919 120.731 390.498 120.416 391.35" stroke="#B3B3B3" stroke-width="0.75" stroke-miterlimit="10" stroke-linecap="round"/>
<path d="M123.124 392.359C123.597 391.579 124.488 391.07 125.4 391.058" stroke="#B3B3B3" stroke-width="0.75" stroke-miterlimit="10" stroke-linecap="round"/>
<path d="M126.515 392.726C126.737 392.16 127.325 391.759 127.932 391.759" stroke="#B3B3B3" stroke-width="0.75" stroke-miterlimit="10" stroke-linecap="round"/>
<path d="M77.957 349.009C74.524 349.493 71.078 349.889 67.627 350.211C70.236 363.045 71.44 376.112 73.568 389.027C76.498 389.016 79.17 388.396 82.285 388.464C82.878 384.553 84.072 361.331 85.909 347.711C82.757 348.49 81.171 348.556 77.957 349.009Z" fill="#CF9378"/>
<path d="M68.143 367.275C68.853 370.166 69.68 371.938 72.528 373.069C74.997 374.049 77.693 374.451 80.339 374.166C83.893 373.783 86.785 371.181 86.785 371.181C86.785 371.181 90.46 316.389 85.888 309.368C80.294 300.777 68.048 299.015 58.506 296.92C50.147 295.085 41.69 293.585 33.251 291.945C31.192 299.758 32.679 308.945 35.665 316.15C35.68 316.187 35.696 316.224 35.711 316.261C38.085 321.917 43.506 325.75 49.618 326.269C54.088 326.648 58.577 326.792 63.062 326.689C63.004 326.69 65.602 356.927 68.143 367.275Z" fill="#66A3F2"/>
<path d="M63.135 328.651C63.145 325.521 63.571 321.699 63.581 318.568" stroke="#485070" stroke-width="0.3975" stroke-miterlimit="10"/>
<path d="M99.692 399.84H73.833C73.302 399.84 72.871 399.41 72.871 398.878V396.937H99.691L99.692 399.84Z" fill="#B3B3B3"/>
<path d="M99.315 397.726C99.408 397.591 99.498 397.453 99.568 397.3C100.218 395.87 99.456 394.147 98.21 393.132C96.964 392.117 95.337 391.649 93.761 391.207C90.393 390.262 87.154 389.361 83.682 388.886C82.768 388.761 73.003 387.866 73.045 387.425C72.894 389.887 72.744 392.349 72.593 394.812C72.531 395.832 72.275 396.834 72.582 397.726H99.315Z" fill="#485070"/>
<path d="M77.485 385.393C78.971 384.161 81.283 384.167 82.884 385.245C84.485 386.323 85.353 388.321 85.265 390.249C85.249 390.606 85.186 390.995 84.919 391.233C84.652 391.471 84.26 391.488 83.902 391.492C82.362 391.51 80.821 391.528 79.281 391.547C78.32 391.559 77.095 391.782 76.426 390.917C75.247 389.393 76.341 386.537 77.485 385.393Z" fill="#485070"/>
<path d="M87.644 389.594C86.741 389.499 85.81 390.078 85.495 390.93" stroke="#B3B3B3" stroke-width="0.75" stroke-miterlimit="10" stroke-linecap="round"/>
<path d="M88.202 391.94C88.676 391.16 89.566 390.651 90.478 390.639" stroke="#B3B3B3" stroke-width="0.75" stroke-miterlimit="10" stroke-linecap="round"/>
<path d="M91.594 392.306C91.816 391.74 92.404 391.339 93.011 391.339" stroke="#B3B3B3" stroke-width="0.75" stroke-miterlimit="10" stroke-linecap="round"/>
<path d="M32.123 302.533C32.359 303.793 32.596 305.054 32.832 306.314C37.184 304.026 42.389 304.504 47.305 304.496C58.063 304.478 68.807 301.794 78.309 296.751C77.775 294.076 77.165 291.5 77.151 288.808C77.136 286.069 76.004 283.415 76.004 280.668C75.824 276.958 75.968 273.241 76.15 269.534C76.496 262.513 76.971 255.411 75.659 248.506C74.807 244.024 73.131 239.611 70.409 235.923C69.159 234.229 67.427 232.034 65.508 231.06C63.474 230.027 60.424 230.373 58.137 230.171C56.464 230.023 54.768 229.876 53.113 230.159C51.071 230.509 49.197 231.495 47.421 232.56C37.951 238.241 36.8 247.402 33.949 257.263C32.525 262.188 30.294 266.851 28.865 271.775C28.067 274.527 27.737 277.391 27.806 280.253C27.869 282.84 28.864 285.146 29.34 287.688C30.268 292.636 31.196 297.585 32.123 302.533Z" fill="white"/>
<path d="M58.911 239.177C60.661 240.667 62.997 241.449 65.291 241.312C66.087 241.265 66.908 241.097 67.537 240.607C68.166 240.117 68.543 239.239 68.256 238.495" stroke="#485070" stroke-width="0.3975" stroke-miterlimit="10" stroke-linecap="round"/>
<path d="M56.735 259.832C58.762 266.57 64.126 272.215 70.751 274.585" stroke="#485070" stroke-width="0.3975" stroke-miterlimit="10" stroke-linecap="round"/>
<path d="M62.872 265.057C64.589 267.116 67.12 268.477 69.784 268.773" stroke="#485070" stroke-width="0.3975" stroke-miterlimit="10" stroke-linecap="round"/>
<path d="M50.778 264.647C53.209 272.333 57.575 279.399 63.362 285.01" stroke="#485070" stroke-width="0.3975" stroke-miterlimit="10" stroke-linecap="round"/>
<path d="M72.574 238.8C75.294 243.481 75.329 246.144 75.94 250.274C76.623 254.893 76.937 259.567 76.876 264.236C76.774 272.067 75.044 279.241 76.793 287.008" stroke="#485070" stroke-width="0.3975" stroke-miterlimit="10"/>
<path d="M66.88 228.708C67.295 227.4 67.857 226.153 68.569 225.001C66.433 224.934 64.434 224.245 62.691 223.002C61.834 222.391 61.062 221.67 60.325 220.92C60.063 220.653 59.664 219.973 59.246 219.484C58.811 224.193 57.058 228.621 53.042 231.31C54.397 233.787 56.671 235.648 59.108 237.062C61.202 238.276 66.42 240.623 66.536 236.381C66.574 234.993 66.023 233.71 66.142 232.3C66.245 231.083 66.512 229.868 66.88 228.708Z" fill="#CF9378"/>
<path d="M66.131 232.675C66.132 232.55 66.132 232.425 66.142 232.298C66.245 231.082 66.512 229.867 66.88 228.707C67.295 227.399 67.857 226.152 68.569 225C66.433 224.933 64.434 224.244 62.691 223.001C61.834 222.39 61.062 221.669 60.325 220.919C60.063 220.652 59.664 219.972 59.246 219.483C59.182 220.173 59.086 220.856 58.963 221.529C59.255 225.924 62.264 230.671 66.131 232.675Z" fill="#9C5240"/>
<path d="M35.333 239.591C31.611 243.845 30.085 249.581 28.82 254.953C27.185 261.897 25.55 268.84 23.915 275.784C23.348 278.19 22.439 281.48 22.972 283.937C23.552 286.611 25.477 289.08 27.798 290.473C30.269 291.957 34.031 292.633 36.745 291.373C39.404 290.138 42.446 288.882 44.376 286.551C45.877 284.738 46.359 282.314 46.792 280C47.387 276.818 47.981 273.636 48.576 270.455C51.006 257.455 53.435 244.045 50.686 231.109C44.135 232.084 39.159 235.219 35.333 239.591Z" fill="white"/>
<path d="M50.817 252.499C45.41 253.907 45.894 260.827 45.405 265.094C44.681 271.398 43.479 277.647 41.81 283.77" stroke="#485070" stroke-width="0.3975" stroke-miterlimit="10"/>
<path d="M46.757 256.054C47.357 254.175 48.513 252.477 50.042 251.23" stroke="#485070" stroke-width="0.3975" stroke-miterlimit="10"/>
<path d="M43.562 281.965C46.462 282.599 49.307 283.526 52.154 284.387C56.674 285.754 61.253 286.543 65.844 287.765C67.149 288.112 68.473 288.451 69.823 288.464C72.144 288.486 74.385 287.547 76.706 287.496C79.809 287.428 82.841 289.16 84.528 291.737C87.368 296.077 82.661 294.915 79.698 294.871C77.388 294.837 75.078 294.804 72.768 294.77C63.687 294.637 55.099 295.098 45.989 295.864C41.04 296.28 32.412 297.44 28.009 294.504C25.87 293.077 22.344 286.132 24.308 284.056C24.676 283.667 25.184 283.448 25.682 283.25C30.137 281.477 34.96 280.831 39.745 281.334C41.03 281.47 42.301 281.69 43.562 281.965Z" fill="#CF9378"/>
<path d="M119.674 307.452H59.671C59.001 307.452 58.459 306.909 58.459 306.24V305.827C58.459 305.157 59.002 304.615 59.671 304.615H119.674C120.344 304.615 120.886 305.158 120.886 305.827V306.24C120.886 306.909 120.343 307.452 119.674 307.452Z" fill="#485070"/>
<path d="M127.196 307.452H73.849L78.491 276.798C78.652 275.734 79.556 274.94 80.605 274.94H129.723C130.991 274.94 131.946 276.083 131.751 277.369L127.196 307.452Z" fill="#757E96"/>
<path d="M104.928 294.112C106.886 294.112 108.473 292.525 108.473 290.567C108.473 288.609 106.886 287.022 104.928 287.022C102.97 287.022 101.383 288.609 101.383 290.567C101.383 292.525 102.97 294.112 104.928 294.112Z" fill="white"/>
<path d="M77.45 209.194C76.839 206.814 74.287 208.888 71.963 208.089C69.941 207.394 68.402 206.771 66.24 207.147C64.317 207.481 62.464 208.437 61.256 209.997C60.93 210.418 60.636 210.844 60.366 211.27C59.653 212.785 59.002 214.332 58.572 215.955C58.568 215.991 58.564 216.026 58.56 216.062C58.675 219.186 59.719 222.039 61.44 224.417C63.113 226.728 65.834 228.182 68.666 227.832C70.175 227.646 71.599 226.997 72.825 225.707C74.05 224.419 74.882 222.81 75.579 221.175C76.64 218.685 78.122 211.817 77.45 209.194Z" fill="#CF9378"/>
<path d="M66.196 211.53C66.219 211.425 66.236 211.306 66.264 211.172C66.473 210.179 66.681 209.187 66.89 208.194C69.4 210.069 72.124 212.742 75.373 213.821C77.831 214.637 80.604 213.73 82.16 211.681C82.442 211.31 82.654 210.916 82.863 210.502C82.957 210.316 83.2 209.519 83.297 209.453C82.428 210.05 81.174 209.621 80.472 208.834C79.77 208.048 79.457 207.002 79.056 206.027C78.113 203.734 76.564 201.669 74.524 200.261C72.484 198.853 69.945 198.133 67.484 198.427C65.937 198.612 64.438 199.21 63.194 200.148C62.579 200.611 62.004 201.163 61.555 201.79C61.347 202.081 60.464 203.674 60.821 203.982C60.271 203.508 59.408 203.557 58.782 203.926C58.157 204.295 57.726 204.917 57.367 205.548C55.84 208.231 55.285 211.439 55.756 214.485C55.966 215.841 56.459 217.034 56.96 218.291C57.372 219.325 58.038 220.477 59.293 220.505C61.026 220.543 60.834 217.636 61.326 216.135C61.519 215.546 61.476 214.809 62.179 214.632C62.891 214.453 64.038 215.803 64.586 214.698C64.783 214.3 64.688 213.826 64.599 213.39C64.511 212.954 64.443 212.468 64.682 212.093C64.705 212.057 65.6 212.096 65.735 212.049C66.059 211.938 66.143 211.771 66.196 211.53Z" fill="#485070"/>
<path d="M61.918 199.481C60.564 201.287 60.284 203.84 61.214 205.897" stroke="#485070" stroke-width="0.75" stroke-miterlimit="10" stroke-linecap="round"/>
<path d="M57.14 203.368C58.244 202.682 59.835 202.934 60.674 203.927" stroke="#485070" stroke-width="0.75" stroke-miterlimit="10" stroke-linecap="round"/>
<path d="M70.915 218.082C71.3447 218.082 71.693 217.734 71.693 217.304C71.693 216.874 71.3447 216.526 70.915 216.526C70.4853 216.526 70.137 216.874 70.137 217.304C70.137 217.734 70.4853 218.082 70.915 218.082Z" fill="#485070"/>
<path d="M70.314 215.204C70.821 215.043 71.383 215.059 71.88 215.249" stroke="#485070" stroke-width="0.75" stroke-miterlimit="10" stroke-linecap="round"/>
<path d="M76.615 218.103C76.615 218.533 76.267 218.881 75.837 218.881C75.407 218.881 75.059 218.533 75.059 218.103C75.059 217.673 75.407 217.325 75.837 217.325C76.267 217.325 76.615 217.673 76.615 218.103Z" fill="#485070"/>
<path d="M75.236 216.004C75.743 215.843 76.305 215.859 76.802 216.049" stroke="#485070" stroke-width="0.75" stroke-miterlimit="10" stroke-linecap="round"/>
<path d="M73.824 218.478C73.735 219.161 73.922 219.877 74.335 220.429C74.442 220.572 74.571 220.724 74.561 220.903C74.551 221.095 74.375 221.246 74.188 221.292C74.001 221.338 73.805 221.302 73.616 221.266" stroke="#485070" stroke-width="0.75" stroke-miterlimit="10" stroke-linecap="round"/>
<path d="M70.313 222.748C71.035 223.383 72.067 223.648 73.006 223.439" stroke="#485070" stroke-width="0.75" stroke-miterlimit="10" stroke-linecap="round"/>
<path d="M58.361 215.895C58.361 217.472 59.64 218.751 61.217 218.751C62.794 218.751 64.073 217.472 64.073 215.895C64.073 214.318 62.794 213.039 61.217 213.039C59.64 213.038 58.361 214.317 58.361 215.895Z" fill="#CF9378"/>
<path d="M60.661 214.672C61.074 214.619 61.51 214.793 61.772 215.117C62.034 215.441 62.114 215.903 61.976 216.296C61.729 216.07 61.341 216.014 61.041 216.162C60.741 216.309 60.547 216.651 60.575 216.984" stroke="#485070" stroke-width="0.75" stroke-miterlimit="10" stroke-linecap="round" stroke-linejoin="round"/>
<path d="M378.47 379.384C378.388 379.024 368.176 380.81 367.047 380.986C367.006 381.022 366.965 381.058 366.924 381.093C363.392 384.094 358.913 385.727 354.531 387.313C353.853 387.558 353.147 387.823 352.681 388.369C350.692 390.704 354.915 391.708 356.413 391.833C358.866 392.039 361.292 391.544 363.668 391.126C368.586 390.261 373.605 390.541 378.474 389.339C378.666 389.291 378.872 389.233 378.988 389.075C379.079 388.95 379.097 388.784 379.111 388.626C379.375 385.559 379.158 382.429 378.47 379.384Z" fill="#485070"/>
<path d="M356.113 307.576C358.578 332.153 363.077 357.378 365.892 381.933C371.652 382.428 373.737 382.051 379.331 381.104C382.997 354.393 384.55 341.501 381.243 314.405C380.903 311.624 381.196 288.588 381.097 285.63C380.511 268.018 382.863 247.914 372.286 233.042C369.615 229.286 365.238 226.404 360.789 226.752C357.535 227.007 355.027 228.779 353.154 231.318C347.689 238.734 350.738 258.886 351.71 267.684C352.999 279.348 354.938 295.862 356.113 307.576Z" fill="#757E96"/>
<path d="M357.847 322.867C358.845 318.605 360.066 314.39 361.268 310.181C365.475 295.455 367.212 280.32 369.315 265.185C369.813 261.598 370.319 258.002 370.253 254.371C370.186 250.695 369.704 246.997 369.409 243.332C369.007 238.332 368.515 233.305 367.336 228.44C365.317 227.244 363.063 226.574 360.788 226.752C357.534 227.007 355.026 228.779 353.153 231.318C347.688 238.734 350.737 258.886 351.709 267.684C352.998 279.348 354.936 295.862 356.111 307.576C356.616 312.592 357.206 317.703 357.847 322.867Z" fill="#545D78"/>
<path d="M339.093 382.795C338.992 382.792 338.887 382.802 338.79 382.814C335.517 383.208 332.196 383.19 328.927 382.763C328.51 382.708 328.082 382.648 327.673 382.743C327.302 382.829 326.974 383.037 326.648 383.235C323.592 385.098 320.193 386.396 316.674 387.046C314.649 387.42 312.467 387.629 310.86 388.916C310.108 389.518 309.52 390.636 310.094 391.41C310.289 391.673 310.586 391.84 310.882 391.98C313.954 393.423 318.588 392.862 321.889 392.678C327.219 392.382 332.499 392.704 337.755 391.636C337.97 391.592 338.193 391.539 338.363 391.399C338.601 391.204 338.686 390.883 338.756 390.583C339.093 389.129 339.379 387.651 339.551 386.168C339.619 385.583 339.947 383.47 339.544 382.975C339.437 382.842 339.269 382.8 339.093 382.795Z" fill="#485070"/>
<path d="M352.131 230.126C340.01 229.931 336.301 242.582 334.859 252.313C331.812 272.863 329.673 293.547 328.446 314.285C327.836 324.6 327.028 333.315 326.688 343.645C326.326 354.25 325.754 372.599 326.215 383.148C326.224 383.361 326.24 383.592 326.379 383.753C326.535 383.935 326.797 383.973 327.036 383.999C331.48 384.473 335.967 384.536 340.423 384.188C340.632 384.172 340.852 384.15 341.022 384.027C341.214 383.887 339.501 383.216 339.574 382.99C342.985 372.461 345.316 353.637 346.386 342.633C348.624 319.625 353.404 297.235 361.984 275.981C370.564 255.908 375.412 230.499 352.131 230.126Z" fill="#757E96"/>
<path d="M357.104 288.457C361.967 276.843 366.144 264.942 369.607 252.837" stroke="#485070" stroke-width="0.75" stroke-miterlimit="10"/>
<path d="M354.514 257.381C354.553 257.388 354.592 257.393 354.631 257.399C355.74 257.579 356.85 257.743 357.962 257.882C358.779 257.985 359.599 258.069 360.42 258.145C360.689 258.17 360.958 258.194 361.227 258.217C361.912 258.274 362.598 258.323 363.285 258.361C363.673 258.383 364.06 258.399 364.449 258.415C364.752 258.428 365.056 258.444 365.36 258.454C365.361 258.451 365.361 258.449 365.362 258.446C370.589 258.606 375.842 258.257 380.992 257.347C380.219 248.061 378.192 239.11 372.795 231.523C370.123 227.767 365.747 224.885 361.298 225.233C358.044 225.488 355.536 227.26 353.664 229.799C353.257 230.351 352.908 230.99 352.591 231.674C342.059 231.436 337.416 242.046 335.068 250.994C337.441 252.432 340.047 253.531 342.61 254.425C346.468 255.773 350.473 256.718 354.514 257.381Z" fill="#545D78"/>
<path d="M359.789 164.061C359.857 162.691 359.766 161.326 359.5 159.998C361.525 160.681 363.639 160.733 365.706 160.177C366.722 159.903 367.698 159.498 368.65 159.051C368.989 158.892 369.6 158.394 370.163 158.082C368.927 162.646 369.024 167.408 371.849 171.329C369.715 173.177 366.934 174.128 364.157 174.602C361.771 175.009 356.062 175.386 357.434 171.37C357.883 170.056 358.847 169.046 359.228 167.683C359.554 166.509 359.729 165.277 359.789 164.061Z" fill="#F7B699"/>
<path d="M365.316 160.267C363.374 160.717 361.398 160.637 359.5 159.998C359.766 161.326 359.857 162.691 359.789 164.061C359.729 165.277 359.555 166.509 359.227 167.684C359.193 167.807 359.149 167.924 359.106 168.041C359.341 168.012 359.577 167.971 359.812 167.926C362.51 166.108 364.362 163.341 365.316 160.267Z" fill="#C46E58"/>
<path d="M356.695 142.085C358.098 140.067 359.766 142.903 362.223 142.965C364.36 143.019 366.02 142.973 367.915 144.08C369.6 145.064 371.003 146.607 371.591 148.49C371.749 148.998 371.877 149.5 371.981 149.994C372.12 151.662 372.19 153.339 372.027 155.01C372.018 155.045 372.01 155.08 372.001 155.115C370.803 158.002 368.828 160.312 366.386 161.939C364.011 163.521 360.954 163.933 358.422 162.617C357.073 161.916 355.965 160.81 355.266 159.173C354.568 157.539 354.35 155.74 354.267 153.965C354.141 151.261 355.149 144.308 356.695 142.085Z" fill="#F7B699"/>
<path d="M359.466 146.769C357.546 147.046 355.984 147.351 354.223 146.32C352.887 145.538 351.861 144.254 351.413 142.77C351.279 142.324 351.217 141.88 351.166 141.42C351.143 141.213 351.193 140.381 351.125 140.285C351.731 141.147 353.056 141.183 353.988 140.691C354.92 140.199 355.579 139.328 356.295 138.555C357.979 136.736 360.151 135.341 362.555 134.734C364.958 134.127 367.589 134.338 369.793 135.473C371.178 136.186 372.374 137.27 373.213 138.583C373.628 139.232 373.974 139.949 374.176 140.694C374.269 141.04 374.54 142.84 374.099 143.004C374.78 142.752 375.572 143.1 376.029 143.663C376.486 144.227 376.672 144.961 376.789 145.677C377.152 147.914 376.842 150.781 375.902 152.862C375.165 154.494 374.382 156.288 373.472 157.844C372.68 159.198 371.586 160.419 370.176 161.105C368.397 161.97 366.326 161.905 364.351 161.8C362.529 161.703 361.139 161.048 360.395 159.3C360.057 158.505 359.943 157.541 359.889 156.689C359.866 156.319 359.693 153.749 359.995 153.594C359.622 153.785 359.237 153.979 358.819 154.011C358.401 154.043 357.939 153.871 357.754 153.495C357.58 153.141 357.69 152.72 357.803 152.343C358.357 150.486 358.911 148.627 359.466 146.769Z" fill="#485070"/>
<path d="M374.641 138.405C375.28 140.57 374.651 143.061 373.061 144.663" stroke="#485070" stroke-width="0.75" stroke-miterlimit="10" stroke-linecap="round"/>
<path d="M377.762 143.715C376.967 142.687 375.388 142.368 374.256 143.005" stroke="#485070" stroke-width="0.75" stroke-miterlimit="10" stroke-linecap="round"/>
<path d="M364.006 155.028C363.455 156.506 361.811 157.258 360.333 156.707C358.855 156.156 358.103 154.512 358.654 153.034C359.205 151.556 360.849 150.804 362.327 151.355C363.805 151.905 364.556 153.549 364.006 155.028Z" fill="#F7B699"/>
<path d="M362.277 153.079C361.909 152.885 361.44 152.896 361.081 153.108C360.722 153.32 360.486 153.725 360.478 154.142C360.788 154.016 361.171 154.1 361.401 154.343C361.631 154.586 361.693 154.973 361.551 155.276" stroke="#485070" stroke-width="0.75" stroke-miterlimit="10" stroke-linecap="round" stroke-linejoin="round"/>
<path d="M324.323 187.439C324.49 186.551 325.158 185.774 326.011 185.476C326.892 185.169 328.385 185.166 328.678 184.28C328.825 183.837 328.971 183.671 328.615 183.369C328.259 183.067 327.782 182.943 327.316 182.914C325.884 182.826 324.434 183.631 323.752 184.894C323.543 185.282 323.24 185.79 322.817 185.667C322.616 185.609 322.486 185.416 322.404 185.224C321.905 184.057 322.595 182.751 323.262 181.671C323.787 180.821 324.347 179.937 325.216 179.444C326.19 178.891 327.38 178.927 328.497 179.004C330.754 179.159 333.119 179.331 335.025 180.673C335.525 181.025 335.982 181.435 336.48 181.788C337.76 182.695 339.272 183.204 340.76 183.701C340.295 185.313 339.831 186.926 339.366 188.538C339.342 188.621 339.312 188.712 339.238 188.757C339.16 188.804 339.06 188.784 338.971 188.762C336.232 188.093 333.07 187.533 330.324 187.103C328.356 186.853 326.269 187.103 324.323 187.439Z" fill="#F7B699"/>
<path d="M339.391 180.111C336.878 183.262 335.53 187.323 335.66 191.351C337.42 192.053 339.18 192.755 340.94 193.456C341.546 190.668 342.151 187.881 342.757 185.093C342.939 184.255 343.685 182.471 343.208 181.779C342.698 181.04 340.24 180.479 339.391 180.111Z" fill="white"/>
<path d="M357.54 186.72C356.108 185.828 354.576 185.043 352.996 184.333C350.282 183.113 347.427 182.115 344.7 181.17C343.667 180.812 342.576 180.412 341.513 180.19C338.546 183.357 337.504 188.734 337.861 193.241C340.99 195.984 345.572 197.609 349.022 199.765C350.954 200.973 352.872 202.238 354.993 203.07C357.114 203.902 359.492 204.278 361.681 203.646C362.825 203.315 363.952 202.649 364.453 201.569C364.765 200.896 364.805 200.13 364.786 199.388C364.657 194.322 361.842 189.4 357.54 186.72Z" fill="#545D78"/>
<path d="M305.981 204.312C304.806 202.226 304.533 199.617 305.397 197.383C305.717 196.557 306.255 195.728 307.099 195.459C308.113 195.136 309.224 195.752 309.866 196.601C310.508 197.45 310.81 198.499 311.22 199.482C311.663 200.544 312.243 201.548 312.942 202.462C313.667 203.411 314.551 204.328 314.76 205.504C314.926 206.438 314.605 207.444 313.93 208.109C311.422 210.583 307.198 206.471 305.981 204.312Z" fill="#F7B699"/>
<path d="M334.27 202.79L319.096 210.145L299.022 191.925L314.197 184.57L334.27 202.79Z" fill="#F4AE2D"/>
<path d="M331.79 202.031L318.758 208.348L301.414 192.604L314.446 186.288L331.79 202.031Z" fill="white"/>
<path d="M316.427 189.618L305.596 194.868L304.54 193.909L315.37 188.659L316.427 189.618Z" fill="#C8DDF7"/>
<path d="M321.96 194.64L311.129 199.89L310.073 198.931L320.903 193.681L321.96 194.64Z" fill="#C8DDF7"/>
<path d="M323.793 196.304L312.962 201.554L311.906 200.595L322.736 195.345L323.793 196.304Z" fill="#C8DDF7"/>
<path d="M325.626 197.968L314.795 203.218L313.739 202.259L324.569 197.009L325.626 197.968Z" fill="#C8DDF7"/>
<path d="M327.459 199.632L316.628 204.882L315.572 203.922L326.402 198.673L327.459 199.632Z" fill="#C8DDF7"/>
<path d="M329.292 201.296L318.461 206.545L317.405 205.586L328.235 200.337L329.292 201.296Z" fill="#C8DDF7"/>
<path d="M313.8 187.77L304.695 192.183L300.821 188.667L309.926 184.254L313.8 187.77Z" fill="#485070"/>
<path d="M307.553 202.646C307.401 202.823 307.262 203.011 307.139 203.209C305.992 205.052 308.213 206.764 309.625 207.758C312.834 210.016 316.754 211.097 320.475 212.181C322.576 212.793 328.659 211.294 326.979 207.994C325.832 205.741 322.438 204.443 320.206 203.841C317.889 203.407 315.91 202.442 315.041 200.094C314.655 199.05 314.499 197.936 314.16 196.876C314.077 196.615 313.975 196.347 313.772 196.164C313.569 195.98 313.237 195.911 313.022 196.081C312.901 196.177 312.838 196.327 312.785 196.473C312.136 198.285 313.301 199.627 311.07 200.69C310.329 201.043 309.516 201.238 308.797 201.635C308.327 201.894 307.904 202.239 307.553 202.646Z" fill="#F7B699"/>
<path d="M318.731 200.679C316.571 204.083 315.668 208.264 316.231 212.256C318.056 212.764 319.882 213.273 321.707 213.781C322.009 210.944 322.311 208.108 322.613 205.271C322.704 204.418 323.253 202.565 322.704 201.927C322.119 201.247 319.615 200.954 318.731 200.679Z" fill="white"/>
<path d="M356.268 167.639C357.342 166.676 358.885 166.497 360.322 166.363C364.029 166.018 367.736 165.672 371.444 165.327C372.145 167.806 372.845 170.286 373.546 172.765C373.517 172.661 361.522 173.137 360.378 173.101C359.176 173.064 355.272 173.455 354.769 172.327C354.211 171.077 355.349 168.463 356.268 167.639Z" fill="white"/>
<path d="M380.638 229.453C380.649 225.504 380.871 221.56 381.122 217.621C381.449 212.49 381.836 207.36 381.902 202.217C381.984 195.976 381.732 189.401 380.631 183.104C380.356 181.536 380.029 179.985 379.642 178.461C379.562 178.148 379.476 177.815 379.385 177.475C378.204 174.64 375.962 170.883 372.973 169.21C372.477 169.179 371.972 169.203 371.475 169.236C368.043 169.466 364.621 169.845 361.222 170.371C358.881 170.733 357.226 171.029 355.504 172.822C351.111 177.394 346.991 187.638 345.844 193.933C344.749 199.947 345.177 200.291 344.551 206.356C343.807 213.576 342.754 220.765 341.398 227.896C340.254 233.91 338.541 240.437 333.547 243.979C341.825 247.454 350.204 250.959 359.074 252.344C367.944 253.729 377.496 252.802 385.042 247.937C381.482 242.444 380.619 236.006 380.638 229.453Z" fill="#757E96"/>
<path d="M360.165 188.784C359.824 188.122 359.404 187.471 358.783 187.059C358.121 186.62 357.293 186.499 356.5 186.534C353.029 186.689 350.281 189.523 348.427 192.461C346.572 195.4 345.144 198.719 342.5 200.975C337.886 204.911 326.781 201.698 321.62 200.55C317.689 204.395 317.27 208.84 319.31 214.022C326.229 217.062 340.786 224.273 348.34 220.677C350.973 219.424 352.934 217.245 354.551 214.774C355.486 213.347 356.306 211.822 357.074 210.322C358.795 206.963 360.448 203.52 361.238 199.83C362.029 196.141 361.895 192.138 360.165 188.784Z" fill="#757E96"/>
<path d="M363.236 176.29C360.931 173.838 356.978 173.574 354.196 175.32C352.569 176.341 351.743 178.448 350.902 180.121C349.873 182.169 348.996 184.292 348.28 186.469C347.54 188.721 346.973 191.026 346.278 193.292C345.14 197.006 343.659 200.621 342.807 204.411C341.955 208.201 341.768 212.27 343.194 215.883C345.231 221.043 352.022 218.302 355.049 215.431C357.655 212.958 358.904 209.418 360.065 206.018C361.231 202.603 362.397 199.188 363.563 195.773C364.547 192.891 365.674 189.077 365.878 185.385C366.066 181.972 365.466 178.663 363.236 176.29Z" fill="#757E96"/>
<path d="M344.843 197.725C346.46 190.16 349.302 182.858 353.226 176.19" stroke="#485070" stroke-width="0.75" stroke-miterlimit="10"/>
<path d="M365.584 191.249C364.094 195.259 362.603 199.269 361.113 203.279C360.042 206.159 359.027 209.84 356.997 212.217C354.975 214.583 353.092 217.17 350.613 219.116C348.202 221.008 345.167 222.294 342.117 221.995" stroke="#485070" stroke-width="0.75" stroke-miterlimit="10"/>
<path d="M367.205 192.314C365.865 193.079 364.743 194.223 364.004 195.578" stroke="#485070" stroke-width="0.75" stroke-miterlimit="10"/>
<path d="M320.489 190.56L318.701 191.531L319.609 189.71L330.396 178.539C330.631 178.296 331.018 178.289 331.262 178.524C331.505 178.759 331.512 179.146 331.277 179.39L320.489 190.56Z" fill="#485070"/>
</svg>
