<svg width="440" height="381" viewBox="0 0 440 381" fill="none" xmlns="http://www.w3.org/2000/svg">
<path class="group-hover:fill-white fill-orange-500 transition duration-300 ease-in-out" d="M264.448 188.522C237.109 186.548 210.239 183.102 182.851 184.186C171.656 184.629 160.401 183.545 149.496 180.972C144.71 179.843 139.756 178.291 136.363 174.731C132.97 171.172 131.819 165.033 135.112 161.38C138.802 157.285 146.636 157.361 148.26 152.093C149.374 148.479 146.299 144.661 142.689 143.536C139.078 142.411 135.185 143.218 131.482 143.986C127.779 144.755 121.45 144.02 117.689 144.414C100.37 146.232 82.8949 146.566 65.5199 145.411C53.4389 144.608 41.2299 143.041 30.0569 138.376C18.8839 133.711 8.73991 125.615 3.74291 114.587C-3.38209 98.863 1.60491 79.051 14.1169 67.157C26.6289 55.263 45.4369 51.124 62.3179 54.733C65.2249 55.354 68.1579 56.191 71.1189 55.918C74.0799 55.645 77.1499 53.937 77.9759 51.081C79.1179 47.135 75.3059 43.172 71.2549 42.495C67.2029 41.818 63.1579 43.392 59.3029 44.81C55.4479 46.228 51.2269 47.526 47.3019 46.316C43.6939 45.204 40.8709 41.878 40.3589 38.137C39.8479 34.396 41.6739 30.435 44.8519 28.395C48.1089 26.304 52.2309 26.28 56.1009 26.325C110.586 26.956 165.071 27.586 219.556 28.216C243.939 28.498 268.851 25.914 293.213 26.956C317.576 27.999 343.422 34.905 359.022 53.648C375.468 73.408 376.813 101.926 371.579 127.097C368.905 139.956 364.604 152.753 356.642 163.199C346.276 176.798 330.359 185.399 313.779 189.58C297.198 193.762 281.502 189.753 264.448 188.522Z"/>
<path d="M297.035 265.681H324.639C328.551 265.681 331.723 268.852 331.723 272.764V287.705C331.723 291.617 328.551 294.789 324.639 294.789H324.511L320.084 302.651L315.657 294.789H297.035C293.123 294.789 289.951 291.617 289.951 287.705V272.764C289.952 268.852 293.123 265.681 297.035 265.681Z" fill="#FE5615"/>
<path d="M314.898 275.437L307.148 285.712L312.124 291.564L320.541 269.488L298.941 279.061L305.048 283.72L314.898 275.437Z" fill="white"/>
<path d="M292.561 272.324C292.87 270.239 294.525 268.419 296.57 267.913" stroke="white" stroke-width="0.8" stroke-miterlimit="10" stroke-linecap="round" stroke-linejoin="round"/>
<path d="M374.556 226.433H346.952C343.04 226.433 339.868 229.604 339.868 233.516V248.456C339.868 252.368 343.039 255.54 346.952 255.54H347.08L351.507 263.402L355.934 255.54H374.556C378.468 255.54 381.64 252.369 381.64 248.456V233.516C381.64 229.604 378.469 226.433 374.556 226.433Z" fill="#814EFF"/>
<path d="M360.754 235.471C353.507 227.01 341.389 240.801 360.754 249.647C380.119 240.802 368.001 227.01 360.754 235.471Z" fill="white"/>
<path d="M342.341 233.319C342.65 231.234 344.305 229.414 346.35 228.908" stroke="white" stroke-width="0.8" stroke-miterlimit="10" stroke-linecap="round" stroke-linejoin="round"/>
<path d="M390.076 281.761H362.472C358.56 281.761 355.388 284.932 355.388 288.844V303.785C355.388 307.697 358.56 310.869 362.472 310.869H362.6L367.027 318.731L371.454 310.869H390.076C393.988 310.869 397.16 307.697 397.16 303.785V288.844C397.159 284.932 393.988 281.761 390.076 281.761Z" fill="#FE5615"/>
<path d="M376.273 285.795L379.668 292.675L387.26 293.778L381.767 299.133L383.064 306.694L376.273 303.124L369.483 306.694L370.78 299.133L365.286 293.778L372.878 292.675L376.273 285.795Z" fill="white"/>
<path d="M357.924 288.577C358.233 286.492 359.888 284.672 361.933 284.166" stroke="white" stroke-width="0.8" stroke-miterlimit="10" stroke-linecap="round" stroke-linejoin="round"/>
<path d="M330.663 62.989C330.663 62.391 330.178 61.906 329.58 61.906C328.982 61.906 328.497 62.391 328.497 62.989C328.497 63.587 328.982 64.072 329.58 64.072C330.178 64.072 330.663 63.587 330.663 62.989Z" fill="#814EFF"/>
<path d="M101.589 130.689C102.187 130.689 102.672 130.204 102.672 129.606C102.672 129.008 102.187 128.523 101.589 128.523C100.991 128.523 100.506 129.008 100.506 129.606C100.506 130.204 100.991 130.689 101.589 130.689Z" fill="#814EFF"/>
<path d="M188.47 49.286C188.47 48.688 187.985 48.203 187.387 48.203C186.789 48.203 186.304 48.688 186.304 49.286C186.304 49.884 186.789 50.369 187.387 50.369C187.985 50.369 188.47 49.885 188.47 49.286Z" fill="white"/>
<path d="M128.39 63.666C128.988 63.666 129.473 63.1811 129.473 62.583C129.473 61.9849 128.988 61.5 128.39 61.5C127.792 61.5 127.307 61.9849 127.307 62.583C127.307 63.1811 127.792 63.666 128.39 63.666Z" fill="#814EFF"/>
<path d="M33.6069 164.458C33.6069 163.86 33.1219 163.375 32.5239 163.375C31.9259 163.375 31.4409 163.86 31.4409 164.458C31.4409 165.056 31.9259 165.541 32.5239 165.541C33.1229 165.541 33.6069 165.057 33.6069 164.458Z" fill="white"/>
<path d="M128.088 14.222C128.088 13.624 127.603 13.139 127.005 13.139C126.407 13.139 125.922 13.624 125.922 14.222C125.922 14.82 126.407 15.305 127.005 15.305C127.604 15.305 128.088 14.82 128.088 14.222Z" fill="white"/>
<path d="M255.25 1.34899C255.25 0.750991 254.765 0.265991 254.167 0.265991C253.569 0.265991 253.084 0.750991 253.084 1.34899C253.084 1.94699 253.569 2.43199 254.167 2.43199C254.766 2.43199 255.25 1.94699 255.25 1.34899Z" fill="white"/>
<path d="M44.6431 127.422C44.6431 126.824 44.1581 126.339 43.5601 126.339C42.9621 126.339 42.4771 126.824 42.4771 127.422C42.4771 128.02 42.9621 128.505 43.5601 128.505C44.1581 128.505 44.6431 128.02 44.6431 127.422Z" fill="white"/>
<path d="M32.4463 112.1C32.4463 111.502 31.9613 111.017 31.3633 111.017C30.7653 111.017 30.2803 111.502 30.2803 112.1C30.2803 112.698 30.7653 113.183 31.3633 113.183C31.9613 113.183 32.4463 112.698 32.4463 112.1Z" fill="white"/>
<path d="M337.759 76.221C338.357 76.221 338.842 75.7361 338.842 75.138C338.842 74.5399 338.357 74.055 337.759 74.055C337.161 74.055 336.676 74.5399 336.676 75.138C336.676 75.7361 337.161 76.221 337.759 76.221Z" fill="white"/>
<path d="M353.941 190.423C354.539 190.423 355.024 189.938 355.024 189.34C355.024 188.742 354.539 188.257 353.941 188.257C353.343 188.257 352.858 188.742 352.858 189.34C352.858 189.938 353.343 190.423 353.941 190.423Z" fill="#814EFF"/>
<path d="M337.759 154.677C338.357 154.677 338.842 154.192 338.842 153.594C338.842 152.996 338.357 152.511 337.759 152.511C337.161 152.511 336.676 152.996 336.676 153.594C336.676 154.192 337.161 154.677 337.759 154.677Z" fill="white"/>
<path d="M396.564 35.118H391.692V39.99H396.564V35.118Z" stroke="#060305" stroke-width="0.8" stroke-miterlimit="10" stroke-linecap="round" stroke-linejoin="round"/>
<path d="M16.1293 151.158H11.2573V156.03H16.1293V151.158Z" stroke="#060305" stroke-width="0.8" stroke-miterlimit="10" stroke-linecap="round" stroke-linejoin="round"/>
<path d="M178.886 10.412H174.014V15.284H178.886V10.412Z" fill="#814EFF"/>
<path d="M102.85 38.52H97.978V43.392H102.85V38.52Z" fill="white"/>
<path d="M334.452 212.276H329.58V217.148H334.452V212.276Z" fill="white"/>
<path d="M392.602 90.134L388.703 94.032" stroke="#060305" stroke-width="0.8" stroke-miterlimit="10" stroke-linecap="round" stroke-linejoin="round"/>
<path d="M143.763 43.655L139.865 47.553" stroke="#060305" stroke-width="0.8" stroke-miterlimit="10" stroke-linecap="round" stroke-linejoin="round"/>
<path d="M309.912 156.03L306.013 159.928" stroke="#060305" stroke-width="0.8" stroke-miterlimit="10" stroke-linecap="round" stroke-linejoin="round"/>
<path d="M27.8331 83.851L23.9341 87.75" stroke="#060305" stroke-width="0.8" stroke-miterlimit="10" stroke-linecap="round" stroke-linejoin="round"/>
<path d="M142.554 125.473L146.452 129.371" stroke="#060305" stroke-width="0.8" stroke-miterlimit="10" stroke-linecap="round" stroke-linejoin="round"/>
<path d="M322.026 12.054L325.924 15.953" stroke="#060305" stroke-width="0.8" stroke-miterlimit="10" stroke-linecap="round" stroke-linejoin="round"/>
<path d="M6.89209 176.627L10.7911 180.525" stroke="#060305" stroke-width="0.8" stroke-miterlimit="10" stroke-linecap="round" stroke-linejoin="round"/>
<path d="M392.306 377.125L256.685 380.781C249.043 380.987 241.461 379.324 234.546 375.926L78.1859 299.092C70.8079 295.467 73.1309 283.941 81.2839 283.721L216.905 280.065C224.547 279.859 232.129 281.522 239.044 284.92L395.404 361.754C402.781 365.379 400.458 376.905 392.306 377.125Z" fill="#060305"/>
<path class="group-hover:fill-white fill-orange-500 transition duration-300 ease-in-out" d="M230.083 285.681L184.371 286.913L184.844 287.146C187.682 288.541 186.751 292.804 183.59 292.889L177.945 293.041C170.144 293.251 162.409 291.563 155.406 288.122L154.581 287.717L106.685 289.008L241.429 355.221L364.827 351.894L230.083 285.681Z"/>
<path d="M87.27 286.371L237.062 362.696C243.712 366.085 251.109 367.743 258.57 367.519L392.862 363.487" stroke="white" stroke-width="0.8" stroke-miterlimit="10" stroke-linecap="round" stroke-linejoin="round"/>
<path d="M303.012 360.25L327.837 358.914" stroke="white" stroke-width="0.8" stroke-miterlimit="10" stroke-linecap="round" stroke-linejoin="round"/>
<path d="M178.113 288.152C178.06 288.996 176.241 289.568 174.052 289.43C171.862 289.292 170.13 288.496 170.184 287.652C170.237 286.808 172.055 286.236 174.245 286.374C176.435 286.513 178.167 287.309 178.113 288.152Z" stroke="white" stroke-width="0.8" stroke-miterlimit="10" stroke-linecap="round" stroke-linejoin="round"/>
<path d="M301.096 231.075C298.276 220.761 295.466 210.445 292.646 200.131C273.934 203.283 255.686 208.415 237.716 214.511C243.216 225.965 248.716 237.42 254.215 248.874C250.83 276.61 251.218 305.322 254.265 333.096L297.111 337.705C298.269 313.173 302.218 288.825 303.891 264.322C304.644 253.298 304.011 241.734 301.096 231.075Z" fill="#FF9A7D"/>
<path d="M293.082 249.026C294.644 251.648 297.881 253.161 300.894 252.678" stroke="#060305" stroke-width="0.8" stroke-miterlimit="10" stroke-linecap="round" stroke-linejoin="round"/>
<path d="M253.86 249.056C254.69 250.456 255.521 251.856 256.351 253.256" stroke="#060305" stroke-width="0.8" stroke-miterlimit="10" stroke-linecap="round" stroke-linejoin="round"/>
<path d="M166.871 188.658C166.806 195.792 166.74 202.926 166.675 210.06C149.176 227.671 135.169 249.031 127.006 272.477L162.776 290.353C176.368 276.618 189.381 261.915 203.585 248.815C210.217 242.698 214.684 234.204 216.772 225.426C219.032 215.928 220.954 206.329 223.214 196.831C204.325 194.007 185.76 191.482 166.871 188.658Z" fill="#FF9A7D"/>
<path d="M166.37 210.059C166.37 211.842 166.37 213.626 166.37 215.409" stroke="#060305" stroke-width="0.8" stroke-miterlimit="10" stroke-linecap="round" stroke-linejoin="round"/>
<path d="M181.678 230.924C182.48 234.599 185.409 237.728 189.023 238.77C192.637 239.812 196.783 238.724 199.419 236.041" stroke="#060305" stroke-width="0.8" stroke-miterlimit="10" stroke-linecap="round" stroke-linejoin="round"/>
<path d="M211.386 12.848C209.96 23.663 212.661 34.971 218.82 43.975C224.979 52.978 234.54 59.594 245.136 62.184" stroke="#060305" stroke-width="0.8" stroke-miterlimit="10" stroke-linecap="round" stroke-linejoin="round"/>
<path d="M283.629 32.993C286.886 36.345 288.738 41.022 288.656 45.695C288.574 50.368 286.561 54.978 283.189 58.214" stroke="#060305" stroke-width="0.8" stroke-miterlimit="10" stroke-linecap="round" stroke-linejoin="round"/>
<path d="M282.71 34.787C280.086 32.73 276.839 31.682 273.776 30.363C270.714 29.044 267.629 27.276 265.997 24.368C264.365 21.46 264.814 17.175 267.71 15.523L227.511 13.44C225.322 17.207 224.205 21.609 224.29 25.982C221.935 22.218 221.285 17.455 222.453 13.178L213.858 12.733C210.219 26.263 215.665 41.186 225.502 51.163C235.338 61.141 248.965 66.664 262.748 69.18C268.169 64.352 274.985 60.757 281.892 58.525C286.156 57.147 287.816 51.042 288.056 46.566C288.297 42.09 286.237 37.552 282.71 34.787Z" fill="#060305"/>
<path d="M401.853 116.851C401.853 116.851 385.29 116.636 377.011 116.483C363.709 116.238 350.468 111.813 338.075 106.972C329.572 103.651 321.417 99.51 313.278 95.376L294.41 126.665C308.344 134.145 323.208 139.4 338.908 141.298C351.118 142.775 363.747 143.283 376.027 142.614C383.139 144.894 390.075 145.763 397.392 144.267C406.098 142.487 414.486 140.566 423.192 138.787C423.314 136.726 421.55 134.628 419.528 134.213C413.427 132.958 407.187 131.758 401.086 130.503C401.51 130.036 402.175 129.514 402.6 129.047C404.655 128.879 406.71 128.712 408.765 128.544C414.798 130.113 420.831 131.683 426.864 133.252C427.995 133.546 429.158 133.843 430.32 133.709C431.481 133.575 433.015 132.67 433.414 131.571C430.914 130.095 428.414 128.62 425.914 127.145C428.852 126.905 431.79 126.666 434.728 126.426C435.951 126.326 437.094 126.249 438.03 125.456C438.966 124.663 439.529 123.448 439.53 122.221C427.04 120.347 401.853 116.851 401.853 116.851Z" fill="#FF9A7D"/>
<path d="M374.32 141.203C374.971 141.704 375.622 142.205 376.273 142.706" stroke="#060305" stroke-width="0.8" stroke-miterlimit="10" stroke-linecap="round" stroke-linejoin="round"/>
<path d="M409.337 128.693C415.133 128.278 420.929 127.864 426.726 127.449" stroke="#060305" stroke-width="0.8" stroke-miterlimit="10" stroke-linecap="round" stroke-linejoin="round"/>
<path d="M196.819 67.765C187.107 69.612 177.277 72.082 167.448 73.135C150.69 74.931 134.489 78.67 117.645 78.083C112.718 77.911 107.831 77.052 102.993 76.109C89.8079 73.541 76.1609 71.28 62.9749 68.711C62.6349 69.447 62.6409 70.426 63.1499 71.057C60.6479 70.156 58.3589 69.446 55.8569 68.545C55.3509 69.958 55.6899 71.613 56.7859 72.639C59.3539 75.043 62.4049 77.262 65.5519 78.834C60.5309 78.1 55.7099 77.753 50.6879 77.019C50.0769 78.664 50.7929 80.8 52.2979 81.703C53.0659 82.164 53.9559 82.62 54.7229 83.081C53.3199 82.982 51.9479 83.095 50.5439 82.997C50.0159 84.919 51.3349 87.061 53.1039 87.98C61.1579 92.162 70.0589 95.243 78.8119 97.64C74.3819 98.527 69.9519 99.415 65.5229 100.302C64.3129 100.544 63.0549 100.808 62.0819 101.566C61.1079 102.324 60.5239 103.735 61.0949 104.828C69.9249 106.874 78.8789 108.952 87.7089 110.998C95.7319 112.857 104.802 114.412 111.47 109.579C123.016 109.207 134.628 109.117 146.174 108.745C155.757 108.436 164.83 107.539 174.304 106.066C183.385 104.655 192.337 103.212 201.34 101.733L196.819 67.765Z" fill="#FF9A7D"/>
<path d="M78.1919 97.49C79.5239 98.044 80.8559 98.598 82.1889 99.153" stroke="#060305" stroke-width="0.8" stroke-miterlimit="10" stroke-linecap="round" stroke-linejoin="round"/>
<path d="M53.6099 82.879C62.0629 84.826 70.5159 86.774 78.9689 88.722" stroke="#060305" stroke-width="0.8" stroke-miterlimit="10" stroke-linecap="round" stroke-linejoin="round"/>
<path d="M64.4849 78.701C70.1359 79.708 75.7859 80.714 81.4369 81.721" stroke="#060305" stroke-width="0.8" stroke-miterlimit="10" stroke-linecap="round" stroke-linejoin="round"/>
<path d="M62.7661 70.889C69.9231 72.801 77.0801 74.713 84.2371 76.625" stroke="#060305" stroke-width="0.8" stroke-miterlimit="10" stroke-linecap="round" stroke-linejoin="round"/>
<path d="M271.548 71.124C269.985 71.996 268.117 72.308 266.355 71.99C264.593 71.673 262.952 70.728 261.792 69.365C261.043 68.485 260.449 66.824 260.823 65.731C253.39 65.071 245.98 64.059 238.525 63.75C222.106 63.07 205.54 63.396 189.107 63.491C191.236 77.425 193.265 91.086 195.394 105.02C198.961 104.772 202.492 104.248 206.06 104.001C204.726 106.942 203.577 109.48 202.244 112.422L283.301 133.468C284.706 131.263 286.055 129.005 287.461 126.8C289.65 128.064 291.858 129.198 294.047 130.462C301.642 117.796 308.731 105.312 316.326 92.646C301.162 85.93 286.198 78.897 271.548 71.124Z" fill="white"/>
<path d="M254.181 65.795C253.929 70.907 257.155 76.012 261.88 77.978C266.606 79.944 272.501 78.634 275.949 74.851" stroke="#060305" stroke-width="0.8" stroke-miterlimit="10" stroke-linecap="round" stroke-linejoin="round"/>
<path d="M205.944 104.604C208.281 102.732 210.618 100.861 212.955 98.989" stroke="#060305" stroke-width="0.8" stroke-miterlimit="10" stroke-linecap="round" stroke-linejoin="round"/>
<path d="M286.906 127.422C288.209 125.488 289.512 123.554 290.816 121.62" stroke="#060305" stroke-width="0.8" stroke-miterlimit="10" stroke-linecap="round" stroke-linejoin="round"/>
<path d="M292.194 128.328C299.289 116.331 306.385 104.333 313.48 92.336" stroke="#060305" stroke-width="0.8" stroke-miterlimit="10" stroke-linecap="round" stroke-linejoin="round"/>
<path d="M192.357 64.452C194.133 77.757 195.909 91.061 197.685 104.366" stroke="#060305" stroke-width="0.8" stroke-miterlimit="10" stroke-linecap="round" stroke-linejoin="round"/>
<path d="M273.093 73.129C276.987 73.72 282.059 71.913 283.219 68.148C284.384 64.367 285.403 60.408 284.528 56.549C283.786 53.282 281.419 50.502 278.339 49.186C278.005 50.539 276.966 51.697 275.657 52.175C274.348 52.653 272.695 52.569 271.567 51.75C269.297 53.265 267.256 54.529 264.986 56.044C265.018 55.12 265.047 54.266 265.079 53.342C263.347 51.796 260.628 51.476 258.584 52.577C256.54 53.678 255.312 56.124 255.649 58.421C255.987 60.718 257.867 62.707 260.141 63.173C259.6 64.097 259.11 64.96 258.569 65.884C256.849 68.822 260.508 72.65 263.564 74.149C266.62 75.65 270.455 75.28 273.093 73.129Z" fill="#FF9A7D"/>
<path d="M271.915 64.724C271.445 65.628 271.986 66.898 272.964 67.186C273.942 67.474 275.084 66.699 275.179 65.684L271.915 64.724Z" fill="white"/>
<path d="M283.875 62.122C283.875 61.644 283.487 61.256 283.009 61.256C282.531 61.256 282.143 61.644 282.143 62.122C282.143 62.6 282.531 62.988 283.009 62.988C283.488 62.989 283.875 62.601 283.875 62.122Z" fill="#060305"/>
<path d="M272.61 61.716C272.61 61.238 272.222 60.85 271.744 60.85C271.266 60.85 270.878 61.238 270.878 61.716C270.878 62.194 271.266 62.582 271.744 62.582C272.222 62.582 272.61 62.195 272.61 61.716Z" fill="#060305"/>
<path d="M260.134 54.576C260.699 55.579 261.264 56.581 261.829 57.584" stroke="#060305" stroke-width="0.8" stroke-miterlimit="10" stroke-linecap="round" stroke-linejoin="round"/>
<path d="M269.879 55.858C270.398 55.318 271.139 54.999 271.888 54.994C272.637 54.989 273.383 55.298 273.909 55.83" stroke="#060305" stroke-width="0.8" stroke-miterlimit="10" stroke-linecap="round" stroke-linejoin="round"/>
<path d="M281.084 55.459C281.912 55.438 282.74 55.417 283.568 55.396" stroke="#060305" stroke-width="0.8" stroke-miterlimit="10" stroke-linecap="round" stroke-linejoin="round"/>
<path d="M278.402 61.968C278.469 62.987 278.537 64.006 278.604 65.025C278.267 64.984 277.92 65.183 277.583 65.142" stroke="#060305" stroke-width="0.8" stroke-miterlimit="10" stroke-linecap="round" stroke-linejoin="round"/>
<path d="M264.713 68.358C266.617 71.254 269.924 73.18 273.383 73.407" stroke="#060305" stroke-width="0.8" stroke-miterlimit="10" stroke-linecap="round" stroke-linejoin="round"/>
<path d="M259.874 63.05C260.108 63.199 260.341 63.347 260.575 63.496" stroke="#060305" stroke-width="0.8" stroke-miterlimit="10" stroke-linecap="round" stroke-linejoin="round"/>
<path d="M275.556 53.413C276.555 53.115 277.427 52.414 277.934 51.503C278.441 50.592 278.577 49.482 278.304 48.476" stroke="#060305" stroke-width="0.8" stroke-miterlimit="10" stroke-linecap="round" stroke-linejoin="round"/>
<path d="M279.972 145.602C281.862 140.951 284.172 136.436 286.049 131.78C284.042 127.85 283.897 123.175 285.029 118.91C288.341 106.426 291.729 94.386 295.042 81.902C292.125 80.274 289.401 79.112 286.484 77.483C282.593 89.392 278.607 101.263 274.716 113.172C261.199 108.812 247.637 104.768 234.12 100.408C237.907 87.741 241.691 74.848 245.478 62.181C242.293 62.248 238.851 62.672 235.666 62.738C232.375 71.047 229.084 79.357 225.793 87.666C223.737 92.857 221.596 98.184 217.76 102.24C213.924 106.296 207.858 109.195 202.572 107.396C201.392 109.831 200.212 112.266 199.033 114.701C186.789 122.626 176.6 133.486 170.136 146.561C163.672 159.636 160.812 174.469 161.951 189.01L223.455 206.608C224.523 201.496 225.879 196.083 226.947 190.971C228.034 200.323 229.12 209.675 230.207 219.028C230.328 218.779 230.708 218.81 230.829 218.561C252.923 213.556 275.276 207.827 297.369 202.822C291.594 183.952 285.75 164.48 279.972 145.602Z" fill="#814EFF"/>
<path d="M200.013 114.239C223.143 131.287 251.063 141.762 279.699 144.133" stroke="#060305" stroke-width="0.8" stroke-miterlimit="10" stroke-linecap="round" stroke-linejoin="round"/>
<path d="M197.002 116.359C219.645 135.868 249.232 147.145 279.115 147.657" stroke="#060305" stroke-width="0.8" stroke-miterlimit="10" stroke-linecap="round" stroke-linejoin="round"/>
<path d="M237.123 112.1C235.846 117.529 237.66 123.576 241.713 127.407C245.766 131.237 251.907 132.706 257.255 131.124C262.603 129.542 266.956 124.969 268.273 119.55L237.123 112.1Z" stroke="#060305" stroke-width="0.8" stroke-miterlimit="10" stroke-linecap="round" stroke-linejoin="round"/>
<path d="M162.881 179.84C183.492 186.022 204.102 192.203 224.713 198.385" stroke="#060305" stroke-width="0.8" stroke-miterlimit="10" stroke-linecap="round" stroke-linejoin="round"/>
<path d="M226.926 193.279C228.14 187.47 229.354 181.662 230.568 175.853" stroke="#060305" stroke-width="0.8" stroke-miterlimit="10" stroke-linecap="round" stroke-linejoin="round"/>
<path d="M229.598 208.22C251.208 204.478 272.596 199.447 293.608 193.162" stroke="#060305" stroke-width="0.8" stroke-miterlimit="10" stroke-linecap="round" stroke-linejoin="round"/>
<path d="M167.149 180.638C166.729 168.479 169.481 156.223 175.06 145.411C180.639 134.599 189.032 125.254 199.185 118.55" stroke="#060305" stroke-width="0.8" stroke-miterlimit="10" stroke-linecap="round" stroke-linejoin="round"/>
<path d="M180.898 136.628C190.966 136.173 200.861 132.441 208.722 126.134" stroke="#060305" stroke-width="0.8" stroke-miterlimit="10" stroke-linecap="round" stroke-linejoin="round"/>
<path d="M274.728 147.564C277.776 151.584 280.824 155.604 283.872 159.623" stroke="#060305" stroke-width="0.8" stroke-miterlimit="10" stroke-linecap="round" stroke-linejoin="round"/>
<path d="M170.176 284.613C168.775 283.932 167.366 283.227 165.961 282.537C166.536 279.82 166.075 276.875 164.6 274.515C162.617 271.342 158.884 269.346 155.145 269.459C152.154 269.549 149.266 271 147.308 273.253C140.919 270.049 134.533 266.853 128.184 263.766C125.066 272.366 121.947 280.966 118.829 289.566L167.365 316.144C168.793 314.331 167.92 311.988 166.925 309.906C163.158 302.023 164.618 291.353 170.176 284.613Z" fill="#2A2A59"/>
<path d="M120.512 285.532C135.65 294.168 150.788 302.804 165.927 311.44" stroke="#060305" stroke-width="0.8" stroke-miterlimit="10" stroke-linecap="round" stroke-linejoin="round"/>
<path d="M122.995 279.039C124.634 281.478 125.32 284.539 124.878 287.444" stroke="#060305" stroke-width="0.8" stroke-miterlimit="10" stroke-linecap="round" stroke-linejoin="round"/>
<path d="M308.991 345.489C301.258 338.987 297.41 327.901 299.963 318.125C297.292 317.379 294.374 317.547 291.808 318.597C289.241 319.647 286.803 321.879 285.421 324.283C274.216 323.088 263.011 321.892 251.806 320.697C252.819 329.36 253.481 338.208 254.494 346.871L312.995 350.507C313.055 348.236 310.731 346.952 308.991 345.489Z" fill="#2A2A59"/>
<path d="M255.203 342.921C273.748 344.529 292.293 346.137 310.838 347.745" stroke="#060305" stroke-width="0.8" stroke-miterlimit="10" stroke-linecap="round" stroke-linejoin="round"/>
<path d="M254.459 334.828C256.749 334.691 259.081 335.535 260.752 337.106C262.423 338.677 263.41 340.952 263.415 343.246" stroke="#060305" stroke-width="0.8" stroke-miterlimit="10" stroke-linecap="round" stroke-linejoin="round"/>
<path d="M78.2871 207.948H50.6831C46.7711 207.948 43.5991 211.119 43.5991 215.031V229.972C43.5991 233.884 46.7711 237.056 50.6831 237.056H50.8111L55.2381 244.918L59.6651 237.056H78.2881C82.2001 237.056 85.3721 233.884 85.3721 229.972V215.031C85.3701 211.119 82.1991 207.948 78.2871 207.948Z" fill="#FE5615"/>
<path d="M64.485 216.986C57.238 208.525 45.12 222.317 64.485 231.162C83.85 222.317 71.732 208.525 64.485 216.986Z" fill="white"/>
<path d="M46.6143 214.733C46.9233 212.648 48.5783 210.828 50.6233 210.322" stroke="white" stroke-width="0.8" stroke-miterlimit="10" stroke-linecap="round" stroke-linejoin="round"/>
<path d="M145.196 214.343H117.592C113.68 214.343 110.508 217.514 110.508 221.426V236.367C110.508 240.279 113.679 243.451 117.592 243.451H117.72L122.147 251.313L126.574 243.451H145.196C149.108 243.451 152.28 240.279 152.28 236.367V221.426C152.28 217.515 149.109 214.343 145.196 214.343Z" fill="#FE5615"/>
<path d="M131.394 218.378L134.789 225.257L142.381 226.36L136.888 231.715L138.184 239.276L131.394 235.706L124.604 239.276L125.901 231.715L120.407 226.36L127.999 225.257L131.394 218.378Z" fill="white"/>
<path d="M113.276 221.357C113.585 219.272 115.24 217.452 117.285 216.946" stroke="white" stroke-width="0.8" stroke-miterlimit="10" stroke-linecap="round" stroke-linejoin="round"/>
<path d="M93.8701 166.014H121.474C125.386 166.014 128.558 169.185 128.558 173.097V188.037C128.558 191.949 125.386 195.121 121.474 195.121H121.346L116.919 202.983L112.492 195.121H93.8701C89.9581 195.121 86.7861 191.95 86.7861 188.037V173.097C86.7861 169.185 89.9581 166.014 93.8701 166.014Z" fill="#814EFF"/>
<path d="M111.733 175.77L103.983 186.045L108.959 191.897L117.375 169.821L95.7764 179.394L101.882 184.053L111.733 175.77Z" fill="white"/>
<path d="M89.3662 172.777C89.6752 170.693 91.3302 168.872 93.3752 168.366" stroke="white" stroke-width="0.8" stroke-miterlimit="10" stroke-linecap="round" stroke-linejoin="round"/>
</svg>
