<svg width="446" height="373" viewBox="0 0 446 373" fill="none" xmlns="http://www.w3.org/2000/svg">
<path d="M214.132 372.647C331.974 372.647 427.504 369.312 427.504 365.198C427.504 361.084 331.974 357.749 214.132 357.749C96.2899 357.749 0.759995 361.084 0.759995 365.198C0.759995 369.312 96.2899 372.647 214.132 372.647Z" fill="#FF8A05"/>
<path d="M414.709 145.638C417.873 144.779 421.275 145.014 424.39 143.993C432.167 141.442 435.53 131.231 432.463 123.643C429.395 116.055 421.568 111.23 413.553 109.574C405.538 107.918 397.241 108.923 389.12 109.934L343.473 50.765C307.198 35.781 266.479 31.755 227.972 39.343C222.237 40.474 216.281 41.852 210.63 40.36C204.978 38.867 199.885 33.344 201.162 27.64C202.155 23.207 206.5 20.189 207.773 15.828C209.538 9.784 204.422 3.43299 198.382 1.65499C192.341 -0.122008 185.861 1.46499 179.858 3.36499C155.264 11.151 132.38 24.289 113.256 41.601C97.933 55.472 90.768 77.129 85.208 97.036C79.649 116.943 79.38 138.625 86.52 158.021C93.66 177.417 108.604 194.241 127.871 201.722C133.254 220.49 146.103 236.796 161.327 249.022C172.151 257.714 184.829 263.972 198.117 267.989C241.193 281.011 290.916 268.876 323.151 237.474C335.05 225.882 347.775 215.834 363.363 210.091C374.646 205.934 385.049 204.252 396.646 201.072C403.444 199.208 410.34 197.302 416.376 193.663C422.413 190.024 427.586 184.362 429.011 177.459C430.437 170.556 427.257 162.515 420.765 159.77C418.466 158.798 415.928 158.514 413.603 157.605C411.278 156.697 409.029 154.879 408.745 152.399C408.371 149.144 411.545 146.498 414.709 145.638Z" fill="#FF8A05"/>
<path d="M158.784 263.987C142.885 265.205 127.486 265.329 111.587 266.548C113.736 294.679 118.011 322.671 124.905 350.03L169.517 343.04C165.939 316.689 162.361 290.338 158.784 263.987Z" fill="#FFD1C7"/>
<path d="M184.045 359.297C178.979 355.479 174.477 350.396 172.769 344.286C171.823 340.902 170.811 337.587 169.865 334.204C166.241 332.382 161.81 332.249 158.083 333.85C154.356 335.451 150.862 339.071 149.689 342.954C140.251 341.731 130.813 340.509 121.375 339.286C123.321 347.801 124.831 356.087 126.777 364.603L188.659 364.647C188.174 362.307 185.954 360.735 184.045 359.297Z" fill="#060305"/>
<path d="M125.658 360.725C146.019 361.068 166.38 361.41 186.741 361.753" stroke="white" stroke-width="0.8" stroke-miterlimit="10" stroke-linecap="round" stroke-linejoin="round"/>
<path d="M90.014 267.184C75.211 268.262 59.843 269.963 45.04 271.041C46.833 295.447 48.626 319.853 50.42 344.26L92.525 352.732C96.887 324.429 95.846 295.221 90.014 267.184Z" fill="#FFD1C7"/>
<path d="M63.74 344.008C60.045 339.591 53.645 337.65 48.119 339.27C48.543 343.408 46.92 347.464 44.824 351.056C42.729 354.649 39.471 357.551 35.661 359.219C33.494 360.168 31.382 361.793 31.124 364.144L93.155 365.134C94.022 355.951 94.889 346.887 95.757 337.704C85.14 339.733 74.357 341.979 63.74 344.008Z" fill="#060305"/>
<path d="M34.056 362.152C53.536 361.182 73.017 360.212 92.497 359.243" stroke="white" stroke-width="0.8" stroke-miterlimit="10" stroke-linecap="round" stroke-linejoin="round"/>
<path d="M140.164 125.908L162.776 272.476L40.115 272.818L44.231 168.694L55.013 123.51L140.164 125.908Z" fill="#2A2A59"/>
<path d="M85.495 133.438C84.517 138.632 83.54 143.826 82.563 149.02" stroke="#060305" stroke-width="0.8" stroke-miterlimit="10" stroke-linecap="round" stroke-linejoin="round"/>
<path d="M41.109 257.774C80.343 257.058 119.577 256.342 158.812 255.626" stroke="#060305" stroke-width="0.8" stroke-miterlimit="10" stroke-linecap="round" stroke-linejoin="round"/>
<path d="M84.65 57.488C84.553 56.269 85.562 55.19 86.705 54.753C87.848 54.316 89.107 54.36 90.33 54.325C91.553 54.29 92.843 54.146 93.824 53.415C94.61 52.829 95.106 51.927 95.422 50.999C95.738 50.071 95.895 49.097 96.147 48.15C96.928 45.207 98.647 42.519 100.991 40.575C103.335 38.631 106.294 37.44 109.331 37.216" stroke="#FE5615" stroke-width="0.8" stroke-miterlimit="10" stroke-linecap="round" stroke-linejoin="round"/>
<path d="M124.4 59.734C124.927 61.227 126.261 62.29 127.652 63.048C129.042 63.806 130.554 64.348 131.856 65.25C134.352 66.978 135.87 70.032 135.74 73.065" stroke="#FE5615" stroke-width="0.8" stroke-miterlimit="10" stroke-linecap="round" stroke-linejoin="round"/>
<path d="M130.417 64.921C129.309 64.181 128.021 63.73 126.959 62.925C125.312 61.676 124.367 59.675 123.982 57.644C123.598 55.613 123.656 53.325 123.776 51.261C125.325 50.476 126.491 48.975 126.871 47.281C127.251 45.586 127.001 43.874 125.922 42.514C122.009 37.581 115.21 35.126 109.048 36.422C102.886 37.717 97.651 42.702 96.056 48.794C95.681 50.228 95.483 51.734 94.78 53.038C94.077 54.342 92.3 55.734 90.868 55.354C88.789 54.803 86.396 56.173 85.818 58.243C85.51 59.345 85.556 60.736 84.581 61.336C83.959 61.718 83.169 61.594 82.44 61.602C80.775 61.618 79.137 62.439 78.127 63.763C77.117 65.086 76.757 66.883 77.179 68.493L130.111 78.114C132.354 76.762 133.829 74.22 133.889 71.602C133.951 68.983 132.595 66.375 130.417 64.921Z" fill="#FE5615"/>
<path d="M117.45 66.302C115.505 67.96 112.79 68.673 110.281 68.185C107.772 67.696 105.586 65.849 104.405 63.583C96.388 64.894 88.372 66.205 80.355 67.516C78.952 89.186 76.719 110.576 75.316 132.246L130.382 137.276C133.104 117.34 136.051 97.636 138.772 77.7C131.529 73.997 124.693 70.005 117.45 66.302Z" fill="white"/>
<path d="M99.105 65.758C100.091 70.606 104.261 74.642 109.138 75.47C114.015 76.299 119.284 73.865 121.815 69.615" stroke="#060305" stroke-width="0.8" stroke-miterlimit="10" stroke-linecap="round" stroke-linejoin="round"/>
<path d="M82.151 128.472C83.098 129.059 84.045 129.646 84.992 130.233" stroke="#D8DBFF" stroke-width="0.8" stroke-miterlimit="10" stroke-linecap="round" stroke-linejoin="round"/>
<path d="M87.044 117.712C87.499 117.133 87.954 116.553 88.41 115.974" stroke="#D8DBFF" stroke-width="0.8" stroke-miterlimit="10" stroke-linecap="round" stroke-linejoin="round"/>
<path d="M86.062 93.672C87.181 93.826 88.3 93.98 89.419 94.134" stroke="#D8DBFF" stroke-width="0.8" stroke-miterlimit="10" stroke-linecap="round" stroke-linejoin="round"/>
<path d="M96.288 109.291C96.588 110.239 96.889 111.188 97.189 112.136" stroke="#D8DBFF" stroke-width="0.8" stroke-miterlimit="10" stroke-linecap="round" stroke-linejoin="round"/>
<path d="M85.939 107.174C85.154 107.837 84.369 108.501 83.584 109.164" stroke="#D8DBFF" stroke-width="0.8" stroke-miterlimit="10" stroke-linecap="round" stroke-linejoin="round"/>
<path d="M94.249 125.948C95.78 125.781 97.311 125.614 98.842 125.448" stroke="#D8DBFF" stroke-width="0.8" stroke-miterlimit="10" stroke-linecap="round" stroke-linejoin="round"/>
<path d="M105.96 128.54C106.309 129.569 106.657 130.597 107.006 131.626" stroke="#D8DBFF" stroke-width="0.8" stroke-miterlimit="10" stroke-linecap="round" stroke-linejoin="round"/>
<path d="M107.533 113.879C108.65 113.589 109.768 113.3 110.885 113.011" stroke="#D8DBFF" stroke-width="0.8" stroke-miterlimit="10" stroke-linecap="round" stroke-linejoin="round"/>
<path d="M104.142 103.942C104.307 104.522 104.471 105.101 104.635 105.681" stroke="#D8DBFF" stroke-width="0.8" stroke-miterlimit="10" stroke-linecap="round" stroke-linejoin="round"/>
<path d="M118.942 106.951C120.474 107.277 122.006 107.604 123.539 107.93" stroke="#D8DBFF" stroke-width="0.8" stroke-miterlimit="10" stroke-linecap="round" stroke-linejoin="round"/>
<path d="M125.954 96.157C125.022 97.045 124.091 97.933 123.159 98.822" stroke="#D8DBFF" stroke-width="0.8" stroke-miterlimit="10" stroke-linecap="round" stroke-linejoin="round"/>
<path d="M111.626 96.979C112.164 98.179 112.702 99.379 113.24 100.579" stroke="#D8DBFF" stroke-width="0.8" stroke-miterlimit="10" stroke-linecap="round" stroke-linejoin="round"/>
<path d="M124.032 87.107C125.108 87.271 126.184 87.435 127.261 87.599" stroke="#D8DBFF" stroke-width="0.8" stroke-miterlimit="10" stroke-linecap="round" stroke-linejoin="round"/>
<path d="M96.852 96.483C96.811 97.435 96.769 98.387 96.728 99.338" stroke="#D8DBFF" stroke-width="0.8" stroke-miterlimit="10" stroke-linecap="round" stroke-linejoin="round"/>
<path d="M87.789 82.702C87.127 83.571 86.465 84.44 85.803 85.309" stroke="#D8DBFF" stroke-width="0.8" stroke-miterlimit="10" stroke-linecap="round" stroke-linejoin="round"/>
<path d="M95.361 86.782C96.602 86.695 97.843 86.608 99.085 86.521" stroke="#D8DBFF" stroke-width="0.8" stroke-miterlimit="10" stroke-linecap="round" stroke-linejoin="round"/>
<path d="M94.742 74.632C94.825 75.542 94.907 76.453 94.99 77.363" stroke="#D8DBFF" stroke-width="0.8" stroke-miterlimit="10" stroke-linecap="round" stroke-linejoin="round"/>
<path d="M87.293 69.294C86.589 70.163 85.886 71.032 85.182 71.901" stroke="#D8DBFF" stroke-width="0.8" stroke-miterlimit="10" stroke-linecap="round" stroke-linejoin="round"/>
<path d="M106.909 80.479C107.944 80.4 108.979 80.321 110.014 80.243" stroke="#D8DBFF" stroke-width="0.8" stroke-miterlimit="10" stroke-linecap="round" stroke-linejoin="round"/>
<path d="M108.417 89.655C108.382 90.566 108.346 91.476 108.311 92.387" stroke="#D8DBFF" stroke-width="0.8" stroke-miterlimit="10" stroke-linecap="round" stroke-linejoin="round"/>
<path d="M128.076 75.969C127.661 76.879 127.247 77.789 126.833 78.699" stroke="#D8DBFF" stroke-width="0.8" stroke-miterlimit="10" stroke-linecap="round" stroke-linejoin="round"/>
<path d="M116.751 87.684C116.912 88.595 117.073 89.506 117.234 90.418" stroke="#D8DBFF" stroke-width="0.8" stroke-miterlimit="10" stroke-linecap="round" stroke-linejoin="round"/>
<path d="M52.425 78.006C47.264 82.406 42.103 86.807 36.942 91.207C42.595 95.533 48.097 99.511 53.75 103.837C51.804 103.95 49.883 103.933 47.937 104.046C42.132 130.474 35.93 156.753 30.125 183.18C45.203 185.916 60.814 188.976 75.892 191.712L82.333 65.633C71.357 66.782 60.822 70.846 52.425 78.006Z" fill="#814EFF"/>
<path d="M69.947 69.311C68.239 76.1 66.53 82.889 64.822 89.678C69.756 89.858 74.442 90.382 79.377 90.562" stroke="#060305" stroke-width="0.8" stroke-miterlimit="10" stroke-linecap="round" stroke-linejoin="round"/>
<path d="M171.733 103.036C167.802 97.723 163.844 92.384 159.069 87.816C154.294 83.248 148.718 79.959 142.572 77.53C140.607 76.753 138.642 75.977 136.676 75.2L124.425 168.694L171.733 103.036Z" fill="#814EFF"/>
<path d="M148.05 81.213C148.221 88.042 147.998 94.846 148.17 101.675C143.569 100.492 138.969 99.309 134.368 98.126" stroke="#060305" stroke-width="0.8" stroke-miterlimit="10" stroke-linecap="round" stroke-linejoin="round"/>
<path d="M207.68 153.364C211.049 167.703 225.401 176.593 239.74 173.224L244.135 191.928C245.67 198.462 241.626 204.991 235.092 206.527L216.388 210.922C213.019 196.583 198.667 187.692 184.327 191.061C169.988 194.43 161.097 208.783 164.466 223.122L145.762 227.517C139.228 229.052 132.674 225.013 131.139 218.479L125.385 193.99C123.877 194.739 122.265 195.381 120.544 195.786C119.946 195.927 119.366 196.036 118.781 196.121C107.897 197.732 97.414 190.748 94.859 179.875C92.216 168.627 98.949 157.413 110.003 154.396C110.246 154.312 110.521 154.247 110.77 154.189C112.491 153.785 114.215 153.617 115.904 153.64L110.15 129.151C108.615 122.617 112.678 116.057 119.212 114.522L143.701 108.768C142.927 107.265 142.31 105.647 141.906 103.927C139.204 92.43 146.321 80.943 157.818 78.242C169.289 75.547 180.802 82.656 183.503 94.153C183.907 95.874 184.051 97.603 184.052 99.287L208.541 93.533C215.075 91.998 221.61 96.067 223.145 102.601L227.54 121.305C213.201 124.672 204.311 139.025 207.68 153.364Z" fill="#FE5615"/>
<path d="M129.061 129.72C128.461 127.168 125.906 125.585 123.354 126.185C120.802 126.785 119.219 129.34 119.819 131.892C120.419 134.444 122.974 136.027 125.526 135.427C128.078 134.827 129.661 132.272 129.061 129.72Z" fill="#FF9A7D"/>
<path d="M156.786 123.206C156.186 120.654 153.631 119.071 151.079 119.671C148.527 120.271 146.944 122.826 147.544 125.378C148.144 127.93 150.699 129.513 153.251 128.913C155.803 128.313 157.386 125.758 156.786 123.206Z" fill="#FF9A7D"/>
<path d="M184.883 116.604C184.283 114.052 181.728 112.469 179.176 113.069C176.624 113.669 175.041 116.224 175.641 118.776C176.241 121.328 178.796 122.911 181.348 122.311C183.9 121.711 185.483 119.156 184.883 116.604Z" fill="#FF9A7D"/>
<path d="M165.188 98.902C164.588 96.35 162.033 94.767 159.481 95.367C156.929 95.967 155.346 98.522 155.946 101.074C156.546 103.626 159.101 105.209 161.653 104.609C164.205 104.009 165.788 101.454 165.188 98.902Z" fill="#FF9A7D"/>
<path d="M213.957 109.772C213.357 107.22 210.802 105.637 208.25 106.237C205.698 106.837 204.115 109.392 204.715 111.944C205.315 114.496 207.87 116.079 210.422 115.479C212.973 114.879 214.556 112.324 213.957 109.772Z" fill="#FF9A7D"/>
<path d="M119.265 154.165C119.863 156.709 118.279 159.265 115.735 159.863C113.191 160.461 110.635 158.877 110.037 156.333C109.885 155.685 109.863 155.032 110.003 154.394C110.246 154.31 110.521 154.245 110.77 154.187C112.491 153.783 114.215 153.615 115.904 153.638L115.178 150.546C117.115 150.723 118.791 152.145 119.265 154.165Z" fill="#FF9A7D"/>
<path d="M146.993 147.642C146.393 145.09 143.838 143.507 141.286 144.107C138.734 144.707 137.151 147.262 137.751 149.814C138.351 152.366 140.906 153.949 143.458 153.349C146.01 152.749 147.593 150.194 146.993 147.642Z" fill="#FF9A7D"/>
<path d="M175.09 141.04C174.49 138.488 171.935 136.905 169.383 137.505C166.831 138.105 165.248 140.66 165.848 143.212C166.448 145.764 169.003 147.347 171.555 146.747C174.107 146.147 175.689 143.592 175.09 141.04Z" fill="#FF9A7D"/>
<path d="M204.163 134.209C203.563 131.657 201.008 130.074 198.456 130.674C195.904 131.274 194.321 133.829 194.921 136.381C195.521 138.933 198.076 140.516 200.628 139.916C203.18 139.316 204.763 136.761 204.163 134.209Z" fill="#FF9A7D"/>
<path d="M138.109 171.098C137.509 168.546 134.954 166.963 132.402 167.563C129.85 168.163 128.267 170.718 128.867 173.27C129.467 175.822 132.022 177.405 134.574 176.805C137.126 176.205 138.709 173.65 138.109 171.098Z" fill="#FF9A7D"/>
<path d="M109.357 177.854C108.757 175.302 106.202 173.719 103.65 174.319C101.098 174.919 99.515 177.474 100.115 180.026C100.715 182.578 103.27 184.161 105.822 183.561C108.374 182.961 109.956 180.406 109.357 177.854Z" fill="#FF9A7D"/>
<path d="M165.834 164.583C165.234 162.031 162.679 160.448 160.127 161.048C157.575 161.648 155.992 164.203 156.592 166.755C157.192 169.307 159.747 170.89 162.299 170.29C164.851 169.691 166.434 167.135 165.834 164.583Z" fill="#FF9A7D"/>
<path d="M193.931 157.982C193.331 155.43 190.776 153.847 188.224 154.447C185.672 155.047 184.089 157.602 184.689 160.154C185.289 162.706 187.844 164.289 190.396 163.689C192.948 163.089 194.531 160.533 193.931 157.982Z" fill="#FF9A7D"/>
<path d="M128.1 194.562C128.516 196.332 127.907 198.108 126.611 199.201L125.386 193.989C123.878 194.738 122.266 195.38 120.545 195.785C119.947 195.926 119.367 196.035 118.782 196.12C118.523 193.787 120.033 191.59 122.377 191.039C124.945 190.435 127.502 192.019 128.1 194.562Z" fill="#FF9A7D"/>
<path d="M155.816 188.061C155.216 185.509 152.661 183.926 150.109 184.526C147.557 185.126 145.974 187.681 146.574 190.233C147.174 192.785 149.729 194.368 152.281 193.768C154.833 193.168 156.415 190.613 155.816 188.061Z" fill="#FF9A7D"/>
<path d="M147.157 212.476C146.557 209.924 144.002 208.341 141.45 208.941C138.898 209.541 137.315 212.096 137.915 214.648C138.515 217.2 141.07 218.783 143.622 218.183C146.174 217.583 147.756 215.028 147.157 212.476Z" fill="#FF9A7D"/>
<path d="M183.912 181.459C183.312 178.907 180.757 177.324 178.205 177.924C175.653 178.524 174.07 181.079 174.67 183.631C175.27 186.183 177.825 187.766 180.377 187.166C182.929 186.566 184.512 184.011 183.912 181.459Z" fill="#FF9A7D"/>
<path d="M212.986 174.627C212.386 172.075 209.831 170.492 207.279 171.092C204.727 171.692 203.144 174.247 203.744 176.799C204.344 179.351 206.899 180.934 209.451 180.334C212.003 179.734 213.585 177.179 212.986 174.627Z" fill="#FF9A7D"/>
<path d="M231.466 192.666C230.866 190.114 228.311 188.531 225.759 189.131C223.207 189.731 221.624 192.286 222.224 194.838C222.824 197.39 225.379 198.973 227.931 198.373C230.483 197.773 232.065 195.218 231.466 192.666Z" fill="#FF9A7D"/>
<path d="M112.758 125.719C112.838 122.531 114.816 119.462 117.687 118.073" stroke="white" stroke-width="0.8" stroke-miterlimit="10" stroke-linecap="round" stroke-linejoin="round"/>
<path d="M144.62 94.709C145.135 91.355 146.718 88.173 149.083 85.739C151.448 83.305 154.584 81.632 157.922 81.022" stroke="white" stroke-width="0.8" stroke-miterlimit="10" stroke-linecap="round" stroke-linejoin="round"/>
<path d="M189.426 99.902C195.695 98.456 201.963 97.01 208.232 95.565" stroke="white" stroke-width="0.8" stroke-miterlimit="10" stroke-linecap="round" stroke-linejoin="round"/>
<path d="M162.203 207.861C165.173 198.792 172.993 191.474 182.239 189.112" stroke="white" stroke-width="0.8" stroke-miterlimit="10" stroke-linecap="round" stroke-linejoin="round"/>
<path d="M117.74 67.874C118.072 66.508 118.429 65.109 118.76 63.744C121.005 63.366 123.087 62.098 124.453 60.277C125.819 58.456 126.469 56.224 126.214 53.962C125.893 51.118 125.273 48.375 124.414 45.645C122.897 46.641 120.823 46.66 119.416 45.515C116.481 47.08 112.521 46.778 109.98 44.631C108.567 46.924 107.05 49.163 105.637 51.455C105.212 50.884 104.724 50.266 104.299 49.695C102.244 49.351 100.029 50.3 98.861 52.025C97.693 53.75 97.633 56.159 98.715 57.939C99.797 59.719 101.962 60.777 104.031 60.535C103.684 62.005 103.356 63.481 103.009 64.951C104.086 67.761 106.611 69.972 109.557 70.581C112.503 71.19 115.637 70.026 117.74 67.874Z" fill="#FFD1C7"/>
<path d="M124.079 51.201C124.079 50.735 123.701 50.357 123.235 50.357C122.769 50.357 122.391 50.735 122.391 51.201C122.391 51.667 122.769 52.045 123.235 52.045C123.701 52.045 124.079 51.667 124.079 51.201Z" fill="#060305"/>
<path d="M113.908 52.972C113.908 52.506 113.53 52.128 113.064 52.128C112.598 52.128 112.22 52.506 112.22 52.972C112.22 53.438 112.598 53.816 113.064 53.816C113.53 53.816 113.908 53.438 113.908 52.972Z" fill="#060305"/>
<path d="M101.375 52.859C102.224 53.313 103.073 53.767 103.922 54.222" stroke="#060305" stroke-width="0.8" stroke-miterlimit="10" stroke-linecap="round" stroke-linejoin="round"/>
<path d="M109.709 44.396C112.081 46.709 115.663 47.705 118.888 46.947" stroke="#FE5615" stroke-width="0.8" stroke-miterlimit="10" stroke-linecap="round" stroke-linejoin="round"/>
<path d="M118.705 51.539C119.098 52.284 119.492 53.029 119.885 53.773C119.493 53.861 118.974 54.14 118.582 54.229" stroke="#060305" stroke-width="0.8" stroke-miterlimit="10" stroke-linecap="round" stroke-linejoin="round"/>
<path d="M115.85 54.893C115.669 55.386 115.888 55.993 116.342 56.257C116.796 56.521 117.432 56.41 117.771 56.008" stroke="#060305" stroke-width="0.8" stroke-miterlimit="10" stroke-linecap="round" stroke-linejoin="round"/>
<path d="M111.11 49.854C111.673 48.766 113.119 48.235 114.253 48.699" stroke="#060305" stroke-width="0.8" stroke-miterlimit="10" stroke-linecap="round" stroke-linejoin="round"/>
<path d="M121.558 47.94C122.241 47.712 122.924 47.485 123.606 47.257" stroke="#060305" stroke-width="0.8" stroke-miterlimit="10" stroke-linecap="round" stroke-linejoin="round"/>
<path d="M112.151 63.744C114.429 64.52 116.95 64.565 119.255 63.872" stroke="#060305" stroke-width="0.8" stroke-miterlimit="10" stroke-linecap="round" stroke-linejoin="round"/>
<path d="M103.619 60.794C104.115 60.747 104.611 60.699 105.107 60.652" stroke="#060305" stroke-width="0.8" stroke-miterlimit="10" stroke-linecap="round" stroke-linejoin="round"/>
<path d="M111.173 167.996C110.415 167.26 109.275 167.092 108.218 167.096C107.161 167.101 106.083 167.239 105.062 166.966C108.477 166.08 111.804 165.086 115.219 164.2C115.321 163.062 114.319 161.902 113.292 161.401C112.265 160.899 111.088 160.83 109.947 160.769C108.435 160.689 106.923 160.609 105.41 160.528C107.418 160.349 109.309 160.141 111.316 159.961C111.539 159.144 111.433 158.166 111.061 157.406C110.689 156.646 110.032 156.029 109.25 155.705C99.17 151.528 88.464 148.104 78.023 144.935C74.994 144.015 68.484 144.813 68.484 144.813L64.573 135.49L66.582 109.055L41.228 91.93C41.228 91.93 33.718 112.39 32.449 119.614C30.773 129.157 27.704 142.487 33.344 152.528C38.809 162.255 41.7 165.731 45.575 170.315C48.711 174.025 52.361 177.996 56.936 179.63C63.552 181.992 70.752 183.486 77.648 184.825C77.648 184.825 96.227 180.985 105.658 179.142C105.985 178.465 105.553 177.55 104.932 177.126C104.311 176.703 103.533 176.599 102.787 176.506C100.661 176.242 98.535 175.977 96.409 175.713C101.612 173.814 106.813 171.947 112.016 170.049C112.07 169.336 111.686 168.494 111.173 167.996Z" fill="#FFD1C7"/>
<path d="M83.339 159.71C91.453 160.025 99.566 160.34 107.68 160.654" stroke="#060305" stroke-width="0.8" stroke-miterlimit="10" stroke-linecap="round" stroke-linejoin="round"/>
<path d="M82.64 169.994C90.517 169.466 98.364 168.478 106.126 167.037" stroke="#060305" stroke-width="0.8" stroke-miterlimit="10" stroke-linecap="round" stroke-linejoin="round"/>
<path d="M83.238 178.542C88.239 177.602 93.24 176.661 98.241 175.721" stroke="#060305" stroke-width="0.8" stroke-miterlimit="10" stroke-linecap="round" stroke-linejoin="round"/>
<path d="M68.795 144.587C65.94 144.648 63.085 144.708 60.23 144.769C54.592 144.889 49.369 149.394 46.802 154.415C44.236 159.436 44.192 165.671 46.687 170.728" stroke="#060305" stroke-width="0.8" stroke-miterlimit="10" stroke-linecap="round" stroke-linejoin="round"/>
<path d="M64.274 135.244C61.495 129.733 55.475 126.016 49.303 125.999" stroke="#060305" stroke-width="0.8" stroke-miterlimit="10" stroke-linecap="round" stroke-linejoin="round"/>
<path d="M389.716 324.649C375.615 328.849 361.04 333.652 346.939 337.852C348.961 345.083 347.212 353.259 342.41 359.03C340.99 360.737 338.646 362.449 338.256 364.635L366.983 365.113C375.6 360.995 384.359 355.406 392.976 351.288C392.023 342.171 390.668 333.766 389.716 324.649Z" fill="#814EFF"/>
<path d="M338.056 363.614C341.498 359.352 346.776 356.626 352.244 356.287C357.712 355.948 363.286 358.001 367.228 361.806C375.619 356.966 383.803 351.646 392.194 346.807" stroke="#060305" stroke-width="0.8" stroke-miterlimit="10" stroke-linecap="round" stroke-linejoin="round"/>
<path d="M352.105 343.79C355.836 343.208 359.566 342.626 363.297 342.045" stroke="#060305" stroke-width="0.8" stroke-miterlimit="10" stroke-linecap="round" stroke-linejoin="round"/>
<path d="M352.096 347.439C355.57 347.051 359.045 346.662 362.519 346.274" stroke="#060305" stroke-width="0.8" stroke-miterlimit="10" stroke-linecap="round" stroke-linejoin="round"/>
<path d="M288.682 336.351C289.46 344.161 285.864 352.264 279.552 356.927C276.592 359.114 272.435 360.9 271.232 364.378L330.814 365.197C331.963 355.951 333.446 347.028 334.595 337.783C319.203 337.347 304.075 336.789 288.682 336.351Z" fill="#814EFF"/>
<path d="M278.655 357.408C283.752 354.974 290.606 357.418 293.014 362.527C305.431 361.953 318.081 361.389 330.498 360.815" stroke="#060305" stroke-width="0.8" stroke-miterlimit="10" stroke-linecap="round" stroke-linejoin="round"/>
<path d="M288.046 344.1C290.777 344.225 293.509 344.35 296.24 344.474" stroke="#060305" stroke-width="0.8" stroke-miterlimit="10" stroke-linecap="round" stroke-linejoin="round"/>
<path d="M286.566 347.775C288.924 348.033 291.281 348.292 293.639 348.55" stroke="#060305" stroke-width="0.8" stroke-miterlimit="10" stroke-linecap="round" stroke-linejoin="round"/>
<path d="M395.038 156.595C394.366 152.458 393.694 148.322 393.022 144.185L299.023 147.082C294.851 210.33 290.826 274.582 286.654 337.83C303.314 339.487 320.734 341.391 337.394 343.047C338.107 326.079 338.977 308.875 339.691 291.907C341.219 307.877 343.841 323.591 345.37 339.561C361.644 336.497 376.568 332.46 392.841 329.396C390.989 300.736 381.624 243.943 381.624 243.943C381.624 243.943 389.651 204.541 393.187 184.627C394.842 175.301 396.556 165.944 395.038 156.595Z" fill="#2A2A59"/>
<path d="M339.795 295.746C338.606 286.056 337.416 276.366 336.227 266.676C335.209 258.384 334.012 249.346 334.236 240.995C334.89 216.599 336.026 193.848 336.999 175.721" stroke="#060305" stroke-width="0.8" stroke-miterlimit="10" stroke-linecap="round" stroke-linejoin="round"/>
<path d="M388.434 147.179C390.627 155.911 390.821 165.14 388.995 173.957C384.286 196.704 378.789 219.364 373.992 242.093C376.324 243.405 376.613 247.236 374.393 248.729C378.838 275.694 383.47 301.979 387.915 328.944" stroke="#060305" stroke-width="0.8" stroke-miterlimit="10" stroke-linecap="round" stroke-linejoin="round"/>
<path d="M336.998 277.473C334.885 298.715 332.772 319.957 330.659 341.198" stroke="#060305" stroke-width="0.8" stroke-miterlimit="10" stroke-linecap="round" stroke-linejoin="round"/>
<path d="M368.893 147.223C371.626 157.992 378.821 167.556 388.411 173.166" stroke="#060305" stroke-width="0.8" stroke-miterlimit="10" stroke-linecap="round" stroke-linejoin="round"/>
<path d="M298.45 172.411C303.704 170.229 308.014 165.87 310.138 160.593" stroke="#060305" stroke-width="0.8" stroke-miterlimit="10" stroke-linecap="round" stroke-linejoin="round"/>
<path d="M407.826 82.853C401.29 75.42 394.273 68.053 387.856 60.517C380.826 52.26 370.446 47.292 359.663 46.14C349.94 45.102 340.123 44.133 330.399 43.095C328.977 45.083 326.828 46.539 324.454 47.121C322.08 47.704 319.688 47.582 317.507 46.478C310.967 49.472 304.428 52.466 297.888 55.461C292.912 57.74 288.226 60.633 284.919 64.994C281.612 69.355 279.561 74.657 279.074 80.108L297.58 143.557L350.797 151.009C366.066 149.566 381.634 148.374 396.903 146.931C395.509 138.68 393.732 130.27 392.337 122.019C401.496 122.479 410.634 116.603 414.016 108.079C417.398 99.555 413.881 89.74 407.826 82.853Z" fill="white"/>
<path d="M380.288 77.482C387.474 79.198 394.661 80.913 401.847 82.629" stroke="#060305" stroke-width="0.8" stroke-miterlimit="10" stroke-linecap="round" stroke-linejoin="round"/>
<path d="M369.204 108.078C374.591 111.729 379.977 115.381 385.364 119.032C387.904 120.753 390.526 122.303 393.569 122.695" stroke="#060305" stroke-width="0.8" stroke-miterlimit="10" stroke-linecap="round" stroke-linejoin="round"/>
<path d="M309.634 50.676C311.091 54.48 312.547 58.284 314.003 62.089C317.117 57.927 320.141 53.651 323.255 49.489" stroke="#060305" stroke-width="0.8" stroke-miterlimit="10" stroke-linecap="round" stroke-linejoin="round"/>
<path d="M326.403 48.689C330.256 51.414 334.11 54.138 337.963 56.863C338.9 52.731 340.05 48.733 340.987 44.601" stroke="#060305" stroke-width="0.8" stroke-miterlimit="10" stroke-linecap="round" stroke-linejoin="round"/>
<path d="M369.098 48.563C368.199 48.634 367.489 49.423 367.221 50.284C366.953 51.145 367.036 52.07 367.122 52.968C367.826 60.345 368.529 67.722 369.233 75.099" stroke="#060305" stroke-width="0.8" stroke-miterlimit="10" stroke-linecap="round" stroke-linejoin="round"/>
<path d="M391.582 80.629C393.626 84.804 394.773 89.457 394.58 94.102C394.387 98.746 392.813 103.372 389.882 106.979C386.951 110.587 382.634 113.112 378.011 113.595" stroke="#060305" stroke-width="0.8" stroke-miterlimit="10" stroke-linecap="round" stroke-linejoin="round"/>
<path d="M340.213 144.722C358.136 142.245 376.06 139.769 393.983 137.293" stroke="#060305" stroke-width="0.8" stroke-miterlimit="10" stroke-linecap="round" stroke-linejoin="round"/>
<path d="M325.925 125.526C325.931 125.552 325.931 125.552 325.937 125.577C327.572 132.534 331.773 138.205 337.302 141.8C341.71 144.659 346.926 146.249 352.346 146.134C354.21 146.116 356.102 145.882 357.998 145.437L362.393 164.141C363.928 170.675 359.859 177.211 353.325 178.746L334.621 183.141C334.392 182.168 334.114 181.207 333.791 180.283C331.556 174.019 327.146 169.029 321.66 165.95C316.876 163.284 311.251 162.079 305.518 162.768C304.541 162.866 303.557 163.045 302.559 163.28C288.22 166.649 279.329 181.002 282.699 195.341L263.995 199.736C261.127 200.41 258.243 200.008 255.8 198.792C252.697 197.233 250.258 194.358 249.397 190.692L243.643 166.203C242.11 166.958 240.522 167.594 238.802 167.999C233.39 169.271 227.966 168.361 223.478 165.837C220.149 163.988 217.317 161.232 215.358 157.824C214.364 156.057 213.601 154.157 213.115 152.088C210.413 140.591 217.53 129.103 229.026 126.402C230.747 125.998 232.446 125.836 234.16 125.853L228.406 101.364C226.871 94.83 230.91 88.276 237.443 86.741L261.933 80.987C261.184 79.479 260.542 77.866 260.138 76.146C257.436 64.649 264.578 53.156 276.049 50.461C281.012 49.295 285.98 49.943 290.231 52.023C295.835 54.706 300.199 59.838 301.734 66.372C301.769 66.522 301.798 66.646 301.809 66.802C302.153 68.379 302.311 69.948 302.283 71.506L326.773 65.752C332.683 64.363 338.59 67.553 340.813 72.979C341.059 73.579 341.256 74.191 341.402 74.814L345.797 93.518C331.483 96.879 322.586 111.206 325.925 125.526Z" fill="#9E97FF"/>
<path d="M290.233 52.021L215.359 157.823C214.365 156.056 213.602 154.156 213.116 152.087C210.414 140.59 217.531 129.102 229.027 126.401C230.748 125.997 232.447 125.835 234.161 125.852L229.673 106.75L240.836 85.943L261.934 80.986C261.185 79.478 260.543 77.865 260.139 76.145C257.437 64.648 264.579 53.155 276.05 50.46C281.013 49.293 285.981 49.941 290.233 52.021Z" fill="#814EFF"/>
<path d="M247.716 183.534L243.644 166.203C242.111 166.958 240.523 167.594 238.803 167.999C233.391 169.271 227.967 168.361 223.479 165.837L301.811 66.801C302.155 68.378 302.313 69.947 302.285 71.505L316.55 68.153L247.716 183.534Z" fill="#814EFF"/>
<path d="M337.302 141.8C341.71 144.659 346.926 146.249 352.346 146.134L333.791 180.282C331.556 174.018 327.146 169.028 321.66 165.949L337.302 141.8Z" fill="#814EFF"/>
<path d="M341.403 74.812L345.798 93.516C331.484 96.879 322.587 111.206 325.925 125.526L305.519 162.768C304.542 162.866 303.558 163.045 302.56 163.28C288.221 166.649 279.33 181.002 282.7 195.341L263.996 199.736C261.128 200.41 258.244 200.008 255.801 198.792L340.814 72.977C341.06 73.577 341.256 74.188 341.403 74.812Z" fill="#814EFF"/>
<path d="M231.526 95.857C232 93.061 233.852 90.533 236.374 89.238" stroke="white" stroke-width="0.8" stroke-miterlimit="10" stroke-linecap="round" stroke-linejoin="round"/>
<path d="M263.049 66.95C264.854 60.677 269.854 55.415 276.026 53.29" stroke="white" stroke-width="0.8" stroke-miterlimit="10" stroke-linecap="round" stroke-linejoin="round"/>
<path d="M280.39 181.353C282.963 170.569 292.679 161.872 303.681 160.504" stroke="white" stroke-width="0.8" stroke-miterlimit="10" stroke-linecap="round" stroke-linejoin="round"/>
<path d="M216.1 140.784C218.055 135.017 223.226 130.461 229.194 129.248" stroke="white" stroke-width="0.8" stroke-miterlimit="10" stroke-linecap="round" stroke-linejoin="round"/>
<path d="M305.15 73.294C312.483 71.34 319.817 69.385 327.15 67.43" stroke="white" stroke-width="0.8" stroke-miterlimit="10" stroke-linecap="round" stroke-linejoin="round"/>
<path d="M306.421 10.512C307.578 8.95499 309.459 7.962 311.397 7.886C313.335 7.809 315.289 8.65099 316.565 10.111" stroke="#060305" stroke-width="0.8" stroke-miterlimit="10" stroke-linecap="round" stroke-linejoin="round"/>
<path d="M336.967 10.188C338.688 11.602 339.757 13.78 339.823 16.007C339.889 18.234 338.952 20.471 337.319 21.986" stroke="#060305" stroke-width="0.8" stroke-miterlimit="10" stroke-linecap="round" stroke-linejoin="round"/>
<path d="M341.548 28.034C341.473 26.826 340.315 25.759 339.128 25.526C339.8 24.869 340.04 23.807 339.716 22.924C339.392 22.041 338.592 21.498 337.655 21.432C339.595 18.775 339.415 14.777 337.244 12.305C335.073 9.83299 331.265 9.13699 328.379 10.717C327.638 8.09299 325.148 6.05999 322.429 5.85899C319.71 5.65799 317.072 7.25199 315.952 9.73899C314.902 8.65599 313.238 8.35199 311.754 8.62199C309.987 8.94399 308.371 10.02 307.392 11.526C306.414 13.032 306.245 15.111 306.669 16.855C304.917 17.238 303.518 18.874 303.411 20.664C303.304 22.455 304.564 24.286 306.258 24.874C305.605 25.454 305.34 26.426 305.584 27.264C305.829 28.103 306.56 28.774 307.411 28.97C308.262 29.166 309.201 28.892 309.83 28.287L331.651 37.724C333.095 38.561 334.843 38.918 336.473 38.558C338.103 38.197 339.581 37.078 340.234 35.541C340.887 34.005 340.8 32.041 339.655 30.827C340.804 30.449 341.622 29.241 341.548 28.034Z" fill="#060305"/>
<path d="M330.993 43.515C330.698 42.022 330.429 40.542 330.133 39.05C331.996 38.733 333.64 37.356 334.279 35.578C334.918 33.8 334.526 31.691 333.291 30.261C332.056 28.831 330.095 28.407 328.243 28.781C327.934 29.62 327.396 30.342 327.087 31.18C326.057 30.169 325.23 28.949 324.739 27.591C323.575 28.584 321.93 28.983 320.44 28.634C318.951 28.284 317.446 27.355 316.846 25.948C316.134 26.853 314.9 27.316 313.768 27.102C312.636 26.889 311.656 26.009 311.322 24.906C310.337 25.766 309.452 26.935 309.232 28.223C308.736 31.118 308.462 34.422 308.108 37.338C307.842 39.533 309.219 41.641 310.782 43.206C312.345 44.77 314.515 45.712 316.725 45.784C316.887 46.247 316.983 46.59 317.145 47.053C319.297 48.495 322.164 49.069 324.685 48.476C327.208 47.884 329.71 45.765 330.993 43.515Z" fill="#C14F4F"/>
<path d="M322.34 35.861C322.34 35.395 321.962 35.017 321.496 35.017C321.03 35.017 320.652 35.395 320.652 35.861C320.652 36.327 321.03 36.705 321.496 36.705C321.962 36.705 322.34 36.327 322.34 35.861Z" fill="#060305"/>
<path d="M312.208 35.243C312.208 34.777 311.83 34.399 311.364 34.399C310.898 34.399 310.52 34.777 310.52 35.243C310.52 35.709 310.898 36.087 311.364 36.087C311.83 36.087 312.208 35.709 312.208 35.243Z" fill="#060305"/>
<path d="M329.252 33.218C329.939 32.601 330.625 31.985 331.312 31.368" stroke="#060305" stroke-width="0.8" stroke-miterlimit="10" stroke-linecap="round" stroke-linejoin="round"/>
<path d="M329.263 39.266C329.635 39.223 330.007 39.18 330.38 39.137" stroke="#060305" stroke-width="0.8" stroke-miterlimit="10" stroke-linecap="round" stroke-linejoin="round"/>
<path d="M316.419 46.096C319.231 46.609 322.248 45.877 324.512 44.132" stroke="#060305" stroke-width="0.8" stroke-miterlimit="10" stroke-linecap="round" stroke-linejoin="round"/>
<path d="M315.829 35.224C315.568 36.277 315.306 37.331 315.045 38.384C315.456 38.286 315.867 38.189 316.278 38.091" stroke="#060305" stroke-width="0.8" stroke-miterlimit="10" stroke-linecap="round" stroke-linejoin="round"/>
<path d="M318.133 39.322C318.42 39.754 318.998 39.969 319.498 39.831C319.998 39.692 320.382 39.21 320.406 38.692" stroke="#060305" stroke-width="0.8" stroke-miterlimit="10" stroke-linecap="round" stroke-linejoin="round"/>
<path d="M309.776 31.185C310.182 30.658 310.839 30.333 311.504 30.331C312.169 30.328 312.828 30.648 313.239 31.172" stroke="#060305" stroke-width="0.8" stroke-miterlimit="10" stroke-linecap="round" stroke-linejoin="round"/>
<path d="M319.577 30.92C320.508 30.936 321.44 30.952 322.371 30.968" stroke="#060305" stroke-width="0.8" stroke-miterlimit="10" stroke-linecap="round" stroke-linejoin="round"/>
<path d="M317.086 25.839C316.543 27.392 314.878 28.471 313.239 28.333" stroke="#060305" stroke-width="0.8" stroke-miterlimit="10" stroke-linecap="round" stroke-linejoin="round"/>
<path d="M382.814 80.85C376.057 74.327 368.434 68.786 360.248 64.204C356.928 62.346 352.8 62.761 349.951 65.283L327.384 85.26C327.569 86.189 328.639 86.774 329.586 86.803C330.532 86.832 331.435 86.439 332.298 86.049C337.442 83.726 342.514 81.246 347.505 78.612C340.443 83.661 333.472 88.57 326.411 93.619C326.23 94.602 327.21 95.517 328.192 95.701C329.174 95.886 330.172 95.551 331.115 95.221C338.349 92.692 345.582 90.163 352.816 87.634C345.636 91.214 338.455 95.09 331.275 98.67C331.288 99.719 332.438 100.766 333.46 101.004C334.481 101.242 335.547 101.018 336.57 100.786C343.576 99.201 350.509 97.292 357.34 95.069C352.583 97.018 347.983 99.016 343.225 100.965C343.019 101.627 343.503 102.458 344.143 102.723C344.784 102.988 345.507 102.922 346.197 102.852C351.189 102.344 356.181 101.837 361.173 101.329C363.512 102.682 365.838 104.065 368.169 105.434C372.38 107.907 378.935 107.368 382.511 104.043C385.572 101.198 387.162 96.956 387.151 92.777C387.139 88.594 385.824 83.756 382.814 80.85Z" fill="#C14F4F"/>
<path d="M342.791 81.333C345.734 79.604 348.678 77.875 351.622 76.146" stroke="#060305" stroke-width="0.8" stroke-miterlimit="10" stroke-linecap="round" stroke-linejoin="round"/>
<path d="M349.024 89.327C351.504 88.039 353.985 86.751 356.465 85.463" stroke="#060305" stroke-width="0.8" stroke-miterlimit="10" stroke-linecap="round" stroke-linejoin="round"/>
<path d="M350.836 97.534C353.746 96.325 356.656 95.115 359.567 93.906" stroke="#060305" stroke-width="0.8" stroke-miterlimit="10" stroke-linecap="round" stroke-linejoin="round"/>
<path d="M127.887 12.681C127.887 12.098 127.415 11.626 126.832 11.626C126.249 11.626 125.777 12.099 125.777 12.681C125.777 13.264 126.249 13.736 126.832 13.736C127.415 13.737 127.887 13.264 127.887 12.681Z" fill="white"/>
<path d="M14.248 103.059C14.248 102.476 13.776 102.004 13.193 102.004C12.61 102.004 12.138 102.476 12.138 103.059C12.138 103.642 12.61 104.114 13.193 104.114C13.775 104.114 14.248 103.642 14.248 103.059Z" fill="#814EFF"/>
<path d="M245.516 16.178C245.516 15.595 245.044 15.123 244.461 15.123C243.878 15.123 243.406 15.596 243.406 16.178C243.406 16.761 243.878 17.233 244.461 17.233C245.043 17.233 245.516 16.761 245.516 16.178Z" fill="#814EFF"/>
<path d="M196.007 286.376C196.007 285.793 195.535 285.321 194.952 285.321C194.369 285.321 193.897 285.793 193.897 286.376C193.897 286.959 194.369 287.431 194.952 287.431C195.535 287.431 196.007 286.959 196.007 286.376Z" fill="#814EFF"/>
<path d="M232.648 258.627C232.648 258.044 232.176 257.572 231.593 257.572C231.01 257.572 230.538 258.045 230.538 258.627C230.538 259.21 231.011 259.682 231.593 259.682C232.175 259.682 232.648 259.21 232.648 258.627Z" fill="white"/>
<path d="M405.613 232.788C405.613 232.205 405.141 231.733 404.558 231.733C403.975 231.733 403.503 232.205 403.503 232.788C403.503 233.371 403.975 233.843 404.558 233.843C405.141 233.843 405.613 233.371 405.613 232.788Z" fill="#814EFF"/>
<path d="M210.156 295.746C210.156 295.163 209.684 294.691 209.101 294.691C208.518 294.691 208.046 295.163 208.046 295.746C208.046 296.329 208.518 296.801 209.101 296.801C209.684 296.801 210.156 296.329 210.156 295.746Z" fill="white"/>
<path d="M184.069 215.411C184.069 214.828 183.597 214.356 183.014 214.356C182.431 214.356 181.959 214.829 181.959 215.411C181.959 215.993 182.431 216.466 183.014 216.466C183.596 216.466 184.069 215.994 184.069 215.411Z" fill="white"/>
<path d="M445.838 147.964C445.838 147.381 445.366 146.909 444.783 146.909C444.2 146.909 443.728 147.381 443.728 147.964C443.728 148.547 444.201 149.019 444.783 149.019C445.365 149.019 445.838 148.547 445.838 147.964Z" fill="white"/>
<path d="M25.322 87.107C25.322 86.524 24.85 86.052 24.267 86.052C23.684 86.052 23.212 86.524 23.212 87.107C23.212 87.69 23.684 88.162 24.267 88.162C24.85 88.163 25.322 87.69 25.322 87.107Z" fill="white"/>
<path d="M235.005 55.264C235.005 54.681 234.532 54.209 233.95 54.209C233.367 54.209 232.895 54.681 232.895 55.264C232.895 55.847 233.367 56.319 233.95 56.319C234.533 56.319 235.005 55.846 235.005 55.264Z" fill="white"/>
<path d="M170.469 46.758H165.721V51.506H170.469V46.758Z" fill="#814EFF"/>
<path d="M267.416 235.687H262.668V240.435H267.416V235.687Z" stroke="#060305" stroke-width="0.8" stroke-miterlimit="10" stroke-linecap="round" stroke-linejoin="round"/>
<path d="M12.137 154.178H7.38899V158.926H12.137V154.178Z" stroke="#060305" stroke-width="0.8" stroke-miterlimit="10" stroke-linecap="round" stroke-linejoin="round"/>
<path d="M367.499 22.533H362.751V27.281H367.499V22.533Z" fill="white"/>
<path d="M205.732 61.482L209.531 65.281" stroke="#060305" stroke-width="0.8" stroke-miterlimit="10" stroke-linecap="round" stroke-linejoin="round"/>
<path d="M434.347 104.78L438.146 108.579" stroke="#060305" stroke-width="0.8" stroke-miterlimit="10" stroke-linecap="round" stroke-linejoin="round"/>
<path d="M413.433 216.41L417.232 220.209" stroke="#060305" stroke-width="0.8" stroke-miterlimit="10" stroke-linecap="round" stroke-linejoin="round"/>
<path d="M280.974 7.40601L277.175 11.205" stroke="#060305" stroke-width="0.8" stroke-miterlimit="10" stroke-linecap="round" stroke-linejoin="round"/>
<path d="M392.135 25.524L388.336 29.323" stroke="#060305" stroke-width="0.8" stroke-miterlimit="10" stroke-linecap="round" stroke-linejoin="round"/>
<path d="M20.669 198.411L16.869 202.211" stroke="#060305" stroke-width="0.8" stroke-miterlimit="10" stroke-linecap="round" stroke-linejoin="round"/>
<path d="M211.235 239.833L207.436 243.633" stroke="#060305" stroke-width="0.8" stroke-miterlimit="10" stroke-linecap="round" stroke-linejoin="round"/>
<path d="M43.654 39.751L47.454 43.55" stroke="#060305" stroke-width="0.8" stroke-miterlimit="10" stroke-linecap="round" stroke-linejoin="round"/>
</svg>
